M48
; DRILL file {KiCad 5.1.0} date Mi 15 Mai 2019 13:00:24 CEST
; FORMAT={-:-/ absolute / metric / decimal}
; #@! TF.CreationDate,2019-05-15T13:00:24+02:00
; #@! TF.GenerationSoftware,Kicad,Pcbnew,5.1.0
; #@! TF.FileFunction,Plated,1,4,PTH
FMAT,2
METRIC
T1C0.300
T2C0.500
T3C0.550
T4C1.000
T5C1.520
%
G90
G05
T1
X103.0Y-52.0
X103.0Y-54.0
X103.0Y-56.0
X103.0Y-74.0
X103.0Y-75.5
X103.1Y-102.25
X103.25Y-101.0
X103.5Y-110.5
X103.962Y-91.787
X104.25Y-87.75
X104.25Y-104.5
X104.25Y-105.5
X104.5Y-50.75
X104.95Y-96.4
X105.0Y-52.0
X105.0Y-54.0
X105.0Y-56.0
X105.0Y-65.5
X105.0Y-72.5
X105.0Y-110.5
X105.8Y-103.3
X106.0Y-118.5
X106.25Y-60.0
X106.25Y-81.5
X106.25Y-87.75
X106.5Y-92.75
X106.75Y-74.0
X107.5Y-96.25
X107.75Y-81.5
X108.0Y-88.25
X108.45Y-60.95
X108.5Y-110.5
X109.0Y-65.5
X109.0Y-89.25
X109.25Y-104.5
X109.5Y-61.9
X110.0Y-110.5
X110.0Y-118.5
X110.75Y-51.75
X110.75Y-52.75
X110.75Y-53.75
X110.75Y-54.75
X111.5Y-114.0
X112.0Y-75.5
X112.5Y-54.0
X112.5Y-55.0
X115.0Y-66.5
X116.5Y-72.0
X116.75Y-66.5
X117.0Y-61.0
X117.25Y-78.0
X117.4Y-127.3
X118.0Y-61.0
X118.0Y-98.7
X118.0Y-96.3
X118.05Y-72.8
X118.75Y-54.0
X118.75Y-55.0
X119.0Y-61.0
X119.0Y-75.0
X119.7Y-129.4
X119.7Y-136.6
X119.95Y-72.8
X120.0Y-61.0
X120.0Y-71.0
X120.0Y-128.3
X120.5Y-121.5
X120.75Y-96.75
X120.8Y-99.5
X120.8Y-100.3
X120.8Y-95.5
X120.812Y-98.328
X121.0Y-71.0
X121.25Y-82.25
X122.0Y-67.0
X122.0Y-71.0
X122.0Y-80.35
X122.0Y-84.15
X122.5Y-121.5
X122.75Y-54.5
X122.75Y-58.25
X123.25Y-47.25
X123.25Y-48.25
X123.5Y-65.0
X123.5Y-86.5
X124.0Y-72.5
X124.25Y-47.25
X124.25Y-48.25
X124.4Y-65.2
X124.5Y-121.5
X124.75Y-69.25
X124.75Y-70.25
X124.75Y-76.25
X125.0Y-55.0
X125.0Y-56.0
X125.75Y-60.5
X125.75Y-61.5
X125.75Y-66.0
X125.75Y-67.0
X125.75Y-68.0
X126.15Y-81.6
X126.5Y-121.5
X126.748Y-66.006
X126.75Y-60.5
X126.75Y-61.5
X126.75Y-67.0
X126.75Y-68.0
X127.0Y-59.5
X127.0Y-65.3
X127.0Y-76.75
X127.4Y-127.3
X127.75Y-50.5
X128.0Y-49.75
X128.0Y-57.0
X128.1Y-47.0
X128.5Y-121.5
X128.75Y-48.25
X128.75Y-72.5
X128.75Y-75.5
X128.75Y-78.5
X129.192Y-98.323
X129.25Y-96.75
X129.7Y-136.6
X129.75Y-47.25
X129.75Y-48.25
X129.75Y-52.0
X129.75Y-82.75
X129.8Y-129.4
X130.0Y-72.5
X130.0Y-128.3
X130.05Y-81.45
X130.2Y-61.8
X130.2Y-65.5
X130.5Y-53.0
X130.5Y-54.0
X130.5Y-57.5
X130.5Y-58.5
X130.5Y-121.5
X130.75Y-47.25
X130.75Y-48.25
X131.5Y-53.0
X131.5Y-54.0
X131.75Y-49.5
X131.75Y-51.0
X131.75Y-84.75
X132.0Y-72.7
X132.0Y-81.3
X132.5Y-65.5
X132.5Y-121.5
X132.6Y-97.75
X132.95Y-57.25
X132.95Y-62.75
X133.0Y-75.5
X133.25Y-78.5
X133.5Y-46.5
X134.5Y-121.5
X134.55Y-85.85
X134.75Y-76.45
X134.75Y-107.0
X134.95Y-73.45
X134.95Y-78.45
X135.25Y-83.0
X136.25Y-74.25
X136.25Y-76.5
X136.25Y-92.25
X136.25Y-93.25
X136.25Y-94.25
X136.25Y-95.25
X136.25Y-96.75
X136.25Y-98.25
X136.25Y-99.25
X136.25Y-100.25
X136.25Y-102.25
X136.25Y-103.75
X136.45Y-62.75
X136.48Y-57.128
X136.75Y-88.2
X137.0Y-80.25
X137.0Y-81.25
X137.25Y-84.75
X137.25Y-71.25
X137.4Y-127.3
X137.75Y-76.5
X137.75Y-77.5
X137.75Y-106.75
X138.0Y-70.25
X138.25Y-88.25
X138.75Y-100.75
X139.25Y-59.75
X139.25Y-76.5
X139.25Y-77.5
X139.7Y-129.4
X139.7Y-136.6
X140.0Y-128.3
X140.25Y-48.15
X140.25Y-55.15
X140.25Y-88.25
X140.25Y-106.75
X140.5Y-80.25
X140.5Y-81.25
X140.75Y-63.75
X140.75Y-76.5
X140.75Y-77.5
X140.9Y-73.6
X141.25Y-52.25
X141.75Y-48.25
X141.75Y-55.2
X141.75Y-63.75
X142.2Y-115.2
X142.25Y-52.25
X142.25Y-68.75
X142.25Y-76.5
X142.25Y-77.5
X142.75Y-44.75
X142.75Y-55.2
X143.0Y-73.75
X143.25Y-88.25
X143.75Y-44.75
X143.75Y-76.5
X143.75Y-77.5
X143.75Y-106.75
X144.199Y-56.551
X144.25Y-63.75
X144.25Y-88.25
X144.75Y-44.75
X144.75Y-49.0
X144.75Y-106.5
X144.8Y-119.5
X144.801Y-55.949
X144.9Y-118.0
X145.0Y-81.25
X145.0Y-83.35
X145.25Y-55.1
X145.25Y-76.5
X145.25Y-77.5
X145.25Y-88.5
X145.3Y-116.5
X145.5Y-112.25
X145.5Y-113.25
X145.75Y-44.75
X145.8Y-119.0
X146.25Y-106.5
X146.5Y-73.75
X146.75Y-63.75
X146.75Y-76.5
X146.75Y-77.5
X146.75Y-88.5
X147.0Y-97.5
X147.0Y-98.5
X147.25Y-48.0
X147.25Y-49.0
X147.4Y-127.3
X147.647Y-57.265
X147.65Y-59.75
X147.65Y-61.2
X147.65Y-62.25
X147.65Y-56.25
X147.75Y-109.85
X148.0Y-67.75
X148.0Y-70.25
X148.25Y-76.5
X148.25Y-77.5
X148.25Y-79.75
X148.25Y-88.25
X148.25Y-106.75
X149.0Y-49.75
X149.0Y-50.75
X149.0Y-51.75
X149.5Y-112.25
X149.5Y-113.25
X149.7Y-129.4
X149.7Y-136.6
X149.75Y-88.25
X150.0Y-64.25
X150.0Y-128.3
X150.6Y-59.75
X150.6Y-78.2
X150.65Y-55.75
X150.65Y-62.25
X150.7Y-70.7
X150.7Y-72.0
X150.7Y-75.95
X150.75Y-63.5
X150.75Y-64.25
X150.9Y-54.0
X151.0Y-91.75
X151.0Y-93.25
X151.25Y-88.25
X151.5Y-45.75
X151.7Y-115.2
X151.95Y-52.9
X152.1Y-69.0
X152.25Y-103.0
X152.25Y-106.75
X152.5Y-45.75
X152.5Y-84.5
X152.5Y-96.0
X152.5Y-100.0
X152.75Y-88.25
X153.25Y-77.0
X153.4Y-80.0
X153.5Y-96.0
X153.5Y-100.0
X153.55Y-52.9
X153.9Y-72.7
X154.0Y-88.25
X154.4Y-70.8
X154.4Y-118.0
X154.4Y-119.5
X154.55Y-54.0
X154.55Y-55.5
X154.6Y-57.0
X154.6Y-58.5
X154.6Y-60.0
X154.6Y-61.5
X154.6Y-63.0
X154.6Y-64.5
X154.75Y-98.75
X154.75Y-93.25
X154.75Y-96.75
X154.75Y-97.75
X154.75Y-99.5
X154.75Y-100.5
X154.75Y-101.25
X154.75Y-102.25
X154.75Y-103.25
X154.75Y-104.25
X154.8Y-71.8
X154.8Y-91.75
X154.8Y-94.2
X154.9Y-116.5
X155.25Y-49.75
X155.3Y-119.0
X155.65Y-61.75
X155.7Y-70.8
X156.25Y-49.75
X156.25Y-55.35
X156.65Y-80.85
X156.7Y-43.0
X156.7Y-59.8
X156.7Y-75.9
X156.7Y-78.25
X156.75Y-49.0
X157.4Y-127.3
X157.6Y-52.4
X157.75Y-93.75
X157.75Y-49.0
X157.75Y-92.75
X157.75Y-94.75
X157.75Y-95.75
X157.75Y-97.25
X157.75Y-98.25
X157.75Y-99.25
X157.75Y-102.75
X157.75Y-103.75
X157.75Y-100.75
X157.75Y-101.75
X157.95Y-84.35
X158.4Y-47.5
X159.2Y-77.6
X159.3Y-48.9
X159.3Y-70.75
X159.3Y-79.5
X159.3Y-80.8
X159.45Y-46.0
X159.5Y-51.3
X159.5Y-55.8
X159.7Y-136.6
X159.8Y-80.2
X159.8Y-129.4
X159.9Y-78.9
X160.0Y-128.3
X160.3Y-43.0
X160.35Y-50.0
X160.45Y-55.75
X161.0Y-49.35
X161.0Y-45.75
X162.1Y-48.3
X162.15Y-46.7
X162.35Y-58.75
X162.35Y-61.75
X164.5Y-42.0
X164.5Y-49.0
X164.85Y-50.5
X164.85Y-52.0
X164.85Y-53.5
X165.75Y-75.5
X165.75Y-76.5
X165.8Y-74.55
X166.9Y-73.65
X169.0Y-101.25
X169.0Y-105.25
X169.1Y-73.65
X170.0Y-101.25
X170.0Y-105.25
X170.25Y-74.55
X174.75Y-71.5
X174.75Y-75.5
X175.75Y-71.5
X175.75Y-75.5
X177.75Y-61.25
T4
X167.0Y-81.3
X167.0Y-83.84
X167.0Y-86.38
X167.0Y-88.92
X167.0Y-91.46
X167.0Y-94.0
X169.54Y-81.3
X169.54Y-83.84
X169.54Y-86.38
X169.54Y-88.92
X169.54Y-91.46
X169.54Y-94.0
X167.0Y-52.3
X167.0Y-54.84
X167.0Y-57.38
X167.0Y-59.92
X167.0Y-62.46
X167.0Y-65.0
X169.54Y-52.3
X169.54Y-54.84
X169.54Y-57.38
X169.54Y-59.92
X169.54Y-62.46
X169.54Y-65.0
X167.0Y-112.3
X167.0Y-114.84
X167.0Y-117.38
X167.0Y-119.92
X167.0Y-122.46
X167.0Y-125.0
X169.54Y-112.3
X169.54Y-114.84
X169.54Y-117.38
X169.54Y-119.92
X169.54Y-122.46
X169.54Y-125.0
X163.34Y-91.74
X163.34Y-94.28
X163.34Y-96.82
X163.34Y-99.36
X163.34Y-101.9
X163.34Y-104.44
X163.34Y-106.98
X163.34Y-109.52
X163.34Y-65.07
X163.34Y-67.61
X163.34Y-70.15
X163.34Y-72.69
X163.34Y-75.23
X163.34Y-77.77
X163.34Y-80.31
X163.34Y-82.85
X163.34Y-85.39
X163.34Y-87.93
X115.08Y-96.82
X115.08Y-99.36
X115.08Y-101.9
X115.08Y-104.44
X115.08Y-106.98
X115.08Y-109.52
X137.0Y-47.0
X137.0Y-49.54
X115.08Y-73.96
X115.08Y-76.5
X115.08Y-79.04
X115.08Y-81.58
X115.08Y-84.12
X115.08Y-86.66
X115.08Y-89.2
X115.08Y-91.74
T5
X113.15Y-44.2
X118.23Y-44.2
T2
G00X148.5Y-41.825
M15
G01X148.5Y-41.175
M16
G05
G00X155.5Y-41.825
M15
G01X155.5Y-41.175
M16
G05
T3
G00X149.65Y-44.2
M15
G01X149.35Y-44.2
M16
G05
G00X154.65Y-44.2
M15
G01X154.35Y-44.2
M16
G05
T0
M30
