G04 #@! TF.GenerationSoftware,KiCad,Pcbnew,5.1.0*
G04 #@! TF.CreationDate,2019-05-15T13:00:21+02:00*
G04 #@! TF.ProjectId,ice40_breakout,69636534-305f-4627-9265-616b6f75742e,rev?*
G04 #@! TF.SameCoordinates,Original*
G04 #@! TF.FileFunction,Soldermask,Bot*
G04 #@! TF.FilePolarity,Negative*
%FSLAX46Y46*%
G04 Gerber Fmt 4.6, Leading zero omitted, Abs format (unit mm)*
G04 Created by KiCad (PCBNEW 5.1.0) date 2019-05-15 13:00:21*
%MOMM*%
%LPD*%
G04 APERTURE LIST*
%ADD10C,0.100000*%
G04 APERTURE END LIST*
D10*
G36*
X175321899Y-133381704D02*
G01*
X175481287Y-133413408D01*
X175605667Y-133464928D01*
X175781567Y-133537788D01*
X175781568Y-133537789D01*
X176051814Y-133718361D01*
X176281639Y-133948186D01*
X176281640Y-133948188D01*
X176462212Y-134218433D01*
X176586592Y-134518714D01*
X176650000Y-134837488D01*
X176650000Y-135162512D01*
X176586592Y-135481286D01*
X176462212Y-135781567D01*
X176462211Y-135781568D01*
X176281639Y-136051814D01*
X176051814Y-136281639D01*
X175915774Y-136372538D01*
X175781567Y-136462212D01*
X175605667Y-136535072D01*
X175481287Y-136586592D01*
X175321899Y-136618296D01*
X175162512Y-136650000D01*
X174837488Y-136650000D01*
X174678101Y-136618296D01*
X174518713Y-136586592D01*
X174394333Y-136535072D01*
X174218433Y-136462212D01*
X174084226Y-136372538D01*
X173948186Y-136281639D01*
X173718361Y-136051814D01*
X173537789Y-135781568D01*
X173537788Y-135781567D01*
X173413408Y-135481286D01*
X173350000Y-135162512D01*
X173350000Y-134837488D01*
X173413408Y-134518714D01*
X173537788Y-134218433D01*
X173718360Y-133948188D01*
X173718361Y-133948186D01*
X173948186Y-133718361D01*
X174218432Y-133537789D01*
X174218433Y-133537788D01*
X174394333Y-133464928D01*
X174518713Y-133413408D01*
X174678101Y-133381704D01*
X174837488Y-133350000D01*
X175162512Y-133350000D01*
X175321899Y-133381704D01*
X175321899Y-133381704D01*
G37*
G36*
X105321899Y-133381704D02*
G01*
X105481287Y-133413408D01*
X105605667Y-133464928D01*
X105781567Y-133537788D01*
X105781568Y-133537789D01*
X106051814Y-133718361D01*
X106281639Y-133948186D01*
X106281640Y-133948188D01*
X106462212Y-134218433D01*
X106586592Y-134518714D01*
X106650000Y-134837488D01*
X106650000Y-135162512D01*
X106586592Y-135481286D01*
X106462212Y-135781567D01*
X106462211Y-135781568D01*
X106281639Y-136051814D01*
X106051814Y-136281639D01*
X105915774Y-136372538D01*
X105781567Y-136462212D01*
X105605667Y-136535072D01*
X105481287Y-136586592D01*
X105321899Y-136618296D01*
X105162512Y-136650000D01*
X104837488Y-136650000D01*
X104678101Y-136618296D01*
X104518713Y-136586592D01*
X104394333Y-136535072D01*
X104218433Y-136462212D01*
X104084226Y-136372538D01*
X103948186Y-136281639D01*
X103718361Y-136051814D01*
X103537789Y-135781568D01*
X103537788Y-135781567D01*
X103413408Y-135481286D01*
X103350000Y-135162512D01*
X103350000Y-134837488D01*
X103413408Y-134518714D01*
X103537788Y-134218433D01*
X103718360Y-133948188D01*
X103718361Y-133948186D01*
X103948186Y-133718361D01*
X104218432Y-133537789D01*
X104218433Y-133537788D01*
X104394333Y-133464928D01*
X104518713Y-133413408D01*
X104678101Y-133381704D01*
X104837488Y-133350000D01*
X105162512Y-133350000D01*
X105321899Y-133381704D01*
X105321899Y-133381704D01*
G37*
G36*
X169736034Y-124014469D02*
G01*
X169924536Y-124071651D01*
X170098256Y-124164506D01*
X170250528Y-124289472D01*
X170375494Y-124441744D01*
X170468349Y-124615464D01*
X170525531Y-124803966D01*
X170544838Y-125000000D01*
X170525531Y-125196034D01*
X170468349Y-125384536D01*
X170375494Y-125558256D01*
X170250528Y-125710528D01*
X170098256Y-125835494D01*
X169924536Y-125928349D01*
X169736034Y-125985531D01*
X169589124Y-126000000D01*
X169490876Y-126000000D01*
X169343966Y-125985531D01*
X169155464Y-125928349D01*
X168981744Y-125835494D01*
X168829472Y-125710528D01*
X168704506Y-125558256D01*
X168611651Y-125384536D01*
X168554469Y-125196034D01*
X168535162Y-125000000D01*
X168554469Y-124803966D01*
X168611651Y-124615464D01*
X168704506Y-124441744D01*
X168829472Y-124289472D01*
X168981744Y-124164506D01*
X169155464Y-124071651D01*
X169343966Y-124014469D01*
X169490876Y-124000000D01*
X169589124Y-124000000D01*
X169736034Y-124014469D01*
X169736034Y-124014469D01*
G37*
G36*
X168000000Y-126000000D02*
G01*
X166000000Y-126000000D01*
X166000000Y-124000000D01*
X168000000Y-124000000D01*
X168000000Y-126000000D01*
X168000000Y-126000000D01*
G37*
G36*
X169736034Y-121474469D02*
G01*
X169924536Y-121531651D01*
X170098256Y-121624506D01*
X170250528Y-121749472D01*
X170375494Y-121901744D01*
X170468349Y-122075464D01*
X170525531Y-122263966D01*
X170544838Y-122460000D01*
X170525531Y-122656034D01*
X170468349Y-122844536D01*
X170375494Y-123018256D01*
X170250528Y-123170528D01*
X170098256Y-123295494D01*
X169924536Y-123388349D01*
X169736034Y-123445531D01*
X169589124Y-123460000D01*
X169490876Y-123460000D01*
X169343966Y-123445531D01*
X169155464Y-123388349D01*
X168981744Y-123295494D01*
X168829472Y-123170528D01*
X168704506Y-123018256D01*
X168611651Y-122844536D01*
X168554469Y-122656034D01*
X168535162Y-122460000D01*
X168554469Y-122263966D01*
X168611651Y-122075464D01*
X168704506Y-121901744D01*
X168829472Y-121749472D01*
X168981744Y-121624506D01*
X169155464Y-121531651D01*
X169343966Y-121474469D01*
X169490876Y-121460000D01*
X169589124Y-121460000D01*
X169736034Y-121474469D01*
X169736034Y-121474469D01*
G37*
G36*
X167196034Y-121474469D02*
G01*
X167384536Y-121531651D01*
X167558256Y-121624506D01*
X167710528Y-121749472D01*
X167835494Y-121901744D01*
X167928349Y-122075464D01*
X167985531Y-122263966D01*
X168004838Y-122460000D01*
X167985531Y-122656034D01*
X167928349Y-122844536D01*
X167835494Y-123018256D01*
X167710528Y-123170528D01*
X167558256Y-123295494D01*
X167384536Y-123388349D01*
X167196034Y-123445531D01*
X167049124Y-123460000D01*
X166950876Y-123460000D01*
X166803966Y-123445531D01*
X166615464Y-123388349D01*
X166441744Y-123295494D01*
X166289472Y-123170528D01*
X166164506Y-123018256D01*
X166071651Y-122844536D01*
X166014469Y-122656034D01*
X165995162Y-122460000D01*
X166014469Y-122263966D01*
X166071651Y-122075464D01*
X166164506Y-121901744D01*
X166289472Y-121749472D01*
X166441744Y-121624506D01*
X166615464Y-121531651D01*
X166803966Y-121474469D01*
X166950876Y-121460000D01*
X167049124Y-121460000D01*
X167196034Y-121474469D01*
X167196034Y-121474469D01*
G37*
G36*
X167196034Y-118934469D02*
G01*
X167384536Y-118991651D01*
X167558256Y-119084506D01*
X167710528Y-119209472D01*
X167835494Y-119361744D01*
X167928349Y-119535464D01*
X167985531Y-119723966D01*
X168004838Y-119920000D01*
X167985531Y-120116034D01*
X167928349Y-120304536D01*
X167835494Y-120478256D01*
X167710528Y-120630528D01*
X167558256Y-120755494D01*
X167384536Y-120848349D01*
X167196034Y-120905531D01*
X167049124Y-120920000D01*
X166950876Y-120920000D01*
X166803966Y-120905531D01*
X166615464Y-120848349D01*
X166441744Y-120755494D01*
X166289472Y-120630528D01*
X166164506Y-120478256D01*
X166071651Y-120304536D01*
X166014469Y-120116034D01*
X165995162Y-119920000D01*
X166014469Y-119723966D01*
X166071651Y-119535464D01*
X166164506Y-119361744D01*
X166289472Y-119209472D01*
X166441744Y-119084506D01*
X166615464Y-118991651D01*
X166803966Y-118934469D01*
X166950876Y-118920000D01*
X167049124Y-118920000D01*
X167196034Y-118934469D01*
X167196034Y-118934469D01*
G37*
G36*
X169736034Y-118934469D02*
G01*
X169924536Y-118991651D01*
X170098256Y-119084506D01*
X170250528Y-119209472D01*
X170375494Y-119361744D01*
X170468349Y-119535464D01*
X170525531Y-119723966D01*
X170544838Y-119920000D01*
X170525531Y-120116034D01*
X170468349Y-120304536D01*
X170375494Y-120478256D01*
X170250528Y-120630528D01*
X170098256Y-120755494D01*
X169924536Y-120848349D01*
X169736034Y-120905531D01*
X169589124Y-120920000D01*
X169490876Y-120920000D01*
X169343966Y-120905531D01*
X169155464Y-120848349D01*
X168981744Y-120755494D01*
X168829472Y-120630528D01*
X168704506Y-120478256D01*
X168611651Y-120304536D01*
X168554469Y-120116034D01*
X168535162Y-119920000D01*
X168554469Y-119723966D01*
X168611651Y-119535464D01*
X168704506Y-119361744D01*
X168829472Y-119209472D01*
X168981744Y-119084506D01*
X169155464Y-118991651D01*
X169343966Y-118934469D01*
X169490876Y-118920000D01*
X169589124Y-118920000D01*
X169736034Y-118934469D01*
X169736034Y-118934469D01*
G37*
G36*
X152083634Y-118880401D02*
G01*
X152134001Y-118895680D01*
X152180427Y-118920495D01*
X152221115Y-118953885D01*
X152254505Y-118994573D01*
X152279320Y-119040999D01*
X152294599Y-119091366D01*
X152300000Y-119146204D01*
X152300000Y-119853796D01*
X152294599Y-119908634D01*
X152279320Y-119959001D01*
X152254505Y-120005427D01*
X152221115Y-120046115D01*
X152180427Y-120079505D01*
X152134001Y-120104320D01*
X152083634Y-120119599D01*
X152028796Y-120125000D01*
X151396204Y-120125000D01*
X151341366Y-120119599D01*
X151290999Y-120104320D01*
X151244573Y-120079505D01*
X151203885Y-120046115D01*
X151170495Y-120005427D01*
X151145680Y-119959001D01*
X151130401Y-119908634D01*
X151125000Y-119853796D01*
X151125000Y-119146204D01*
X151130401Y-119091366D01*
X151145680Y-119040999D01*
X151170495Y-118994573D01*
X151203885Y-118953885D01*
X151244573Y-118920495D01*
X151290999Y-118895680D01*
X151341366Y-118880401D01*
X151396204Y-118875000D01*
X152028796Y-118875000D01*
X152083634Y-118880401D01*
X152083634Y-118880401D01*
G37*
G36*
X153658634Y-118880401D02*
G01*
X153709001Y-118895680D01*
X153755427Y-118920495D01*
X153796115Y-118953885D01*
X153829505Y-118994573D01*
X153854320Y-119040999D01*
X153869599Y-119091366D01*
X153875000Y-119146204D01*
X153875000Y-119853796D01*
X153869599Y-119908634D01*
X153854320Y-119959001D01*
X153829505Y-120005427D01*
X153796115Y-120046115D01*
X153755427Y-120079505D01*
X153709001Y-120104320D01*
X153658634Y-120119599D01*
X153603796Y-120125000D01*
X152971204Y-120125000D01*
X152916366Y-120119599D01*
X152865999Y-120104320D01*
X152819573Y-120079505D01*
X152778885Y-120046115D01*
X152745495Y-120005427D01*
X152720680Y-119959001D01*
X152705401Y-119908634D01*
X152700000Y-119853796D01*
X152700000Y-119146204D01*
X152705401Y-119091366D01*
X152720680Y-119040999D01*
X152745495Y-118994573D01*
X152778885Y-118953885D01*
X152819573Y-118920495D01*
X152865999Y-118895680D01*
X152916366Y-118880401D01*
X152971204Y-118875000D01*
X153603796Y-118875000D01*
X153658634Y-118880401D01*
X153658634Y-118880401D01*
G37*
G36*
X142583634Y-118880401D02*
G01*
X142634001Y-118895680D01*
X142680427Y-118920495D01*
X142721115Y-118953885D01*
X142754505Y-118994573D01*
X142779320Y-119040999D01*
X142794599Y-119091366D01*
X142800000Y-119146204D01*
X142800000Y-119853796D01*
X142794599Y-119908634D01*
X142779320Y-119959001D01*
X142754505Y-120005427D01*
X142721115Y-120046115D01*
X142680427Y-120079505D01*
X142634001Y-120104320D01*
X142583634Y-120119599D01*
X142528796Y-120125000D01*
X141896204Y-120125000D01*
X141841366Y-120119599D01*
X141790999Y-120104320D01*
X141744573Y-120079505D01*
X141703885Y-120046115D01*
X141670495Y-120005427D01*
X141645680Y-119959001D01*
X141630401Y-119908634D01*
X141625000Y-119853796D01*
X141625000Y-119146204D01*
X141630401Y-119091366D01*
X141645680Y-119040999D01*
X141670495Y-118994573D01*
X141703885Y-118953885D01*
X141744573Y-118920495D01*
X141790999Y-118895680D01*
X141841366Y-118880401D01*
X141896204Y-118875000D01*
X142528796Y-118875000D01*
X142583634Y-118880401D01*
X142583634Y-118880401D01*
G37*
G36*
X144158634Y-118880401D02*
G01*
X144209001Y-118895680D01*
X144255427Y-118920495D01*
X144296115Y-118953885D01*
X144329505Y-118994573D01*
X144354320Y-119040999D01*
X144369599Y-119091366D01*
X144375000Y-119146204D01*
X144375000Y-119853796D01*
X144369599Y-119908634D01*
X144354320Y-119959001D01*
X144329505Y-120005427D01*
X144296115Y-120046115D01*
X144255427Y-120079505D01*
X144209001Y-120104320D01*
X144158634Y-120119599D01*
X144103796Y-120125000D01*
X143471204Y-120125000D01*
X143416366Y-120119599D01*
X143365999Y-120104320D01*
X143319573Y-120079505D01*
X143278885Y-120046115D01*
X143245495Y-120005427D01*
X143220680Y-119959001D01*
X143205401Y-119908634D01*
X143200000Y-119853796D01*
X143200000Y-119146204D01*
X143205401Y-119091366D01*
X143220680Y-119040999D01*
X143245495Y-118994573D01*
X143278885Y-118953885D01*
X143319573Y-118920495D01*
X143365999Y-118895680D01*
X143416366Y-118880401D01*
X143471204Y-118875000D01*
X144103796Y-118875000D01*
X144158634Y-118880401D01*
X144158634Y-118880401D01*
G37*
G36*
X142583634Y-117380401D02*
G01*
X142634001Y-117395680D01*
X142680427Y-117420495D01*
X142721115Y-117453885D01*
X142754505Y-117494573D01*
X142779320Y-117540999D01*
X142794599Y-117591366D01*
X142800000Y-117646204D01*
X142800000Y-118353796D01*
X142794599Y-118408634D01*
X142779320Y-118459001D01*
X142754505Y-118505427D01*
X142721115Y-118546115D01*
X142680427Y-118579505D01*
X142634001Y-118604320D01*
X142583634Y-118619599D01*
X142528796Y-118625000D01*
X141896204Y-118625000D01*
X141841366Y-118619599D01*
X141790999Y-118604320D01*
X141744573Y-118579505D01*
X141703885Y-118546115D01*
X141670495Y-118505427D01*
X141645680Y-118459001D01*
X141630401Y-118408634D01*
X141625000Y-118353796D01*
X141625000Y-117646204D01*
X141630401Y-117591366D01*
X141645680Y-117540999D01*
X141670495Y-117494573D01*
X141703885Y-117453885D01*
X141744573Y-117420495D01*
X141790999Y-117395680D01*
X141841366Y-117380401D01*
X141896204Y-117375000D01*
X142528796Y-117375000D01*
X142583634Y-117380401D01*
X142583634Y-117380401D01*
G37*
G36*
X153658634Y-117380401D02*
G01*
X153709001Y-117395680D01*
X153755427Y-117420495D01*
X153796115Y-117453885D01*
X153829505Y-117494573D01*
X153854320Y-117540999D01*
X153869599Y-117591366D01*
X153875000Y-117646204D01*
X153875000Y-118353796D01*
X153869599Y-118408634D01*
X153854320Y-118459001D01*
X153829505Y-118505427D01*
X153796115Y-118546115D01*
X153755427Y-118579505D01*
X153709001Y-118604320D01*
X153658634Y-118619599D01*
X153603796Y-118625000D01*
X152971204Y-118625000D01*
X152916366Y-118619599D01*
X152865999Y-118604320D01*
X152819573Y-118579505D01*
X152778885Y-118546115D01*
X152745495Y-118505427D01*
X152720680Y-118459001D01*
X152705401Y-118408634D01*
X152700000Y-118353796D01*
X152700000Y-117646204D01*
X152705401Y-117591366D01*
X152720680Y-117540999D01*
X152745495Y-117494573D01*
X152778885Y-117453885D01*
X152819573Y-117420495D01*
X152865999Y-117395680D01*
X152916366Y-117380401D01*
X152971204Y-117375000D01*
X153603796Y-117375000D01*
X153658634Y-117380401D01*
X153658634Y-117380401D01*
G37*
G36*
X144158634Y-117380401D02*
G01*
X144209001Y-117395680D01*
X144255427Y-117420495D01*
X144296115Y-117453885D01*
X144329505Y-117494573D01*
X144354320Y-117540999D01*
X144369599Y-117591366D01*
X144375000Y-117646204D01*
X144375000Y-118353796D01*
X144369599Y-118408634D01*
X144354320Y-118459001D01*
X144329505Y-118505427D01*
X144296115Y-118546115D01*
X144255427Y-118579505D01*
X144209001Y-118604320D01*
X144158634Y-118619599D01*
X144103796Y-118625000D01*
X143471204Y-118625000D01*
X143416366Y-118619599D01*
X143365999Y-118604320D01*
X143319573Y-118579505D01*
X143278885Y-118546115D01*
X143245495Y-118505427D01*
X143220680Y-118459001D01*
X143205401Y-118408634D01*
X143200000Y-118353796D01*
X143200000Y-117646204D01*
X143205401Y-117591366D01*
X143220680Y-117540999D01*
X143245495Y-117494573D01*
X143278885Y-117453885D01*
X143319573Y-117420495D01*
X143365999Y-117395680D01*
X143416366Y-117380401D01*
X143471204Y-117375000D01*
X144103796Y-117375000D01*
X144158634Y-117380401D01*
X144158634Y-117380401D01*
G37*
G36*
X152083634Y-117380401D02*
G01*
X152134001Y-117395680D01*
X152180427Y-117420495D01*
X152221115Y-117453885D01*
X152254505Y-117494573D01*
X152279320Y-117540999D01*
X152294599Y-117591366D01*
X152300000Y-117646204D01*
X152300000Y-118353796D01*
X152294599Y-118408634D01*
X152279320Y-118459001D01*
X152254505Y-118505427D01*
X152221115Y-118546115D01*
X152180427Y-118579505D01*
X152134001Y-118604320D01*
X152083634Y-118619599D01*
X152028796Y-118625000D01*
X151396204Y-118625000D01*
X151341366Y-118619599D01*
X151290999Y-118604320D01*
X151244573Y-118579505D01*
X151203885Y-118546115D01*
X151170495Y-118505427D01*
X151145680Y-118459001D01*
X151130401Y-118408634D01*
X151125000Y-118353796D01*
X151125000Y-117646204D01*
X151130401Y-117591366D01*
X151145680Y-117540999D01*
X151170495Y-117494573D01*
X151203885Y-117453885D01*
X151244573Y-117420495D01*
X151290999Y-117395680D01*
X151341366Y-117380401D01*
X151396204Y-117375000D01*
X152028796Y-117375000D01*
X152083634Y-117380401D01*
X152083634Y-117380401D01*
G37*
G36*
X167196034Y-116394469D02*
G01*
X167384536Y-116451651D01*
X167558256Y-116544506D01*
X167710528Y-116669472D01*
X167835494Y-116821744D01*
X167928349Y-116995464D01*
X167985531Y-117183966D01*
X168004838Y-117380000D01*
X167985531Y-117576034D01*
X167928349Y-117764536D01*
X167835494Y-117938256D01*
X167710528Y-118090528D01*
X167558256Y-118215494D01*
X167384536Y-118308349D01*
X167196034Y-118365531D01*
X167049124Y-118380000D01*
X166950876Y-118380000D01*
X166803966Y-118365531D01*
X166615464Y-118308349D01*
X166441744Y-118215494D01*
X166289472Y-118090528D01*
X166164506Y-117938256D01*
X166071651Y-117764536D01*
X166014469Y-117576034D01*
X165995162Y-117380000D01*
X166014469Y-117183966D01*
X166071651Y-116995464D01*
X166164506Y-116821744D01*
X166289472Y-116669472D01*
X166441744Y-116544506D01*
X166615464Y-116451651D01*
X166803966Y-116394469D01*
X166950876Y-116380000D01*
X167049124Y-116380000D01*
X167196034Y-116394469D01*
X167196034Y-116394469D01*
G37*
G36*
X169736034Y-116394469D02*
G01*
X169924536Y-116451651D01*
X170098256Y-116544506D01*
X170250528Y-116669472D01*
X170375494Y-116821744D01*
X170468349Y-116995464D01*
X170525531Y-117183966D01*
X170544838Y-117380000D01*
X170525531Y-117576034D01*
X170468349Y-117764536D01*
X170375494Y-117938256D01*
X170250528Y-118090528D01*
X170098256Y-118215494D01*
X169924536Y-118308349D01*
X169736034Y-118365531D01*
X169589124Y-118380000D01*
X169490876Y-118380000D01*
X169343966Y-118365531D01*
X169155464Y-118308349D01*
X168981744Y-118215494D01*
X168829472Y-118090528D01*
X168704506Y-117938256D01*
X168611651Y-117764536D01*
X168554469Y-117576034D01*
X168535162Y-117380000D01*
X168554469Y-117183966D01*
X168611651Y-116995464D01*
X168704506Y-116821744D01*
X168829472Y-116669472D01*
X168981744Y-116544506D01*
X169155464Y-116451651D01*
X169343966Y-116394469D01*
X169490876Y-116380000D01*
X169589124Y-116380000D01*
X169736034Y-116394469D01*
X169736034Y-116394469D01*
G37*
G36*
X144158634Y-115880401D02*
G01*
X144209001Y-115895680D01*
X144255427Y-115920495D01*
X144296115Y-115953885D01*
X144329505Y-115994573D01*
X144354320Y-116040999D01*
X144369599Y-116091366D01*
X144375000Y-116146204D01*
X144375000Y-116853796D01*
X144369599Y-116908634D01*
X144354320Y-116959001D01*
X144329505Y-117005427D01*
X144296115Y-117046115D01*
X144255427Y-117079505D01*
X144209001Y-117104320D01*
X144158634Y-117119599D01*
X144103796Y-117125000D01*
X143471204Y-117125000D01*
X143416366Y-117119599D01*
X143365999Y-117104320D01*
X143319573Y-117079505D01*
X143278885Y-117046115D01*
X143245495Y-117005427D01*
X143220680Y-116959001D01*
X143205401Y-116908634D01*
X143200000Y-116853796D01*
X143200000Y-116146204D01*
X143205401Y-116091366D01*
X143220680Y-116040999D01*
X143245495Y-115994573D01*
X143278885Y-115953885D01*
X143319573Y-115920495D01*
X143365999Y-115895680D01*
X143416366Y-115880401D01*
X143471204Y-115875000D01*
X144103796Y-115875000D01*
X144158634Y-115880401D01*
X144158634Y-115880401D01*
G37*
G36*
X152083634Y-115880401D02*
G01*
X152134001Y-115895680D01*
X152180427Y-115920495D01*
X152221115Y-115953885D01*
X152254505Y-115994573D01*
X152279320Y-116040999D01*
X152294599Y-116091366D01*
X152300000Y-116146204D01*
X152300000Y-116853796D01*
X152294599Y-116908634D01*
X152279320Y-116959001D01*
X152254505Y-117005427D01*
X152221115Y-117046115D01*
X152180427Y-117079505D01*
X152134001Y-117104320D01*
X152083634Y-117119599D01*
X152028796Y-117125000D01*
X151396204Y-117125000D01*
X151341366Y-117119599D01*
X151290999Y-117104320D01*
X151244573Y-117079505D01*
X151203885Y-117046115D01*
X151170495Y-117005427D01*
X151145680Y-116959001D01*
X151130401Y-116908634D01*
X151125000Y-116853796D01*
X151125000Y-116146204D01*
X151130401Y-116091366D01*
X151145680Y-116040999D01*
X151170495Y-115994573D01*
X151203885Y-115953885D01*
X151244573Y-115920495D01*
X151290999Y-115895680D01*
X151341366Y-115880401D01*
X151396204Y-115875000D01*
X152028796Y-115875000D01*
X152083634Y-115880401D01*
X152083634Y-115880401D01*
G37*
G36*
X142583634Y-115880401D02*
G01*
X142634001Y-115895680D01*
X142680427Y-115920495D01*
X142721115Y-115953885D01*
X142754505Y-115994573D01*
X142779320Y-116040999D01*
X142794599Y-116091366D01*
X142800000Y-116146204D01*
X142800000Y-116853796D01*
X142794599Y-116908634D01*
X142779320Y-116959001D01*
X142754505Y-117005427D01*
X142721115Y-117046115D01*
X142680427Y-117079505D01*
X142634001Y-117104320D01*
X142583634Y-117119599D01*
X142528796Y-117125000D01*
X141896204Y-117125000D01*
X141841366Y-117119599D01*
X141790999Y-117104320D01*
X141744573Y-117079505D01*
X141703885Y-117046115D01*
X141670495Y-117005427D01*
X141645680Y-116959001D01*
X141630401Y-116908634D01*
X141625000Y-116853796D01*
X141625000Y-116146204D01*
X141630401Y-116091366D01*
X141645680Y-116040999D01*
X141670495Y-115994573D01*
X141703885Y-115953885D01*
X141744573Y-115920495D01*
X141790999Y-115895680D01*
X141841366Y-115880401D01*
X141896204Y-115875000D01*
X142528796Y-115875000D01*
X142583634Y-115880401D01*
X142583634Y-115880401D01*
G37*
G36*
X153658634Y-115880401D02*
G01*
X153709001Y-115895680D01*
X153755427Y-115920495D01*
X153796115Y-115953885D01*
X153829505Y-115994573D01*
X153854320Y-116040999D01*
X153869599Y-116091366D01*
X153875000Y-116146204D01*
X153875000Y-116853796D01*
X153869599Y-116908634D01*
X153854320Y-116959001D01*
X153829505Y-117005427D01*
X153796115Y-117046115D01*
X153755427Y-117079505D01*
X153709001Y-117104320D01*
X153658634Y-117119599D01*
X153603796Y-117125000D01*
X152971204Y-117125000D01*
X152916366Y-117119599D01*
X152865999Y-117104320D01*
X152819573Y-117079505D01*
X152778885Y-117046115D01*
X152745495Y-117005427D01*
X152720680Y-116959001D01*
X152705401Y-116908634D01*
X152700000Y-116853796D01*
X152700000Y-116146204D01*
X152705401Y-116091366D01*
X152720680Y-116040999D01*
X152745495Y-115994573D01*
X152778885Y-115953885D01*
X152819573Y-115920495D01*
X152865999Y-115895680D01*
X152916366Y-115880401D01*
X152971204Y-115875000D01*
X153603796Y-115875000D01*
X153658634Y-115880401D01*
X153658634Y-115880401D01*
G37*
G36*
X167196034Y-113854469D02*
G01*
X167384536Y-113911651D01*
X167558256Y-114004506D01*
X167710528Y-114129472D01*
X167835494Y-114281744D01*
X167928349Y-114455464D01*
X167985531Y-114643966D01*
X168004838Y-114840000D01*
X167985531Y-115036034D01*
X167928349Y-115224536D01*
X167835494Y-115398256D01*
X167710528Y-115550528D01*
X167558256Y-115675494D01*
X167384536Y-115768349D01*
X167196034Y-115825531D01*
X167049124Y-115840000D01*
X166950876Y-115840000D01*
X166803966Y-115825531D01*
X166615464Y-115768349D01*
X166441744Y-115675494D01*
X166289472Y-115550528D01*
X166164506Y-115398256D01*
X166071651Y-115224536D01*
X166014469Y-115036034D01*
X165995162Y-114840000D01*
X166014469Y-114643966D01*
X166071651Y-114455464D01*
X166164506Y-114281744D01*
X166289472Y-114129472D01*
X166441744Y-114004506D01*
X166615464Y-113911651D01*
X166803966Y-113854469D01*
X166950876Y-113840000D01*
X167049124Y-113840000D01*
X167196034Y-113854469D01*
X167196034Y-113854469D01*
G37*
G36*
X169736034Y-113854469D02*
G01*
X169924536Y-113911651D01*
X170098256Y-114004506D01*
X170250528Y-114129472D01*
X170375494Y-114281744D01*
X170468349Y-114455464D01*
X170525531Y-114643966D01*
X170544838Y-114840000D01*
X170525531Y-115036034D01*
X170468349Y-115224536D01*
X170375494Y-115398256D01*
X170250528Y-115550528D01*
X170098256Y-115675494D01*
X169924536Y-115768349D01*
X169736034Y-115825531D01*
X169589124Y-115840000D01*
X169490876Y-115840000D01*
X169343966Y-115825531D01*
X169155464Y-115768349D01*
X168981744Y-115675494D01*
X168829472Y-115550528D01*
X168704506Y-115398256D01*
X168611651Y-115224536D01*
X168554469Y-115036034D01*
X168535162Y-114840000D01*
X168554469Y-114643966D01*
X168611651Y-114455464D01*
X168704506Y-114281744D01*
X168829472Y-114129472D01*
X168981744Y-114004506D01*
X169155464Y-113911651D01*
X169343966Y-113854469D01*
X169490876Y-113840000D01*
X169589124Y-113840000D01*
X169736034Y-113854469D01*
X169736034Y-113854469D01*
G37*
G36*
X167196034Y-111314469D02*
G01*
X167384536Y-111371651D01*
X167558256Y-111464506D01*
X167710528Y-111589472D01*
X167835494Y-111741744D01*
X167928349Y-111915464D01*
X167985531Y-112103966D01*
X168004838Y-112300000D01*
X167985531Y-112496034D01*
X167928349Y-112684536D01*
X167835494Y-112858256D01*
X167710528Y-113010528D01*
X167558256Y-113135494D01*
X167384536Y-113228349D01*
X167196034Y-113285531D01*
X167049124Y-113300000D01*
X166950876Y-113300000D01*
X166803966Y-113285531D01*
X166615464Y-113228349D01*
X166441744Y-113135494D01*
X166289472Y-113010528D01*
X166164506Y-112858256D01*
X166071651Y-112684536D01*
X166014469Y-112496034D01*
X165995162Y-112300000D01*
X166014469Y-112103966D01*
X166071651Y-111915464D01*
X166164506Y-111741744D01*
X166289472Y-111589472D01*
X166441744Y-111464506D01*
X166615464Y-111371651D01*
X166803966Y-111314469D01*
X166950876Y-111300000D01*
X167049124Y-111300000D01*
X167196034Y-111314469D01*
X167196034Y-111314469D01*
G37*
G36*
X169736034Y-111314469D02*
G01*
X169924536Y-111371651D01*
X170098256Y-111464506D01*
X170250528Y-111589472D01*
X170375494Y-111741744D01*
X170468349Y-111915464D01*
X170525531Y-112103966D01*
X170544838Y-112300000D01*
X170525531Y-112496034D01*
X170468349Y-112684536D01*
X170375494Y-112858256D01*
X170250528Y-113010528D01*
X170098256Y-113135494D01*
X169924536Y-113228349D01*
X169736034Y-113285531D01*
X169589124Y-113300000D01*
X169490876Y-113300000D01*
X169343966Y-113285531D01*
X169155464Y-113228349D01*
X168981744Y-113135494D01*
X168829472Y-113010528D01*
X168704506Y-112858256D01*
X168611651Y-112684536D01*
X168554469Y-112496034D01*
X168535162Y-112300000D01*
X168554469Y-112103966D01*
X168611651Y-111915464D01*
X168704506Y-111741744D01*
X168829472Y-111589472D01*
X168981744Y-111464506D01*
X169155464Y-111371651D01*
X169343966Y-111314469D01*
X169490876Y-111300000D01*
X169589124Y-111300000D01*
X169736034Y-111314469D01*
X169736034Y-111314469D01*
G37*
G36*
X115276034Y-108534469D02*
G01*
X115464536Y-108591651D01*
X115638256Y-108684506D01*
X115790528Y-108809472D01*
X115915494Y-108961744D01*
X116008349Y-109135464D01*
X116065531Y-109323966D01*
X116084838Y-109520000D01*
X116065531Y-109716034D01*
X116008349Y-109904536D01*
X115915494Y-110078256D01*
X115790528Y-110230528D01*
X115638256Y-110355494D01*
X115464536Y-110448349D01*
X115276034Y-110505531D01*
X115129124Y-110520000D01*
X115030876Y-110520000D01*
X114883966Y-110505531D01*
X114695464Y-110448349D01*
X114521744Y-110355494D01*
X114369472Y-110230528D01*
X114244506Y-110078256D01*
X114151651Y-109904536D01*
X114094469Y-109716034D01*
X114075162Y-109520000D01*
X114094469Y-109323966D01*
X114151651Y-109135464D01*
X114244506Y-108961744D01*
X114369472Y-108809472D01*
X114521744Y-108684506D01*
X114695464Y-108591651D01*
X114883966Y-108534469D01*
X115030876Y-108520000D01*
X115129124Y-108520000D01*
X115276034Y-108534469D01*
X115276034Y-108534469D01*
G37*
G36*
X163536034Y-108534469D02*
G01*
X163724536Y-108591651D01*
X163898256Y-108684506D01*
X164050528Y-108809472D01*
X164175494Y-108961744D01*
X164268349Y-109135464D01*
X164325531Y-109323966D01*
X164344838Y-109520000D01*
X164325531Y-109716034D01*
X164268349Y-109904536D01*
X164175494Y-110078256D01*
X164050528Y-110230528D01*
X163898256Y-110355494D01*
X163724536Y-110448349D01*
X163536034Y-110505531D01*
X163389124Y-110520000D01*
X163290876Y-110520000D01*
X163143966Y-110505531D01*
X162955464Y-110448349D01*
X162781744Y-110355494D01*
X162629472Y-110230528D01*
X162504506Y-110078256D01*
X162411651Y-109904536D01*
X162354469Y-109716034D01*
X162335162Y-109520000D01*
X162354469Y-109323966D01*
X162411651Y-109135464D01*
X162504506Y-108961744D01*
X162629472Y-108809472D01*
X162781744Y-108684506D01*
X162955464Y-108591651D01*
X163143966Y-108534469D01*
X163290876Y-108520000D01*
X163389124Y-108520000D01*
X163536034Y-108534469D01*
X163536034Y-108534469D01*
G37*
G36*
X149408634Y-108705401D02*
G01*
X149459001Y-108720680D01*
X149505427Y-108745495D01*
X149546115Y-108778885D01*
X149579505Y-108819573D01*
X149604320Y-108865999D01*
X149619599Y-108916366D01*
X149625000Y-108971204D01*
X149625000Y-109603796D01*
X149619599Y-109658634D01*
X149604320Y-109709001D01*
X149579505Y-109755427D01*
X149546115Y-109796115D01*
X149505427Y-109829505D01*
X149459001Y-109854320D01*
X149408634Y-109869599D01*
X149353796Y-109875000D01*
X148646204Y-109875000D01*
X148591366Y-109869599D01*
X148540999Y-109854320D01*
X148494573Y-109829505D01*
X148453885Y-109796115D01*
X148420495Y-109755427D01*
X148395680Y-109709001D01*
X148380401Y-109658634D01*
X148375000Y-109603796D01*
X148375000Y-108971204D01*
X148380401Y-108916366D01*
X148395680Y-108865999D01*
X148420495Y-108819573D01*
X148453885Y-108778885D01*
X148494573Y-108745495D01*
X148540999Y-108720680D01*
X148591366Y-108705401D01*
X148646204Y-108700000D01*
X149353796Y-108700000D01*
X149408634Y-108705401D01*
X149408634Y-108705401D01*
G37*
G36*
X149408634Y-107130401D02*
G01*
X149459001Y-107145680D01*
X149505427Y-107170495D01*
X149546115Y-107203885D01*
X149579505Y-107244573D01*
X149604320Y-107290999D01*
X149619599Y-107341366D01*
X149625000Y-107396204D01*
X149625000Y-108028796D01*
X149619599Y-108083634D01*
X149604320Y-108134001D01*
X149579505Y-108180427D01*
X149546115Y-108221115D01*
X149505427Y-108254505D01*
X149459001Y-108279320D01*
X149408634Y-108294599D01*
X149353796Y-108300000D01*
X148646204Y-108300000D01*
X148591366Y-108294599D01*
X148540999Y-108279320D01*
X148494573Y-108254505D01*
X148453885Y-108221115D01*
X148420495Y-108180427D01*
X148395680Y-108134001D01*
X148380401Y-108083634D01*
X148375000Y-108028796D01*
X148375000Y-107396204D01*
X148380401Y-107341366D01*
X148395680Y-107290999D01*
X148420495Y-107244573D01*
X148453885Y-107203885D01*
X148494573Y-107170495D01*
X148540999Y-107145680D01*
X148591366Y-107130401D01*
X148646204Y-107125000D01*
X149353796Y-107125000D01*
X149408634Y-107130401D01*
X149408634Y-107130401D01*
G37*
G36*
X115276034Y-105994469D02*
G01*
X115464536Y-106051651D01*
X115638256Y-106144506D01*
X115790528Y-106269472D01*
X115915494Y-106421744D01*
X116008349Y-106595464D01*
X116065531Y-106783966D01*
X116084838Y-106980000D01*
X116065531Y-107176034D01*
X116008349Y-107364536D01*
X115915494Y-107538256D01*
X115790528Y-107690528D01*
X115638256Y-107815494D01*
X115464536Y-107908349D01*
X115276034Y-107965531D01*
X115129124Y-107980000D01*
X115030876Y-107980000D01*
X114883966Y-107965531D01*
X114695464Y-107908349D01*
X114521744Y-107815494D01*
X114369472Y-107690528D01*
X114244506Y-107538256D01*
X114151651Y-107364536D01*
X114094469Y-107176034D01*
X114075162Y-106980000D01*
X114094469Y-106783966D01*
X114151651Y-106595464D01*
X114244506Y-106421744D01*
X114369472Y-106269472D01*
X114521744Y-106144506D01*
X114695464Y-106051651D01*
X114883966Y-105994469D01*
X115030876Y-105980000D01*
X115129124Y-105980000D01*
X115276034Y-105994469D01*
X115276034Y-105994469D01*
G37*
G36*
X163536034Y-105994469D02*
G01*
X163724536Y-106051651D01*
X163898256Y-106144506D01*
X164050528Y-106269472D01*
X164175494Y-106421744D01*
X164268349Y-106595464D01*
X164325531Y-106783966D01*
X164344838Y-106980000D01*
X164325531Y-107176034D01*
X164268349Y-107364536D01*
X164175494Y-107538256D01*
X164050528Y-107690528D01*
X163898256Y-107815494D01*
X163724536Y-107908349D01*
X163536034Y-107965531D01*
X163389124Y-107980000D01*
X163290876Y-107980000D01*
X163143966Y-107965531D01*
X162955464Y-107908349D01*
X162781744Y-107815494D01*
X162629472Y-107690528D01*
X162504506Y-107538256D01*
X162411651Y-107364536D01*
X162354469Y-107176034D01*
X162335162Y-106980000D01*
X162354469Y-106783966D01*
X162411651Y-106595464D01*
X162504506Y-106421744D01*
X162629472Y-106269472D01*
X162781744Y-106144506D01*
X162955464Y-106051651D01*
X163143966Y-105994469D01*
X163290876Y-105980000D01*
X163389124Y-105980000D01*
X163536034Y-105994469D01*
X163536034Y-105994469D01*
G37*
G36*
X143158634Y-106130401D02*
G01*
X143209001Y-106145680D01*
X143255427Y-106170495D01*
X143296115Y-106203885D01*
X143329505Y-106244573D01*
X143354320Y-106290999D01*
X143369599Y-106341366D01*
X143375000Y-106396204D01*
X143375000Y-107103796D01*
X143369599Y-107158634D01*
X143354320Y-107209001D01*
X143329505Y-107255427D01*
X143296115Y-107296115D01*
X143255427Y-107329505D01*
X143209001Y-107354320D01*
X143158634Y-107369599D01*
X143103796Y-107375000D01*
X142471204Y-107375000D01*
X142416366Y-107369599D01*
X142365999Y-107354320D01*
X142319573Y-107329505D01*
X142278885Y-107296115D01*
X142245495Y-107255427D01*
X142220680Y-107209001D01*
X142205401Y-107158634D01*
X142200000Y-107103796D01*
X142200000Y-106396204D01*
X142205401Y-106341366D01*
X142220680Y-106290999D01*
X142245495Y-106244573D01*
X142278885Y-106203885D01*
X142319573Y-106170495D01*
X142365999Y-106145680D01*
X142416366Y-106130401D01*
X142471204Y-106125000D01*
X143103796Y-106125000D01*
X143158634Y-106130401D01*
X143158634Y-106130401D01*
G37*
G36*
X141583634Y-106130401D02*
G01*
X141634001Y-106145680D01*
X141680427Y-106170495D01*
X141721115Y-106203885D01*
X141754505Y-106244573D01*
X141779320Y-106290999D01*
X141794599Y-106341366D01*
X141800000Y-106396204D01*
X141800000Y-107103796D01*
X141794599Y-107158634D01*
X141779320Y-107209001D01*
X141754505Y-107255427D01*
X141721115Y-107296115D01*
X141680427Y-107329505D01*
X141634001Y-107354320D01*
X141583634Y-107369599D01*
X141528796Y-107375000D01*
X140896204Y-107375000D01*
X140841366Y-107369599D01*
X140790999Y-107354320D01*
X140744573Y-107329505D01*
X140703885Y-107296115D01*
X140670495Y-107255427D01*
X140645680Y-107209001D01*
X140630401Y-107158634D01*
X140625000Y-107103796D01*
X140625000Y-106396204D01*
X140630401Y-106341366D01*
X140645680Y-106290999D01*
X140670495Y-106244573D01*
X140703885Y-106203885D01*
X140744573Y-106170495D01*
X140790999Y-106145680D01*
X140841366Y-106130401D01*
X140896204Y-106125000D01*
X141528796Y-106125000D01*
X141583634Y-106130401D01*
X141583634Y-106130401D01*
G37*
G36*
X137908634Y-105205401D02*
G01*
X137959001Y-105220680D01*
X138005427Y-105245495D01*
X138046115Y-105278885D01*
X138079505Y-105319573D01*
X138104320Y-105365999D01*
X138119599Y-105416366D01*
X138125000Y-105471204D01*
X138125000Y-106103796D01*
X138119599Y-106158634D01*
X138104320Y-106209001D01*
X138079505Y-106255427D01*
X138046115Y-106296115D01*
X138005427Y-106329505D01*
X137959001Y-106354320D01*
X137908634Y-106369599D01*
X137853796Y-106375000D01*
X137146204Y-106375000D01*
X137091366Y-106369599D01*
X137040999Y-106354320D01*
X136994573Y-106329505D01*
X136953885Y-106296115D01*
X136920495Y-106255427D01*
X136895680Y-106209001D01*
X136880401Y-106158634D01*
X136875000Y-106103796D01*
X136875000Y-105471204D01*
X136880401Y-105416366D01*
X136895680Y-105365999D01*
X136920495Y-105319573D01*
X136953885Y-105278885D01*
X136994573Y-105245495D01*
X137040999Y-105220680D01*
X137091366Y-105205401D01*
X137146204Y-105200000D01*
X137853796Y-105200000D01*
X137908634Y-105205401D01*
X137908634Y-105205401D01*
G37*
G36*
X152658634Y-104955401D02*
G01*
X152709001Y-104970680D01*
X152755427Y-104995495D01*
X152796115Y-105028885D01*
X152829505Y-105069573D01*
X152854320Y-105115999D01*
X152869599Y-105166366D01*
X152875000Y-105221204D01*
X152875000Y-105853796D01*
X152869599Y-105908634D01*
X152854320Y-105959001D01*
X152829505Y-106005427D01*
X152796115Y-106046115D01*
X152755427Y-106079505D01*
X152709001Y-106104320D01*
X152658634Y-106119599D01*
X152603796Y-106125000D01*
X151896204Y-106125000D01*
X151841366Y-106119599D01*
X151790999Y-106104320D01*
X151744573Y-106079505D01*
X151703885Y-106046115D01*
X151670495Y-106005427D01*
X151645680Y-105959001D01*
X151630401Y-105908634D01*
X151625000Y-105853796D01*
X151625000Y-105221204D01*
X151630401Y-105166366D01*
X151645680Y-105115999D01*
X151670495Y-105069573D01*
X151703885Y-105028885D01*
X151744573Y-104995495D01*
X151790999Y-104970680D01*
X151841366Y-104955401D01*
X151896204Y-104950000D01*
X152603796Y-104950000D01*
X152658634Y-104955401D01*
X152658634Y-104955401D01*
G37*
G36*
X135158634Y-104955401D02*
G01*
X135209001Y-104970680D01*
X135255427Y-104995495D01*
X135296115Y-105028885D01*
X135329505Y-105069573D01*
X135354320Y-105115999D01*
X135369599Y-105166366D01*
X135375000Y-105221204D01*
X135375000Y-105853796D01*
X135369599Y-105908634D01*
X135354320Y-105959001D01*
X135329505Y-106005427D01*
X135296115Y-106046115D01*
X135255427Y-106079505D01*
X135209001Y-106104320D01*
X135158634Y-106119599D01*
X135103796Y-106125000D01*
X134396204Y-106125000D01*
X134341366Y-106119599D01*
X134290999Y-106104320D01*
X134244573Y-106079505D01*
X134203885Y-106046115D01*
X134170495Y-106005427D01*
X134145680Y-105959001D01*
X134130401Y-105908634D01*
X134125000Y-105853796D01*
X134125000Y-105221204D01*
X134130401Y-105166366D01*
X134145680Y-105115999D01*
X134170495Y-105069573D01*
X134203885Y-105028885D01*
X134244573Y-104995495D01*
X134290999Y-104970680D01*
X134341366Y-104955401D01*
X134396204Y-104950000D01*
X135103796Y-104950000D01*
X135158634Y-104955401D01*
X135158634Y-104955401D01*
G37*
G36*
X146658634Y-104380401D02*
G01*
X146709001Y-104395680D01*
X146755427Y-104420495D01*
X146796115Y-104453885D01*
X146829505Y-104494573D01*
X146854320Y-104540999D01*
X146869599Y-104591366D01*
X146875000Y-104646204D01*
X146875000Y-105353796D01*
X146869599Y-105408634D01*
X146854320Y-105459001D01*
X146829505Y-105505427D01*
X146796115Y-105546115D01*
X146755427Y-105579505D01*
X146709001Y-105604320D01*
X146658634Y-105619599D01*
X146603796Y-105625000D01*
X145971204Y-105625000D01*
X145916366Y-105619599D01*
X145865999Y-105604320D01*
X145819573Y-105579505D01*
X145778885Y-105546115D01*
X145745495Y-105505427D01*
X145720680Y-105459001D01*
X145705401Y-105408634D01*
X145700000Y-105353796D01*
X145700000Y-104646204D01*
X145705401Y-104591366D01*
X145720680Y-104540999D01*
X145745495Y-104494573D01*
X145778885Y-104453885D01*
X145819573Y-104420495D01*
X145865999Y-104395680D01*
X145916366Y-104380401D01*
X145971204Y-104375000D01*
X146603796Y-104375000D01*
X146658634Y-104380401D01*
X146658634Y-104380401D01*
G37*
G36*
X145083634Y-104380401D02*
G01*
X145134001Y-104395680D01*
X145180427Y-104420495D01*
X145221115Y-104453885D01*
X145254505Y-104494573D01*
X145279320Y-104540999D01*
X145294599Y-104591366D01*
X145300000Y-104646204D01*
X145300000Y-105353796D01*
X145294599Y-105408634D01*
X145279320Y-105459001D01*
X145254505Y-105505427D01*
X145221115Y-105546115D01*
X145180427Y-105579505D01*
X145134001Y-105604320D01*
X145083634Y-105619599D01*
X145028796Y-105625000D01*
X144396204Y-105625000D01*
X144341366Y-105619599D01*
X144290999Y-105604320D01*
X144244573Y-105579505D01*
X144203885Y-105546115D01*
X144170495Y-105505427D01*
X144145680Y-105459001D01*
X144130401Y-105408634D01*
X144125000Y-105353796D01*
X144125000Y-104646204D01*
X144130401Y-104591366D01*
X144145680Y-104540999D01*
X144170495Y-104494573D01*
X144203885Y-104453885D01*
X144244573Y-104420495D01*
X144290999Y-104395680D01*
X144341366Y-104380401D01*
X144396204Y-104375000D01*
X145028796Y-104375000D01*
X145083634Y-104380401D01*
X145083634Y-104380401D01*
G37*
G36*
X143658634Y-104455401D02*
G01*
X143709001Y-104470680D01*
X143755427Y-104495495D01*
X143796115Y-104528885D01*
X143829505Y-104569573D01*
X143854320Y-104615999D01*
X143869599Y-104666366D01*
X143875000Y-104721204D01*
X143875000Y-105353796D01*
X143869599Y-105408634D01*
X143854320Y-105459001D01*
X143829505Y-105505427D01*
X143796115Y-105546115D01*
X143755427Y-105579505D01*
X143709001Y-105604320D01*
X143658634Y-105619599D01*
X143603796Y-105625000D01*
X142896204Y-105625000D01*
X142841366Y-105619599D01*
X142790999Y-105604320D01*
X142744573Y-105579505D01*
X142703885Y-105546115D01*
X142670495Y-105505427D01*
X142645680Y-105459001D01*
X142630401Y-105408634D01*
X142625000Y-105353796D01*
X142625000Y-104721204D01*
X142630401Y-104666366D01*
X142645680Y-104615999D01*
X142670495Y-104569573D01*
X142703885Y-104528885D01*
X142744573Y-104495495D01*
X142790999Y-104470680D01*
X142841366Y-104455401D01*
X142896204Y-104450000D01*
X143603796Y-104450000D01*
X143658634Y-104455401D01*
X143658634Y-104455401D01*
G37*
G36*
X103658634Y-104455401D02*
G01*
X103709001Y-104470680D01*
X103755427Y-104495495D01*
X103796115Y-104528885D01*
X103829505Y-104569573D01*
X103854320Y-104615999D01*
X103869599Y-104666366D01*
X103875000Y-104721204D01*
X103875000Y-105353796D01*
X103869599Y-105408634D01*
X103854320Y-105459001D01*
X103829505Y-105505427D01*
X103796115Y-105546115D01*
X103755427Y-105579505D01*
X103709001Y-105604320D01*
X103658634Y-105619599D01*
X103603796Y-105625000D01*
X102896204Y-105625000D01*
X102841366Y-105619599D01*
X102790999Y-105604320D01*
X102744573Y-105579505D01*
X102703885Y-105546115D01*
X102670495Y-105505427D01*
X102645680Y-105459001D01*
X102630401Y-105408634D01*
X102625000Y-105353796D01*
X102625000Y-104721204D01*
X102630401Y-104666366D01*
X102645680Y-104615999D01*
X102670495Y-104569573D01*
X102703885Y-104528885D01*
X102744573Y-104495495D01*
X102790999Y-104470680D01*
X102841366Y-104455401D01*
X102896204Y-104450000D01*
X103603796Y-104450000D01*
X103658634Y-104455401D01*
X103658634Y-104455401D01*
G37*
G36*
X163536034Y-103454469D02*
G01*
X163724536Y-103511651D01*
X163898256Y-103604506D01*
X164050528Y-103729472D01*
X164175494Y-103881744D01*
X164268349Y-104055464D01*
X164325531Y-104243966D01*
X164344838Y-104440000D01*
X164325531Y-104636034D01*
X164268349Y-104824536D01*
X164175494Y-104998256D01*
X164050528Y-105150528D01*
X163898256Y-105275494D01*
X163724536Y-105368349D01*
X163536034Y-105425531D01*
X163389124Y-105440000D01*
X163290876Y-105440000D01*
X163143966Y-105425531D01*
X162955464Y-105368349D01*
X162781744Y-105275494D01*
X162629472Y-105150528D01*
X162504506Y-104998256D01*
X162411651Y-104824536D01*
X162354469Y-104636034D01*
X162335162Y-104440000D01*
X162354469Y-104243966D01*
X162411651Y-104055464D01*
X162504506Y-103881744D01*
X162629472Y-103729472D01*
X162781744Y-103604506D01*
X162955464Y-103511651D01*
X163143966Y-103454469D01*
X163290876Y-103440000D01*
X163389124Y-103440000D01*
X163536034Y-103454469D01*
X163536034Y-103454469D01*
G37*
G36*
X115276034Y-103454469D02*
G01*
X115464536Y-103511651D01*
X115638256Y-103604506D01*
X115790528Y-103729472D01*
X115915494Y-103881744D01*
X116008349Y-104055464D01*
X116065531Y-104243966D01*
X116084838Y-104440000D01*
X116065531Y-104636034D01*
X116008349Y-104824536D01*
X115915494Y-104998256D01*
X115790528Y-105150528D01*
X115638256Y-105275494D01*
X115464536Y-105368349D01*
X115276034Y-105425531D01*
X115129124Y-105440000D01*
X115030876Y-105440000D01*
X114883966Y-105425531D01*
X114695464Y-105368349D01*
X114521744Y-105275494D01*
X114369472Y-105150528D01*
X114244506Y-104998256D01*
X114151651Y-104824536D01*
X114094469Y-104636034D01*
X114075162Y-104440000D01*
X114094469Y-104243966D01*
X114151651Y-104055464D01*
X114244506Y-103881744D01*
X114369472Y-103729472D01*
X114521744Y-103604506D01*
X114695464Y-103511651D01*
X114883966Y-103454469D01*
X115030876Y-103440000D01*
X115129124Y-103440000D01*
X115276034Y-103454469D01*
X115276034Y-103454469D01*
G37*
G36*
X137908634Y-103630401D02*
G01*
X137959001Y-103645680D01*
X138005427Y-103670495D01*
X138046115Y-103703885D01*
X138079505Y-103744573D01*
X138104320Y-103790999D01*
X138119599Y-103841366D01*
X138125000Y-103896204D01*
X138125000Y-104528796D01*
X138119599Y-104583634D01*
X138104320Y-104634001D01*
X138079505Y-104680427D01*
X138046115Y-104721115D01*
X138005427Y-104754505D01*
X137959001Y-104779320D01*
X137908634Y-104794599D01*
X137853796Y-104800000D01*
X137146204Y-104800000D01*
X137091366Y-104794599D01*
X137040999Y-104779320D01*
X136994573Y-104754505D01*
X136953885Y-104721115D01*
X136920495Y-104680427D01*
X136895680Y-104634001D01*
X136880401Y-104583634D01*
X136875000Y-104528796D01*
X136875000Y-103896204D01*
X136880401Y-103841366D01*
X136895680Y-103790999D01*
X136920495Y-103744573D01*
X136953885Y-103703885D01*
X136994573Y-103670495D01*
X137040999Y-103645680D01*
X137091366Y-103630401D01*
X137146204Y-103625000D01*
X137853796Y-103625000D01*
X137908634Y-103630401D01*
X137908634Y-103630401D01*
G37*
G36*
X135158634Y-103380401D02*
G01*
X135209001Y-103395680D01*
X135255427Y-103420495D01*
X135296115Y-103453885D01*
X135329505Y-103494573D01*
X135354320Y-103540999D01*
X135369599Y-103591366D01*
X135375000Y-103646204D01*
X135375000Y-104278796D01*
X135369599Y-104333634D01*
X135354320Y-104384001D01*
X135329505Y-104430427D01*
X135296115Y-104471115D01*
X135255427Y-104504505D01*
X135209001Y-104529320D01*
X135158634Y-104544599D01*
X135103796Y-104550000D01*
X134396204Y-104550000D01*
X134341366Y-104544599D01*
X134290999Y-104529320D01*
X134244573Y-104504505D01*
X134203885Y-104471115D01*
X134170495Y-104430427D01*
X134145680Y-104384001D01*
X134130401Y-104333634D01*
X134125000Y-104278796D01*
X134125000Y-103646204D01*
X134130401Y-103591366D01*
X134145680Y-103540999D01*
X134170495Y-103494573D01*
X134203885Y-103453885D01*
X134244573Y-103420495D01*
X134290999Y-103395680D01*
X134341366Y-103380401D01*
X134396204Y-103375000D01*
X135103796Y-103375000D01*
X135158634Y-103380401D01*
X135158634Y-103380401D01*
G37*
G36*
X152658634Y-103380401D02*
G01*
X152709001Y-103395680D01*
X152755427Y-103420495D01*
X152796115Y-103453885D01*
X152829505Y-103494573D01*
X152854320Y-103540999D01*
X152869599Y-103591366D01*
X152875000Y-103646204D01*
X152875000Y-104278796D01*
X152869599Y-104333634D01*
X152854320Y-104384001D01*
X152829505Y-104430427D01*
X152796115Y-104471115D01*
X152755427Y-104504505D01*
X152709001Y-104529320D01*
X152658634Y-104544599D01*
X152603796Y-104550000D01*
X151896204Y-104550000D01*
X151841366Y-104544599D01*
X151790999Y-104529320D01*
X151744573Y-104504505D01*
X151703885Y-104471115D01*
X151670495Y-104430427D01*
X151645680Y-104384001D01*
X151630401Y-104333634D01*
X151625000Y-104278796D01*
X151625000Y-103646204D01*
X151630401Y-103591366D01*
X151645680Y-103540999D01*
X151670495Y-103494573D01*
X151703885Y-103453885D01*
X151744573Y-103420495D01*
X151790999Y-103395680D01*
X151841366Y-103380401D01*
X151896204Y-103375000D01*
X152603796Y-103375000D01*
X152658634Y-103380401D01*
X152658634Y-103380401D01*
G37*
G36*
X146658634Y-102880401D02*
G01*
X146709001Y-102895680D01*
X146755427Y-102920495D01*
X146796115Y-102953885D01*
X146829505Y-102994573D01*
X146854320Y-103040999D01*
X146869599Y-103091366D01*
X146875000Y-103146204D01*
X146875000Y-103853796D01*
X146869599Y-103908634D01*
X146854320Y-103959001D01*
X146829505Y-104005427D01*
X146796115Y-104046115D01*
X146755427Y-104079505D01*
X146709001Y-104104320D01*
X146658634Y-104119599D01*
X146603796Y-104125000D01*
X145971204Y-104125000D01*
X145916366Y-104119599D01*
X145865999Y-104104320D01*
X145819573Y-104079505D01*
X145778885Y-104046115D01*
X145745495Y-104005427D01*
X145720680Y-103959001D01*
X145705401Y-103908634D01*
X145700000Y-103853796D01*
X145700000Y-103146204D01*
X145705401Y-103091366D01*
X145720680Y-103040999D01*
X145745495Y-102994573D01*
X145778885Y-102953885D01*
X145819573Y-102920495D01*
X145865999Y-102895680D01*
X145916366Y-102880401D01*
X145971204Y-102875000D01*
X146603796Y-102875000D01*
X146658634Y-102880401D01*
X146658634Y-102880401D01*
G37*
G36*
X145083634Y-102880401D02*
G01*
X145134001Y-102895680D01*
X145180427Y-102920495D01*
X145221115Y-102953885D01*
X145254505Y-102994573D01*
X145279320Y-103040999D01*
X145294599Y-103091366D01*
X145300000Y-103146204D01*
X145300000Y-103853796D01*
X145294599Y-103908634D01*
X145279320Y-103959001D01*
X145254505Y-104005427D01*
X145221115Y-104046115D01*
X145180427Y-104079505D01*
X145134001Y-104104320D01*
X145083634Y-104119599D01*
X145028796Y-104125000D01*
X144396204Y-104125000D01*
X144341366Y-104119599D01*
X144290999Y-104104320D01*
X144244573Y-104079505D01*
X144203885Y-104046115D01*
X144170495Y-104005427D01*
X144145680Y-103959001D01*
X144130401Y-103908634D01*
X144125000Y-103853796D01*
X144125000Y-103146204D01*
X144130401Y-103091366D01*
X144145680Y-103040999D01*
X144170495Y-102994573D01*
X144203885Y-102953885D01*
X144244573Y-102920495D01*
X144290999Y-102895680D01*
X144341366Y-102880401D01*
X144396204Y-102875000D01*
X145028796Y-102875000D01*
X145083634Y-102880401D01*
X145083634Y-102880401D01*
G37*
G36*
X143658634Y-102880401D02*
G01*
X143709001Y-102895680D01*
X143755427Y-102920495D01*
X143796115Y-102953885D01*
X143829505Y-102994573D01*
X143854320Y-103040999D01*
X143869599Y-103091366D01*
X143875000Y-103146204D01*
X143875000Y-103778796D01*
X143869599Y-103833634D01*
X143854320Y-103884001D01*
X143829505Y-103930427D01*
X143796115Y-103971115D01*
X143755427Y-104004505D01*
X143709001Y-104029320D01*
X143658634Y-104044599D01*
X143603796Y-104050000D01*
X142896204Y-104050000D01*
X142841366Y-104044599D01*
X142790999Y-104029320D01*
X142744573Y-104004505D01*
X142703885Y-103971115D01*
X142670495Y-103930427D01*
X142645680Y-103884001D01*
X142630401Y-103833634D01*
X142625000Y-103778796D01*
X142625000Y-103146204D01*
X142630401Y-103091366D01*
X142645680Y-103040999D01*
X142670495Y-102994573D01*
X142703885Y-102953885D01*
X142744573Y-102920495D01*
X142790999Y-102895680D01*
X142841366Y-102880401D01*
X142896204Y-102875000D01*
X143603796Y-102875000D01*
X143658634Y-102880401D01*
X143658634Y-102880401D01*
G37*
G36*
X103658634Y-102880401D02*
G01*
X103709001Y-102895680D01*
X103755427Y-102920495D01*
X103796115Y-102953885D01*
X103829505Y-102994573D01*
X103854320Y-103040999D01*
X103869599Y-103091366D01*
X103875000Y-103146204D01*
X103875000Y-103778796D01*
X103869599Y-103833634D01*
X103854320Y-103884001D01*
X103829505Y-103930427D01*
X103796115Y-103971115D01*
X103755427Y-104004505D01*
X103709001Y-104029320D01*
X103658634Y-104044599D01*
X103603796Y-104050000D01*
X102896204Y-104050000D01*
X102841366Y-104044599D01*
X102790999Y-104029320D01*
X102744573Y-104004505D01*
X102703885Y-103971115D01*
X102670495Y-103930427D01*
X102645680Y-103884001D01*
X102630401Y-103833634D01*
X102625000Y-103778796D01*
X102625000Y-103146204D01*
X102630401Y-103091366D01*
X102645680Y-103040999D01*
X102670495Y-102994573D01*
X102703885Y-102953885D01*
X102744573Y-102920495D01*
X102790999Y-102895680D01*
X102841366Y-102880401D01*
X102896204Y-102875000D01*
X103603796Y-102875000D01*
X103658634Y-102880401D01*
X103658634Y-102880401D01*
G37*
G36*
X137908634Y-102205401D02*
G01*
X137959001Y-102220680D01*
X138005427Y-102245495D01*
X138046115Y-102278885D01*
X138079505Y-102319573D01*
X138104320Y-102365999D01*
X138119599Y-102416366D01*
X138125000Y-102471204D01*
X138125000Y-103103796D01*
X138119599Y-103158634D01*
X138104320Y-103209001D01*
X138079505Y-103255427D01*
X138046115Y-103296115D01*
X138005427Y-103329505D01*
X137959001Y-103354320D01*
X137908634Y-103369599D01*
X137853796Y-103375000D01*
X137146204Y-103375000D01*
X137091366Y-103369599D01*
X137040999Y-103354320D01*
X136994573Y-103329505D01*
X136953885Y-103296115D01*
X136920495Y-103255427D01*
X136895680Y-103209001D01*
X136880401Y-103158634D01*
X136875000Y-103103796D01*
X136875000Y-102471204D01*
X136880401Y-102416366D01*
X136895680Y-102365999D01*
X136920495Y-102319573D01*
X136953885Y-102278885D01*
X136994573Y-102245495D01*
X137040999Y-102220680D01*
X137091366Y-102205401D01*
X137146204Y-102200000D01*
X137853796Y-102200000D01*
X137908634Y-102205401D01*
X137908634Y-102205401D01*
G37*
G36*
X115276034Y-100914469D02*
G01*
X115464536Y-100971651D01*
X115638256Y-101064506D01*
X115790528Y-101189472D01*
X115915494Y-101341744D01*
X116008349Y-101515464D01*
X116065531Y-101703966D01*
X116084838Y-101900000D01*
X116065531Y-102096034D01*
X116008349Y-102284536D01*
X115915494Y-102458256D01*
X115790528Y-102610528D01*
X115638256Y-102735494D01*
X115464536Y-102828349D01*
X115276034Y-102885531D01*
X115129124Y-102900000D01*
X115030876Y-102900000D01*
X114883966Y-102885531D01*
X114695464Y-102828349D01*
X114521744Y-102735494D01*
X114369472Y-102610528D01*
X114244506Y-102458256D01*
X114151651Y-102284536D01*
X114094469Y-102096034D01*
X114075162Y-101900000D01*
X114094469Y-101703966D01*
X114151651Y-101515464D01*
X114244506Y-101341744D01*
X114369472Y-101189472D01*
X114521744Y-101064506D01*
X114695464Y-100971651D01*
X114883966Y-100914469D01*
X115030876Y-100900000D01*
X115129124Y-100900000D01*
X115276034Y-100914469D01*
X115276034Y-100914469D01*
G37*
G36*
X163536034Y-100914469D02*
G01*
X163724536Y-100971651D01*
X163898256Y-101064506D01*
X164050528Y-101189472D01*
X164175494Y-101341744D01*
X164268349Y-101515464D01*
X164325531Y-101703966D01*
X164344838Y-101900000D01*
X164325531Y-102096034D01*
X164268349Y-102284536D01*
X164175494Y-102458256D01*
X164050528Y-102610528D01*
X163898256Y-102735494D01*
X163724536Y-102828349D01*
X163536034Y-102885531D01*
X163389124Y-102900000D01*
X163290876Y-102900000D01*
X163143966Y-102885531D01*
X162955464Y-102828349D01*
X162781744Y-102735494D01*
X162629472Y-102610528D01*
X162504506Y-102458256D01*
X162411651Y-102284536D01*
X162354469Y-102096034D01*
X162335162Y-101900000D01*
X162354469Y-101703966D01*
X162411651Y-101515464D01*
X162504506Y-101341744D01*
X162629472Y-101189472D01*
X162781744Y-101064506D01*
X162955464Y-100971651D01*
X163143966Y-100914469D01*
X163290876Y-100900000D01*
X163389124Y-100900000D01*
X163536034Y-100914469D01*
X163536034Y-100914469D01*
G37*
G36*
X137908634Y-100630401D02*
G01*
X137959001Y-100645680D01*
X138005427Y-100670495D01*
X138046115Y-100703885D01*
X138079505Y-100744573D01*
X138104320Y-100790999D01*
X138119599Y-100841366D01*
X138125000Y-100896204D01*
X138125000Y-101528796D01*
X138119599Y-101583634D01*
X138104320Y-101634001D01*
X138079505Y-101680427D01*
X138046115Y-101721115D01*
X138005427Y-101754505D01*
X137959001Y-101779320D01*
X137908634Y-101794599D01*
X137853796Y-101800000D01*
X137146204Y-101800000D01*
X137091366Y-101794599D01*
X137040999Y-101779320D01*
X136994573Y-101754505D01*
X136953885Y-101721115D01*
X136920495Y-101680427D01*
X136895680Y-101634001D01*
X136880401Y-101583634D01*
X136875000Y-101528796D01*
X136875000Y-100896204D01*
X136880401Y-100841366D01*
X136895680Y-100790999D01*
X136920495Y-100744573D01*
X136953885Y-100703885D01*
X136994573Y-100670495D01*
X137040999Y-100645680D01*
X137091366Y-100630401D01*
X137146204Y-100625000D01*
X137853796Y-100625000D01*
X137908634Y-100630401D01*
X137908634Y-100630401D01*
G37*
G36*
X137908634Y-99205401D02*
G01*
X137959001Y-99220680D01*
X138005427Y-99245495D01*
X138046115Y-99278885D01*
X138079505Y-99319573D01*
X138104320Y-99365999D01*
X138119599Y-99416366D01*
X138125000Y-99471204D01*
X138125000Y-100103796D01*
X138119599Y-100158634D01*
X138104320Y-100209001D01*
X138079505Y-100255427D01*
X138046115Y-100296115D01*
X138005427Y-100329505D01*
X137959001Y-100354320D01*
X137908634Y-100369599D01*
X137853796Y-100375000D01*
X137146204Y-100375000D01*
X137091366Y-100369599D01*
X137040999Y-100354320D01*
X136994573Y-100329505D01*
X136953885Y-100296115D01*
X136920495Y-100255427D01*
X136895680Y-100209001D01*
X136880401Y-100158634D01*
X136875000Y-100103796D01*
X136875000Y-99471204D01*
X136880401Y-99416366D01*
X136895680Y-99365999D01*
X136920495Y-99319573D01*
X136953885Y-99278885D01*
X136994573Y-99245495D01*
X137040999Y-99220680D01*
X137091366Y-99205401D01*
X137146204Y-99200000D01*
X137853796Y-99200000D01*
X137908634Y-99205401D01*
X137908634Y-99205401D01*
G37*
G36*
X103658634Y-99205401D02*
G01*
X103709001Y-99220680D01*
X103755427Y-99245495D01*
X103796115Y-99278885D01*
X103829505Y-99319573D01*
X103854320Y-99365999D01*
X103869599Y-99416366D01*
X103875000Y-99471204D01*
X103875000Y-100103796D01*
X103869599Y-100158634D01*
X103854320Y-100209001D01*
X103829505Y-100255427D01*
X103796115Y-100296115D01*
X103755427Y-100329505D01*
X103709001Y-100354320D01*
X103658634Y-100369599D01*
X103603796Y-100375000D01*
X102896204Y-100375000D01*
X102841366Y-100369599D01*
X102790999Y-100354320D01*
X102744573Y-100329505D01*
X102703885Y-100296115D01*
X102670495Y-100255427D01*
X102645680Y-100209001D01*
X102630401Y-100158634D01*
X102625000Y-100103796D01*
X102625000Y-99471204D01*
X102630401Y-99416366D01*
X102645680Y-99365999D01*
X102670495Y-99319573D01*
X102703885Y-99278885D01*
X102744573Y-99245495D01*
X102790999Y-99220680D01*
X102841366Y-99205401D01*
X102896204Y-99200000D01*
X103603796Y-99200000D01*
X103658634Y-99205401D01*
X103658634Y-99205401D01*
G37*
G36*
X115276034Y-98374469D02*
G01*
X115464536Y-98431651D01*
X115638256Y-98524506D01*
X115790528Y-98649472D01*
X115915494Y-98801744D01*
X116008349Y-98975464D01*
X116065531Y-99163966D01*
X116084838Y-99360000D01*
X116065531Y-99556034D01*
X116008349Y-99744536D01*
X115915494Y-99918256D01*
X115790528Y-100070528D01*
X115638256Y-100195494D01*
X115464536Y-100288349D01*
X115276034Y-100345531D01*
X115129124Y-100360000D01*
X115030876Y-100360000D01*
X114883966Y-100345531D01*
X114695464Y-100288349D01*
X114521744Y-100195494D01*
X114369472Y-100070528D01*
X114244506Y-99918256D01*
X114151651Y-99744536D01*
X114094469Y-99556034D01*
X114075162Y-99360000D01*
X114094469Y-99163966D01*
X114151651Y-98975464D01*
X114244506Y-98801744D01*
X114369472Y-98649472D01*
X114521744Y-98524506D01*
X114695464Y-98431651D01*
X114883966Y-98374469D01*
X115030876Y-98360000D01*
X115129124Y-98360000D01*
X115276034Y-98374469D01*
X115276034Y-98374469D01*
G37*
G36*
X163536034Y-98374469D02*
G01*
X163724536Y-98431651D01*
X163898256Y-98524506D01*
X164050528Y-98649472D01*
X164175494Y-98801744D01*
X164268349Y-98975464D01*
X164325531Y-99163966D01*
X164344838Y-99360000D01*
X164325531Y-99556034D01*
X164268349Y-99744536D01*
X164175494Y-99918256D01*
X164050528Y-100070528D01*
X163898256Y-100195494D01*
X163724536Y-100288349D01*
X163536034Y-100345531D01*
X163389124Y-100360000D01*
X163290876Y-100360000D01*
X163143966Y-100345531D01*
X162955464Y-100288349D01*
X162781744Y-100195494D01*
X162629472Y-100070528D01*
X162504506Y-99918256D01*
X162411651Y-99744536D01*
X162354469Y-99556034D01*
X162335162Y-99360000D01*
X162354469Y-99163966D01*
X162411651Y-98975464D01*
X162504506Y-98801744D01*
X162629472Y-98649472D01*
X162781744Y-98524506D01*
X162955464Y-98431651D01*
X163143966Y-98374469D01*
X163290876Y-98360000D01*
X163389124Y-98360000D01*
X163536034Y-98374469D01*
X163536034Y-98374469D01*
G37*
G36*
X153408634Y-98205401D02*
G01*
X153459001Y-98220680D01*
X153505427Y-98245495D01*
X153546115Y-98278885D01*
X153579505Y-98319573D01*
X153604320Y-98365999D01*
X153619599Y-98416366D01*
X153625000Y-98471204D01*
X153625000Y-99103796D01*
X153619599Y-99158634D01*
X153604320Y-99209001D01*
X153579505Y-99255427D01*
X153546115Y-99296115D01*
X153505427Y-99329505D01*
X153459001Y-99354320D01*
X153408634Y-99369599D01*
X153353796Y-99375000D01*
X152646204Y-99375000D01*
X152591366Y-99369599D01*
X152540999Y-99354320D01*
X152494573Y-99329505D01*
X152453885Y-99296115D01*
X152420495Y-99255427D01*
X152395680Y-99209001D01*
X152380401Y-99158634D01*
X152375000Y-99103796D01*
X152375000Y-98471204D01*
X152380401Y-98416366D01*
X152395680Y-98365999D01*
X152420495Y-98319573D01*
X152453885Y-98278885D01*
X152494573Y-98245495D01*
X152540999Y-98220680D01*
X152591366Y-98205401D01*
X152646204Y-98200000D01*
X153353796Y-98200000D01*
X153408634Y-98205401D01*
X153408634Y-98205401D01*
G37*
G36*
X122158634Y-97705401D02*
G01*
X122209001Y-97720680D01*
X122255427Y-97745495D01*
X122296115Y-97778885D01*
X122329505Y-97819573D01*
X122354320Y-97865999D01*
X122369599Y-97916366D01*
X122375000Y-97971204D01*
X122375000Y-98603796D01*
X122369599Y-98658634D01*
X122354320Y-98709001D01*
X122329505Y-98755427D01*
X122296115Y-98796115D01*
X122255427Y-98829505D01*
X122209001Y-98854320D01*
X122158634Y-98869599D01*
X122103796Y-98875000D01*
X121396204Y-98875000D01*
X121341366Y-98869599D01*
X121290999Y-98854320D01*
X121244573Y-98829505D01*
X121203885Y-98796115D01*
X121170495Y-98755427D01*
X121145680Y-98709001D01*
X121130401Y-98658634D01*
X121125000Y-98603796D01*
X121125000Y-97971204D01*
X121130401Y-97916366D01*
X121145680Y-97865999D01*
X121170495Y-97819573D01*
X121203885Y-97778885D01*
X121244573Y-97745495D01*
X121290999Y-97720680D01*
X121341366Y-97705401D01*
X121396204Y-97700000D01*
X122103796Y-97700000D01*
X122158634Y-97705401D01*
X122158634Y-97705401D01*
G37*
G36*
X128658634Y-97705401D02*
G01*
X128709001Y-97720680D01*
X128755427Y-97745495D01*
X128796115Y-97778885D01*
X128829505Y-97819573D01*
X128854320Y-97865999D01*
X128869599Y-97916366D01*
X128875000Y-97971204D01*
X128875000Y-98603796D01*
X128869599Y-98658634D01*
X128854320Y-98709001D01*
X128829505Y-98755427D01*
X128796115Y-98796115D01*
X128755427Y-98829505D01*
X128709001Y-98854320D01*
X128658634Y-98869599D01*
X128603796Y-98875000D01*
X127896204Y-98875000D01*
X127841366Y-98869599D01*
X127790999Y-98854320D01*
X127744573Y-98829505D01*
X127703885Y-98796115D01*
X127670495Y-98755427D01*
X127645680Y-98709001D01*
X127630401Y-98658634D01*
X127625000Y-98603796D01*
X127625000Y-97971204D01*
X127630401Y-97916366D01*
X127645680Y-97865999D01*
X127670495Y-97819573D01*
X127703885Y-97778885D01*
X127744573Y-97745495D01*
X127790999Y-97720680D01*
X127841366Y-97705401D01*
X127896204Y-97700000D01*
X128603796Y-97700000D01*
X128658634Y-97705401D01*
X128658634Y-97705401D01*
G37*
G36*
X137908634Y-97630401D02*
G01*
X137959001Y-97645680D01*
X138005427Y-97670495D01*
X138046115Y-97703885D01*
X138079505Y-97744573D01*
X138104320Y-97790999D01*
X138119599Y-97841366D01*
X138125000Y-97896204D01*
X138125000Y-98528796D01*
X138119599Y-98583634D01*
X138104320Y-98634001D01*
X138079505Y-98680427D01*
X138046115Y-98721115D01*
X138005427Y-98754505D01*
X137959001Y-98779320D01*
X137908634Y-98794599D01*
X137853796Y-98800000D01*
X137146204Y-98800000D01*
X137091366Y-98794599D01*
X137040999Y-98779320D01*
X136994573Y-98754505D01*
X136953885Y-98721115D01*
X136920495Y-98680427D01*
X136895680Y-98634001D01*
X136880401Y-98583634D01*
X136875000Y-98528796D01*
X136875000Y-97896204D01*
X136880401Y-97841366D01*
X136895680Y-97790999D01*
X136920495Y-97744573D01*
X136953885Y-97703885D01*
X136994573Y-97670495D01*
X137040999Y-97645680D01*
X137091366Y-97630401D01*
X137146204Y-97625000D01*
X137853796Y-97625000D01*
X137908634Y-97630401D01*
X137908634Y-97630401D01*
G37*
G36*
X103658634Y-97630401D02*
G01*
X103709001Y-97645680D01*
X103755427Y-97670495D01*
X103796115Y-97703885D01*
X103829505Y-97744573D01*
X103854320Y-97790999D01*
X103869599Y-97841366D01*
X103875000Y-97896204D01*
X103875000Y-98528796D01*
X103869599Y-98583634D01*
X103854320Y-98634001D01*
X103829505Y-98680427D01*
X103796115Y-98721115D01*
X103755427Y-98754505D01*
X103709001Y-98779320D01*
X103658634Y-98794599D01*
X103603796Y-98800000D01*
X102896204Y-98800000D01*
X102841366Y-98794599D01*
X102790999Y-98779320D01*
X102744573Y-98754505D01*
X102703885Y-98721115D01*
X102670495Y-98680427D01*
X102645680Y-98634001D01*
X102630401Y-98583634D01*
X102625000Y-98528796D01*
X102625000Y-97896204D01*
X102630401Y-97841366D01*
X102645680Y-97790999D01*
X102670495Y-97744573D01*
X102703885Y-97703885D01*
X102744573Y-97670495D01*
X102790999Y-97645680D01*
X102841366Y-97630401D01*
X102896204Y-97625000D01*
X103603796Y-97625000D01*
X103658634Y-97630401D01*
X103658634Y-97630401D01*
G37*
G36*
X146158634Y-97380401D02*
G01*
X146209001Y-97395680D01*
X146255427Y-97420495D01*
X146296115Y-97453885D01*
X146329505Y-97494573D01*
X146354320Y-97540999D01*
X146369599Y-97591366D01*
X146375000Y-97646204D01*
X146375000Y-98353796D01*
X146369599Y-98408634D01*
X146354320Y-98459001D01*
X146329505Y-98505427D01*
X146296115Y-98546115D01*
X146255427Y-98579505D01*
X146209001Y-98604320D01*
X146158634Y-98619599D01*
X146103796Y-98625000D01*
X145471204Y-98625000D01*
X145416366Y-98619599D01*
X145365999Y-98604320D01*
X145319573Y-98579505D01*
X145278885Y-98546115D01*
X145245495Y-98505427D01*
X145220680Y-98459001D01*
X145205401Y-98408634D01*
X145200000Y-98353796D01*
X145200000Y-97646204D01*
X145205401Y-97591366D01*
X145220680Y-97540999D01*
X145245495Y-97494573D01*
X145278885Y-97453885D01*
X145319573Y-97420495D01*
X145365999Y-97395680D01*
X145416366Y-97380401D01*
X145471204Y-97375000D01*
X146103796Y-97375000D01*
X146158634Y-97380401D01*
X146158634Y-97380401D01*
G37*
G36*
X144583634Y-97380401D02*
G01*
X144634001Y-97395680D01*
X144680427Y-97420495D01*
X144721115Y-97453885D01*
X144754505Y-97494573D01*
X144779320Y-97540999D01*
X144794599Y-97591366D01*
X144800000Y-97646204D01*
X144800000Y-98353796D01*
X144794599Y-98408634D01*
X144779320Y-98459001D01*
X144754505Y-98505427D01*
X144721115Y-98546115D01*
X144680427Y-98579505D01*
X144634001Y-98604320D01*
X144583634Y-98619599D01*
X144528796Y-98625000D01*
X143896204Y-98625000D01*
X143841366Y-98619599D01*
X143790999Y-98604320D01*
X143744573Y-98579505D01*
X143703885Y-98546115D01*
X143670495Y-98505427D01*
X143645680Y-98459001D01*
X143630401Y-98408634D01*
X143625000Y-98353796D01*
X143625000Y-97646204D01*
X143630401Y-97591366D01*
X143645680Y-97540999D01*
X143670495Y-97494573D01*
X143703885Y-97453885D01*
X143744573Y-97420495D01*
X143790999Y-97395680D01*
X143841366Y-97380401D01*
X143896204Y-97375000D01*
X144528796Y-97375000D01*
X144583634Y-97380401D01*
X144583634Y-97380401D01*
G37*
G36*
X163536034Y-95834469D02*
G01*
X163724536Y-95891651D01*
X163898256Y-95984506D01*
X164050528Y-96109472D01*
X164175494Y-96261744D01*
X164268349Y-96435464D01*
X164325531Y-96623966D01*
X164344838Y-96820000D01*
X164325531Y-97016034D01*
X164268349Y-97204536D01*
X164175494Y-97378256D01*
X164050528Y-97530528D01*
X163898256Y-97655494D01*
X163724536Y-97748349D01*
X163536034Y-97805531D01*
X163389124Y-97820000D01*
X163290876Y-97820000D01*
X163143966Y-97805531D01*
X162955464Y-97748349D01*
X162781744Y-97655494D01*
X162629472Y-97530528D01*
X162504506Y-97378256D01*
X162411651Y-97204536D01*
X162354469Y-97016034D01*
X162335162Y-96820000D01*
X162354469Y-96623966D01*
X162411651Y-96435464D01*
X162504506Y-96261744D01*
X162629472Y-96109472D01*
X162781744Y-95984506D01*
X162955464Y-95891651D01*
X163143966Y-95834469D01*
X163290876Y-95820000D01*
X163389124Y-95820000D01*
X163536034Y-95834469D01*
X163536034Y-95834469D01*
G37*
G36*
X116080000Y-97820000D02*
G01*
X114080000Y-97820000D01*
X114080000Y-95820000D01*
X116080000Y-95820000D01*
X116080000Y-97820000D01*
X116080000Y-97820000D01*
G37*
G36*
X153408634Y-96630401D02*
G01*
X153459001Y-96645680D01*
X153505427Y-96670495D01*
X153546115Y-96703885D01*
X153579505Y-96744573D01*
X153604320Y-96790999D01*
X153619599Y-96841366D01*
X153625000Y-96896204D01*
X153625000Y-97528796D01*
X153619599Y-97583634D01*
X153604320Y-97634001D01*
X153579505Y-97680427D01*
X153546115Y-97721115D01*
X153505427Y-97754505D01*
X153459001Y-97779320D01*
X153408634Y-97794599D01*
X153353796Y-97800000D01*
X152646204Y-97800000D01*
X152591366Y-97794599D01*
X152540999Y-97779320D01*
X152494573Y-97754505D01*
X152453885Y-97721115D01*
X152420495Y-97680427D01*
X152395680Y-97634001D01*
X152380401Y-97583634D01*
X152375000Y-97528796D01*
X152375000Y-96896204D01*
X152380401Y-96841366D01*
X152395680Y-96790999D01*
X152420495Y-96744573D01*
X152453885Y-96703885D01*
X152494573Y-96670495D01*
X152540999Y-96645680D01*
X152591366Y-96630401D01*
X152646204Y-96625000D01*
X153353796Y-96625000D01*
X153408634Y-96630401D01*
X153408634Y-96630401D01*
G37*
G36*
X103658634Y-96205401D02*
G01*
X103709001Y-96220680D01*
X103755427Y-96245495D01*
X103796115Y-96278885D01*
X103829505Y-96319573D01*
X103854320Y-96365999D01*
X103869599Y-96416366D01*
X103875000Y-96471204D01*
X103875000Y-97103796D01*
X103869599Y-97158634D01*
X103854320Y-97209001D01*
X103829505Y-97255427D01*
X103796115Y-97296115D01*
X103755427Y-97329505D01*
X103709001Y-97354320D01*
X103658634Y-97369599D01*
X103603796Y-97375000D01*
X102896204Y-97375000D01*
X102841366Y-97369599D01*
X102790999Y-97354320D01*
X102744573Y-97329505D01*
X102703885Y-97296115D01*
X102670495Y-97255427D01*
X102645680Y-97209001D01*
X102630401Y-97158634D01*
X102625000Y-97103796D01*
X102625000Y-96471204D01*
X102630401Y-96416366D01*
X102645680Y-96365999D01*
X102670495Y-96319573D01*
X102703885Y-96278885D01*
X102744573Y-96245495D01*
X102790999Y-96220680D01*
X102841366Y-96205401D01*
X102896204Y-96200000D01*
X103603796Y-96200000D01*
X103658634Y-96205401D01*
X103658634Y-96205401D01*
G37*
G36*
X137908634Y-96205401D02*
G01*
X137959001Y-96220680D01*
X138005427Y-96245495D01*
X138046115Y-96278885D01*
X138079505Y-96319573D01*
X138104320Y-96365999D01*
X138119599Y-96416366D01*
X138125000Y-96471204D01*
X138125000Y-97103796D01*
X138119599Y-97158634D01*
X138104320Y-97209001D01*
X138079505Y-97255427D01*
X138046115Y-97296115D01*
X138005427Y-97329505D01*
X137959001Y-97354320D01*
X137908634Y-97369599D01*
X137853796Y-97375000D01*
X137146204Y-97375000D01*
X137091366Y-97369599D01*
X137040999Y-97354320D01*
X136994573Y-97329505D01*
X136953885Y-97296115D01*
X136920495Y-97255427D01*
X136895680Y-97209001D01*
X136880401Y-97158634D01*
X136875000Y-97103796D01*
X136875000Y-96471204D01*
X136880401Y-96416366D01*
X136895680Y-96365999D01*
X136920495Y-96319573D01*
X136953885Y-96278885D01*
X136994573Y-96245495D01*
X137040999Y-96220680D01*
X137091366Y-96205401D01*
X137146204Y-96200000D01*
X137853796Y-96200000D01*
X137908634Y-96205401D01*
X137908634Y-96205401D01*
G37*
G36*
X122158634Y-96130401D02*
G01*
X122209001Y-96145680D01*
X122255427Y-96170495D01*
X122296115Y-96203885D01*
X122329505Y-96244573D01*
X122354320Y-96290999D01*
X122369599Y-96341366D01*
X122375000Y-96396204D01*
X122375000Y-97028796D01*
X122369599Y-97083634D01*
X122354320Y-97134001D01*
X122329505Y-97180427D01*
X122296115Y-97221115D01*
X122255427Y-97254505D01*
X122209001Y-97279320D01*
X122158634Y-97294599D01*
X122103796Y-97300000D01*
X121396204Y-97300000D01*
X121341366Y-97294599D01*
X121290999Y-97279320D01*
X121244573Y-97254505D01*
X121203885Y-97221115D01*
X121170495Y-97180427D01*
X121145680Y-97134001D01*
X121130401Y-97083634D01*
X121125000Y-97028796D01*
X121125000Y-96396204D01*
X121130401Y-96341366D01*
X121145680Y-96290999D01*
X121170495Y-96244573D01*
X121203885Y-96203885D01*
X121244573Y-96170495D01*
X121290999Y-96145680D01*
X121341366Y-96130401D01*
X121396204Y-96125000D01*
X122103796Y-96125000D01*
X122158634Y-96130401D01*
X122158634Y-96130401D01*
G37*
G36*
X128658634Y-96130401D02*
G01*
X128709001Y-96145680D01*
X128755427Y-96170495D01*
X128796115Y-96203885D01*
X128829505Y-96244573D01*
X128854320Y-96290999D01*
X128869599Y-96341366D01*
X128875000Y-96396204D01*
X128875000Y-97028796D01*
X128869599Y-97083634D01*
X128854320Y-97134001D01*
X128829505Y-97180427D01*
X128796115Y-97221115D01*
X128755427Y-97254505D01*
X128709001Y-97279320D01*
X128658634Y-97294599D01*
X128603796Y-97300000D01*
X127896204Y-97300000D01*
X127841366Y-97294599D01*
X127790999Y-97279320D01*
X127744573Y-97254505D01*
X127703885Y-97221115D01*
X127670495Y-97180427D01*
X127645680Y-97134001D01*
X127630401Y-97083634D01*
X127625000Y-97028796D01*
X127625000Y-96396204D01*
X127630401Y-96341366D01*
X127645680Y-96290999D01*
X127670495Y-96244573D01*
X127703885Y-96203885D01*
X127744573Y-96170495D01*
X127790999Y-96145680D01*
X127841366Y-96130401D01*
X127896204Y-96125000D01*
X128603796Y-96125000D01*
X128658634Y-96130401D01*
X128658634Y-96130401D01*
G37*
G36*
X103658634Y-94630401D02*
G01*
X103709001Y-94645680D01*
X103755427Y-94670495D01*
X103796115Y-94703885D01*
X103829505Y-94744573D01*
X103854320Y-94790999D01*
X103869599Y-94841366D01*
X103875000Y-94896204D01*
X103875000Y-95528796D01*
X103869599Y-95583634D01*
X103854320Y-95634001D01*
X103829505Y-95680427D01*
X103796115Y-95721115D01*
X103755427Y-95754505D01*
X103709001Y-95779320D01*
X103658634Y-95794599D01*
X103603796Y-95800000D01*
X102896204Y-95800000D01*
X102841366Y-95794599D01*
X102790999Y-95779320D01*
X102744573Y-95754505D01*
X102703885Y-95721115D01*
X102670495Y-95680427D01*
X102645680Y-95634001D01*
X102630401Y-95583634D01*
X102625000Y-95528796D01*
X102625000Y-94896204D01*
X102630401Y-94841366D01*
X102645680Y-94790999D01*
X102670495Y-94744573D01*
X102703885Y-94703885D01*
X102744573Y-94670495D01*
X102790999Y-94645680D01*
X102841366Y-94630401D01*
X102896204Y-94625000D01*
X103603796Y-94625000D01*
X103658634Y-94630401D01*
X103658634Y-94630401D01*
G37*
G36*
X137908634Y-94630401D02*
G01*
X137959001Y-94645680D01*
X138005427Y-94670495D01*
X138046115Y-94703885D01*
X138079505Y-94744573D01*
X138104320Y-94790999D01*
X138119599Y-94841366D01*
X138125000Y-94896204D01*
X138125000Y-95528796D01*
X138119599Y-95583634D01*
X138104320Y-95634001D01*
X138079505Y-95680427D01*
X138046115Y-95721115D01*
X138005427Y-95754505D01*
X137959001Y-95779320D01*
X137908634Y-95794599D01*
X137853796Y-95800000D01*
X137146204Y-95800000D01*
X137091366Y-95794599D01*
X137040999Y-95779320D01*
X136994573Y-95754505D01*
X136953885Y-95721115D01*
X136920495Y-95680427D01*
X136895680Y-95634001D01*
X136880401Y-95583634D01*
X136875000Y-95528796D01*
X136875000Y-94896204D01*
X136880401Y-94841366D01*
X136895680Y-94790999D01*
X136920495Y-94744573D01*
X136953885Y-94703885D01*
X136994573Y-94670495D01*
X137040999Y-94645680D01*
X137091366Y-94630401D01*
X137146204Y-94625000D01*
X137853796Y-94625000D01*
X137908634Y-94630401D01*
X137908634Y-94630401D01*
G37*
G36*
X163536034Y-93294469D02*
G01*
X163724536Y-93351651D01*
X163898256Y-93444506D01*
X164050528Y-93569472D01*
X164175494Y-93721744D01*
X164268349Y-93895464D01*
X164325531Y-94083966D01*
X164344838Y-94280000D01*
X164325531Y-94476034D01*
X164268349Y-94664536D01*
X164175494Y-94838256D01*
X164050528Y-94990528D01*
X163898256Y-95115494D01*
X163724536Y-95208349D01*
X163536034Y-95265531D01*
X163389124Y-95280000D01*
X163290876Y-95280000D01*
X163143966Y-95265531D01*
X162955464Y-95208349D01*
X162781744Y-95115494D01*
X162629472Y-94990528D01*
X162504506Y-94838256D01*
X162411651Y-94664536D01*
X162354469Y-94476034D01*
X162335162Y-94280000D01*
X162354469Y-94083966D01*
X162411651Y-93895464D01*
X162504506Y-93721744D01*
X162629472Y-93569472D01*
X162781744Y-93444506D01*
X162955464Y-93351651D01*
X163143966Y-93294469D01*
X163290876Y-93280000D01*
X163389124Y-93280000D01*
X163536034Y-93294469D01*
X163536034Y-93294469D01*
G37*
G36*
X168000000Y-95000000D02*
G01*
X166000000Y-95000000D01*
X166000000Y-93000000D01*
X168000000Y-93000000D01*
X168000000Y-95000000D01*
X168000000Y-95000000D01*
G37*
G36*
X169736034Y-93014469D02*
G01*
X169924536Y-93071651D01*
X170098256Y-93164506D01*
X170250528Y-93289472D01*
X170375494Y-93441744D01*
X170468349Y-93615464D01*
X170525531Y-93803966D01*
X170544838Y-94000000D01*
X170525531Y-94196034D01*
X170468349Y-94384536D01*
X170375494Y-94558256D01*
X170250528Y-94710528D01*
X170098256Y-94835494D01*
X169924536Y-94928349D01*
X169736034Y-94985531D01*
X169589124Y-95000000D01*
X169490876Y-95000000D01*
X169343966Y-94985531D01*
X169155464Y-94928349D01*
X168981744Y-94835494D01*
X168829472Y-94710528D01*
X168704506Y-94558256D01*
X168611651Y-94384536D01*
X168554469Y-94196034D01*
X168535162Y-94000000D01*
X168554469Y-93803966D01*
X168611651Y-93615464D01*
X168704506Y-93441744D01*
X168829472Y-93289472D01*
X168981744Y-93164506D01*
X169155464Y-93071651D01*
X169343966Y-93014469D01*
X169490876Y-93000000D01*
X169589124Y-93000000D01*
X169736034Y-93014469D01*
X169736034Y-93014469D01*
G37*
G36*
X153908634Y-92630401D02*
G01*
X153959001Y-92645680D01*
X154005427Y-92670495D01*
X154046115Y-92703885D01*
X154079505Y-92744573D01*
X154104320Y-92790999D01*
X154119599Y-92841366D01*
X154125000Y-92896204D01*
X154125000Y-93603796D01*
X154119599Y-93658634D01*
X154104320Y-93709001D01*
X154079505Y-93755427D01*
X154046115Y-93796115D01*
X154005427Y-93829505D01*
X153959001Y-93854320D01*
X153908634Y-93869599D01*
X153853796Y-93875000D01*
X153221204Y-93875000D01*
X153166366Y-93869599D01*
X153115999Y-93854320D01*
X153069573Y-93829505D01*
X153028885Y-93796115D01*
X152995495Y-93755427D01*
X152970680Y-93709001D01*
X152955401Y-93658634D01*
X152950000Y-93603796D01*
X152950000Y-92896204D01*
X152955401Y-92841366D01*
X152970680Y-92790999D01*
X152995495Y-92744573D01*
X153028885Y-92703885D01*
X153069573Y-92670495D01*
X153115999Y-92645680D01*
X153166366Y-92630401D01*
X153221204Y-92625000D01*
X153853796Y-92625000D01*
X153908634Y-92630401D01*
X153908634Y-92630401D01*
G37*
G36*
X152333634Y-92630401D02*
G01*
X152384001Y-92645680D01*
X152430427Y-92670495D01*
X152471115Y-92703885D01*
X152504505Y-92744573D01*
X152529320Y-92790999D01*
X152544599Y-92841366D01*
X152550000Y-92896204D01*
X152550000Y-93603796D01*
X152544599Y-93658634D01*
X152529320Y-93709001D01*
X152504505Y-93755427D01*
X152471115Y-93796115D01*
X152430427Y-93829505D01*
X152384001Y-93854320D01*
X152333634Y-93869599D01*
X152278796Y-93875000D01*
X151646204Y-93875000D01*
X151591366Y-93869599D01*
X151540999Y-93854320D01*
X151494573Y-93829505D01*
X151453885Y-93796115D01*
X151420495Y-93755427D01*
X151395680Y-93709001D01*
X151380401Y-93658634D01*
X151375000Y-93603796D01*
X151375000Y-92896204D01*
X151380401Y-92841366D01*
X151395680Y-92790999D01*
X151420495Y-92744573D01*
X151453885Y-92703885D01*
X151494573Y-92670495D01*
X151540999Y-92645680D01*
X151591366Y-92630401D01*
X151646204Y-92625000D01*
X152278796Y-92625000D01*
X152333634Y-92630401D01*
X152333634Y-92630401D01*
G37*
G36*
X164340000Y-92740000D02*
G01*
X162340000Y-92740000D01*
X162340000Y-90740000D01*
X164340000Y-90740000D01*
X164340000Y-92740000D01*
X164340000Y-92740000D01*
G37*
G36*
X115276034Y-90754469D02*
G01*
X115464536Y-90811651D01*
X115638256Y-90904506D01*
X115790528Y-91029472D01*
X115915494Y-91181744D01*
X116008349Y-91355464D01*
X116065531Y-91543966D01*
X116084838Y-91740000D01*
X116065531Y-91936034D01*
X116008349Y-92124536D01*
X115915494Y-92298256D01*
X115790528Y-92450528D01*
X115638256Y-92575494D01*
X115464536Y-92668349D01*
X115276034Y-92725531D01*
X115129124Y-92740000D01*
X115030876Y-92740000D01*
X114883966Y-92725531D01*
X114695464Y-92668349D01*
X114521744Y-92575494D01*
X114369472Y-92450528D01*
X114244506Y-92298256D01*
X114151651Y-92124536D01*
X114094469Y-91936034D01*
X114075162Y-91740000D01*
X114094469Y-91543966D01*
X114151651Y-91355464D01*
X114244506Y-91181744D01*
X114369472Y-91029472D01*
X114521744Y-90904506D01*
X114695464Y-90811651D01*
X114883966Y-90754469D01*
X115030876Y-90740000D01*
X115129124Y-90740000D01*
X115276034Y-90754469D01*
X115276034Y-90754469D01*
G37*
G36*
X169736034Y-90474469D02*
G01*
X169924536Y-90531651D01*
X170098256Y-90624506D01*
X170250528Y-90749472D01*
X170375494Y-90901744D01*
X170468349Y-91075464D01*
X170525531Y-91263966D01*
X170544838Y-91460000D01*
X170525531Y-91656034D01*
X170468349Y-91844536D01*
X170375494Y-92018256D01*
X170250528Y-92170528D01*
X170098256Y-92295494D01*
X169924536Y-92388349D01*
X169736034Y-92445531D01*
X169589124Y-92460000D01*
X169490876Y-92460000D01*
X169343966Y-92445531D01*
X169155464Y-92388349D01*
X168981744Y-92295494D01*
X168829472Y-92170528D01*
X168704506Y-92018256D01*
X168611651Y-91844536D01*
X168554469Y-91656034D01*
X168535162Y-91460000D01*
X168554469Y-91263966D01*
X168611651Y-91075464D01*
X168704506Y-90901744D01*
X168829472Y-90749472D01*
X168981744Y-90624506D01*
X169155464Y-90531651D01*
X169343966Y-90474469D01*
X169490876Y-90460000D01*
X169589124Y-90460000D01*
X169736034Y-90474469D01*
X169736034Y-90474469D01*
G37*
G36*
X167196034Y-90474469D02*
G01*
X167384536Y-90531651D01*
X167558256Y-90624506D01*
X167710528Y-90749472D01*
X167835494Y-90901744D01*
X167928349Y-91075464D01*
X167985531Y-91263966D01*
X168004838Y-91460000D01*
X167985531Y-91656034D01*
X167928349Y-91844536D01*
X167835494Y-92018256D01*
X167710528Y-92170528D01*
X167558256Y-92295494D01*
X167384536Y-92388349D01*
X167196034Y-92445531D01*
X167049124Y-92460000D01*
X166950876Y-92460000D01*
X166803966Y-92445531D01*
X166615464Y-92388349D01*
X166441744Y-92295494D01*
X166289472Y-92170528D01*
X166164506Y-92018256D01*
X166071651Y-91844536D01*
X166014469Y-91656034D01*
X165995162Y-91460000D01*
X166014469Y-91263966D01*
X166071651Y-91075464D01*
X166164506Y-90901744D01*
X166289472Y-90749472D01*
X166441744Y-90624506D01*
X166615464Y-90531651D01*
X166803966Y-90474469D01*
X166950876Y-90460000D01*
X167049124Y-90460000D01*
X167196034Y-90474469D01*
X167196034Y-90474469D01*
G37*
G36*
X152333634Y-91130401D02*
G01*
X152384001Y-91145680D01*
X152430427Y-91170495D01*
X152471115Y-91203885D01*
X152504505Y-91244573D01*
X152529320Y-91290999D01*
X152544599Y-91341366D01*
X152550000Y-91396204D01*
X152550000Y-92103796D01*
X152544599Y-92158634D01*
X152529320Y-92209001D01*
X152504505Y-92255427D01*
X152471115Y-92296115D01*
X152430427Y-92329505D01*
X152384001Y-92354320D01*
X152333634Y-92369599D01*
X152278796Y-92375000D01*
X151646204Y-92375000D01*
X151591366Y-92369599D01*
X151540999Y-92354320D01*
X151494573Y-92329505D01*
X151453885Y-92296115D01*
X151420495Y-92255427D01*
X151395680Y-92209001D01*
X151380401Y-92158634D01*
X151375000Y-92103796D01*
X151375000Y-91396204D01*
X151380401Y-91341366D01*
X151395680Y-91290999D01*
X151420495Y-91244573D01*
X151453885Y-91203885D01*
X151494573Y-91170495D01*
X151540999Y-91145680D01*
X151591366Y-91130401D01*
X151646204Y-91125000D01*
X152278796Y-91125000D01*
X152333634Y-91130401D01*
X152333634Y-91130401D01*
G37*
G36*
X153908634Y-91130401D02*
G01*
X153959001Y-91145680D01*
X154005427Y-91170495D01*
X154046115Y-91203885D01*
X154079505Y-91244573D01*
X154104320Y-91290999D01*
X154119599Y-91341366D01*
X154125000Y-91396204D01*
X154125000Y-92103796D01*
X154119599Y-92158634D01*
X154104320Y-92209001D01*
X154079505Y-92255427D01*
X154046115Y-92296115D01*
X154005427Y-92329505D01*
X153959001Y-92354320D01*
X153908634Y-92369599D01*
X153853796Y-92375000D01*
X153221204Y-92375000D01*
X153166366Y-92369599D01*
X153115999Y-92354320D01*
X153069573Y-92329505D01*
X153028885Y-92296115D01*
X152995495Y-92255427D01*
X152970680Y-92209001D01*
X152955401Y-92158634D01*
X152950000Y-92103796D01*
X152950000Y-91396204D01*
X152955401Y-91341366D01*
X152970680Y-91290999D01*
X152995495Y-91244573D01*
X153028885Y-91203885D01*
X153069573Y-91170495D01*
X153115999Y-91145680D01*
X153166366Y-91130401D01*
X153221204Y-91125000D01*
X153853796Y-91125000D01*
X153908634Y-91130401D01*
X153908634Y-91130401D01*
G37*
G36*
X147158634Y-90630401D02*
G01*
X147209001Y-90645680D01*
X147255427Y-90670495D01*
X147296115Y-90703885D01*
X147329505Y-90744573D01*
X147354320Y-90790999D01*
X147369599Y-90841366D01*
X147375000Y-90896204D01*
X147375000Y-91603796D01*
X147369599Y-91658634D01*
X147354320Y-91709001D01*
X147329505Y-91755427D01*
X147296115Y-91796115D01*
X147255427Y-91829505D01*
X147209001Y-91854320D01*
X147158634Y-91869599D01*
X147103796Y-91875000D01*
X146471204Y-91875000D01*
X146416366Y-91869599D01*
X146365999Y-91854320D01*
X146319573Y-91829505D01*
X146278885Y-91796115D01*
X146245495Y-91755427D01*
X146220680Y-91709001D01*
X146205401Y-91658634D01*
X146200000Y-91603796D01*
X146200000Y-90896204D01*
X146205401Y-90841366D01*
X146220680Y-90790999D01*
X146245495Y-90744573D01*
X146278885Y-90703885D01*
X146319573Y-90670495D01*
X146365999Y-90645680D01*
X146416366Y-90630401D01*
X146471204Y-90625000D01*
X147103796Y-90625000D01*
X147158634Y-90630401D01*
X147158634Y-90630401D01*
G37*
G36*
X145583634Y-90630401D02*
G01*
X145634001Y-90645680D01*
X145680427Y-90670495D01*
X145721115Y-90703885D01*
X145754505Y-90744573D01*
X145779320Y-90790999D01*
X145794599Y-90841366D01*
X145800000Y-90896204D01*
X145800000Y-91603796D01*
X145794599Y-91658634D01*
X145779320Y-91709001D01*
X145754505Y-91755427D01*
X145721115Y-91796115D01*
X145680427Y-91829505D01*
X145634001Y-91854320D01*
X145583634Y-91869599D01*
X145528796Y-91875000D01*
X144896204Y-91875000D01*
X144841366Y-91869599D01*
X144790999Y-91854320D01*
X144744573Y-91829505D01*
X144703885Y-91796115D01*
X144670495Y-91755427D01*
X144645680Y-91709001D01*
X144630401Y-91658634D01*
X144625000Y-91603796D01*
X144625000Y-90896204D01*
X144630401Y-90841366D01*
X144645680Y-90790999D01*
X144670495Y-90744573D01*
X144703885Y-90703885D01*
X144744573Y-90670495D01*
X144790999Y-90645680D01*
X144841366Y-90630401D01*
X144896204Y-90625000D01*
X145528796Y-90625000D01*
X145583634Y-90630401D01*
X145583634Y-90630401D01*
G37*
G36*
X144158634Y-90705401D02*
G01*
X144209001Y-90720680D01*
X144255427Y-90745495D01*
X144296115Y-90778885D01*
X144329505Y-90819573D01*
X144354320Y-90865999D01*
X144369599Y-90916366D01*
X144375000Y-90971204D01*
X144375000Y-91603796D01*
X144369599Y-91658634D01*
X144354320Y-91709001D01*
X144329505Y-91755427D01*
X144296115Y-91796115D01*
X144255427Y-91829505D01*
X144209001Y-91854320D01*
X144158634Y-91869599D01*
X144103796Y-91875000D01*
X143396204Y-91875000D01*
X143341366Y-91869599D01*
X143290999Y-91854320D01*
X143244573Y-91829505D01*
X143203885Y-91796115D01*
X143170495Y-91755427D01*
X143145680Y-91709001D01*
X143130401Y-91658634D01*
X143125000Y-91603796D01*
X143125000Y-90971204D01*
X143130401Y-90916366D01*
X143145680Y-90865999D01*
X143170495Y-90819573D01*
X143203885Y-90778885D01*
X143244573Y-90745495D01*
X143290999Y-90720680D01*
X143341366Y-90705401D01*
X143396204Y-90700000D01*
X144103796Y-90700000D01*
X144158634Y-90705401D01*
X144158634Y-90705401D01*
G37*
G36*
X145583634Y-89130401D02*
G01*
X145634001Y-89145680D01*
X145680427Y-89170495D01*
X145721115Y-89203885D01*
X145754505Y-89244573D01*
X145779320Y-89290999D01*
X145794599Y-89341366D01*
X145800000Y-89396204D01*
X145800000Y-90103796D01*
X145794599Y-90158634D01*
X145779320Y-90209001D01*
X145754505Y-90255427D01*
X145721115Y-90296115D01*
X145680427Y-90329505D01*
X145634001Y-90354320D01*
X145583634Y-90369599D01*
X145528796Y-90375000D01*
X144896204Y-90375000D01*
X144841366Y-90369599D01*
X144790999Y-90354320D01*
X144744573Y-90329505D01*
X144703885Y-90296115D01*
X144670495Y-90255427D01*
X144645680Y-90209001D01*
X144630401Y-90158634D01*
X144625000Y-90103796D01*
X144625000Y-89396204D01*
X144630401Y-89341366D01*
X144645680Y-89290999D01*
X144670495Y-89244573D01*
X144703885Y-89203885D01*
X144744573Y-89170495D01*
X144790999Y-89145680D01*
X144841366Y-89130401D01*
X144896204Y-89125000D01*
X145528796Y-89125000D01*
X145583634Y-89130401D01*
X145583634Y-89130401D01*
G37*
G36*
X147158634Y-89130401D02*
G01*
X147209001Y-89145680D01*
X147255427Y-89170495D01*
X147296115Y-89203885D01*
X147329505Y-89244573D01*
X147354320Y-89290999D01*
X147369599Y-89341366D01*
X147375000Y-89396204D01*
X147375000Y-90103796D01*
X147369599Y-90158634D01*
X147354320Y-90209001D01*
X147329505Y-90255427D01*
X147296115Y-90296115D01*
X147255427Y-90329505D01*
X147209001Y-90354320D01*
X147158634Y-90369599D01*
X147103796Y-90375000D01*
X146471204Y-90375000D01*
X146416366Y-90369599D01*
X146365999Y-90354320D01*
X146319573Y-90329505D01*
X146278885Y-90296115D01*
X146245495Y-90255427D01*
X146220680Y-90209001D01*
X146205401Y-90158634D01*
X146200000Y-90103796D01*
X146200000Y-89396204D01*
X146205401Y-89341366D01*
X146220680Y-89290999D01*
X146245495Y-89244573D01*
X146278885Y-89203885D01*
X146319573Y-89170495D01*
X146365999Y-89145680D01*
X146416366Y-89130401D01*
X146471204Y-89125000D01*
X147103796Y-89125000D01*
X147158634Y-89130401D01*
X147158634Y-89130401D01*
G37*
G36*
X144158634Y-89130401D02*
G01*
X144209001Y-89145680D01*
X144255427Y-89170495D01*
X144296115Y-89203885D01*
X144329505Y-89244573D01*
X144354320Y-89290999D01*
X144369599Y-89341366D01*
X144375000Y-89396204D01*
X144375000Y-90028796D01*
X144369599Y-90083634D01*
X144354320Y-90134001D01*
X144329505Y-90180427D01*
X144296115Y-90221115D01*
X144255427Y-90254505D01*
X144209001Y-90279320D01*
X144158634Y-90294599D01*
X144103796Y-90300000D01*
X143396204Y-90300000D01*
X143341366Y-90294599D01*
X143290999Y-90279320D01*
X143244573Y-90254505D01*
X143203885Y-90221115D01*
X143170495Y-90180427D01*
X143145680Y-90134001D01*
X143130401Y-90083634D01*
X143125000Y-90028796D01*
X143125000Y-89396204D01*
X143130401Y-89341366D01*
X143145680Y-89290999D01*
X143170495Y-89244573D01*
X143203885Y-89203885D01*
X143244573Y-89170495D01*
X143290999Y-89145680D01*
X143341366Y-89130401D01*
X143396204Y-89125000D01*
X144103796Y-89125000D01*
X144158634Y-89130401D01*
X144158634Y-89130401D01*
G37*
G36*
X115276034Y-88214469D02*
G01*
X115464536Y-88271651D01*
X115638256Y-88364506D01*
X115790528Y-88489472D01*
X115915494Y-88641744D01*
X116008349Y-88815464D01*
X116065531Y-89003966D01*
X116084838Y-89200000D01*
X116065531Y-89396034D01*
X116008349Y-89584536D01*
X115915494Y-89758256D01*
X115790528Y-89910528D01*
X115638256Y-90035494D01*
X115464536Y-90128349D01*
X115276034Y-90185531D01*
X115129124Y-90200000D01*
X115030876Y-90200000D01*
X114883966Y-90185531D01*
X114695464Y-90128349D01*
X114521744Y-90035494D01*
X114369472Y-89910528D01*
X114244506Y-89758256D01*
X114151651Y-89584536D01*
X114094469Y-89396034D01*
X114075162Y-89200000D01*
X114094469Y-89003966D01*
X114151651Y-88815464D01*
X114244506Y-88641744D01*
X114369472Y-88489472D01*
X114521744Y-88364506D01*
X114695464Y-88271651D01*
X114883966Y-88214469D01*
X115030876Y-88200000D01*
X115129124Y-88200000D01*
X115276034Y-88214469D01*
X115276034Y-88214469D01*
G37*
G36*
X167196034Y-87934469D02*
G01*
X167384536Y-87991651D01*
X167558256Y-88084506D01*
X167710528Y-88209472D01*
X167835494Y-88361744D01*
X167928349Y-88535464D01*
X167985531Y-88723966D01*
X168004838Y-88920000D01*
X167985531Y-89116034D01*
X167928349Y-89304536D01*
X167835494Y-89478256D01*
X167710528Y-89630528D01*
X167558256Y-89755494D01*
X167384536Y-89848349D01*
X167196034Y-89905531D01*
X167049124Y-89920000D01*
X166950876Y-89920000D01*
X166803966Y-89905531D01*
X166615464Y-89848349D01*
X166441744Y-89755494D01*
X166289472Y-89630528D01*
X166164506Y-89478256D01*
X166071651Y-89304536D01*
X166014469Y-89116034D01*
X165995162Y-88920000D01*
X166014469Y-88723966D01*
X166071651Y-88535464D01*
X166164506Y-88361744D01*
X166289472Y-88209472D01*
X166441744Y-88084506D01*
X166615464Y-87991651D01*
X166803966Y-87934469D01*
X166950876Y-87920000D01*
X167049124Y-87920000D01*
X167196034Y-87934469D01*
X167196034Y-87934469D01*
G37*
G36*
X169736034Y-87934469D02*
G01*
X169924536Y-87991651D01*
X170098256Y-88084506D01*
X170250528Y-88209472D01*
X170375494Y-88361744D01*
X170468349Y-88535464D01*
X170525531Y-88723966D01*
X170544838Y-88920000D01*
X170525531Y-89116034D01*
X170468349Y-89304536D01*
X170375494Y-89478256D01*
X170250528Y-89630528D01*
X170098256Y-89755494D01*
X169924536Y-89848349D01*
X169736034Y-89905531D01*
X169589124Y-89920000D01*
X169490876Y-89920000D01*
X169343966Y-89905531D01*
X169155464Y-89848349D01*
X168981744Y-89755494D01*
X168829472Y-89630528D01*
X168704506Y-89478256D01*
X168611651Y-89304536D01*
X168554469Y-89116034D01*
X168535162Y-88920000D01*
X168554469Y-88723966D01*
X168611651Y-88535464D01*
X168704506Y-88361744D01*
X168829472Y-88209472D01*
X168981744Y-88084506D01*
X169155464Y-87991651D01*
X169343966Y-87934469D01*
X169490876Y-87920000D01*
X169589124Y-87920000D01*
X169736034Y-87934469D01*
X169736034Y-87934469D01*
G37*
G36*
X153158634Y-88630401D02*
G01*
X153209001Y-88645680D01*
X153255427Y-88670495D01*
X153296115Y-88703885D01*
X153329505Y-88744573D01*
X153354320Y-88790999D01*
X153369599Y-88841366D01*
X153375000Y-88896204D01*
X153375000Y-89603796D01*
X153369599Y-89658634D01*
X153354320Y-89709001D01*
X153329505Y-89755427D01*
X153296115Y-89796115D01*
X153255427Y-89829505D01*
X153209001Y-89854320D01*
X153158634Y-89869599D01*
X153103796Y-89875000D01*
X152471204Y-89875000D01*
X152416366Y-89869599D01*
X152365999Y-89854320D01*
X152319573Y-89829505D01*
X152278885Y-89796115D01*
X152245495Y-89755427D01*
X152220680Y-89709001D01*
X152205401Y-89658634D01*
X152200000Y-89603796D01*
X152200000Y-88896204D01*
X152205401Y-88841366D01*
X152220680Y-88790999D01*
X152245495Y-88744573D01*
X152278885Y-88703885D01*
X152319573Y-88670495D01*
X152365999Y-88645680D01*
X152416366Y-88630401D01*
X152471204Y-88625000D01*
X153103796Y-88625000D01*
X153158634Y-88630401D01*
X153158634Y-88630401D01*
G37*
G36*
X150158634Y-88630401D02*
G01*
X150209001Y-88645680D01*
X150255427Y-88670495D01*
X150296115Y-88703885D01*
X150329505Y-88744573D01*
X150354320Y-88790999D01*
X150369599Y-88841366D01*
X150375000Y-88896204D01*
X150375000Y-89603796D01*
X150369599Y-89658634D01*
X150354320Y-89709001D01*
X150329505Y-89755427D01*
X150296115Y-89796115D01*
X150255427Y-89829505D01*
X150209001Y-89854320D01*
X150158634Y-89869599D01*
X150103796Y-89875000D01*
X149471204Y-89875000D01*
X149416366Y-89869599D01*
X149365999Y-89854320D01*
X149319573Y-89829505D01*
X149278885Y-89796115D01*
X149245495Y-89755427D01*
X149220680Y-89709001D01*
X149205401Y-89658634D01*
X149200000Y-89603796D01*
X149200000Y-88896204D01*
X149205401Y-88841366D01*
X149220680Y-88790999D01*
X149245495Y-88744573D01*
X149278885Y-88703885D01*
X149319573Y-88670495D01*
X149365999Y-88645680D01*
X149416366Y-88630401D01*
X149471204Y-88625000D01*
X150103796Y-88625000D01*
X150158634Y-88630401D01*
X150158634Y-88630401D01*
G37*
G36*
X148583634Y-88630401D02*
G01*
X148634001Y-88645680D01*
X148680427Y-88670495D01*
X148721115Y-88703885D01*
X148754505Y-88744573D01*
X148779320Y-88790999D01*
X148794599Y-88841366D01*
X148800000Y-88896204D01*
X148800000Y-89603796D01*
X148794599Y-89658634D01*
X148779320Y-89709001D01*
X148754505Y-89755427D01*
X148721115Y-89796115D01*
X148680427Y-89829505D01*
X148634001Y-89854320D01*
X148583634Y-89869599D01*
X148528796Y-89875000D01*
X147896204Y-89875000D01*
X147841366Y-89869599D01*
X147790999Y-89854320D01*
X147744573Y-89829505D01*
X147703885Y-89796115D01*
X147670495Y-89755427D01*
X147645680Y-89709001D01*
X147630401Y-89658634D01*
X147625000Y-89603796D01*
X147625000Y-88896204D01*
X147630401Y-88841366D01*
X147645680Y-88790999D01*
X147670495Y-88744573D01*
X147703885Y-88703885D01*
X147744573Y-88670495D01*
X147790999Y-88645680D01*
X147841366Y-88630401D01*
X147896204Y-88625000D01*
X148528796Y-88625000D01*
X148583634Y-88630401D01*
X148583634Y-88630401D01*
G37*
G36*
X151583634Y-88630401D02*
G01*
X151634001Y-88645680D01*
X151680427Y-88670495D01*
X151721115Y-88703885D01*
X151754505Y-88744573D01*
X151779320Y-88790999D01*
X151794599Y-88841366D01*
X151800000Y-88896204D01*
X151800000Y-89603796D01*
X151794599Y-89658634D01*
X151779320Y-89709001D01*
X151754505Y-89755427D01*
X151721115Y-89796115D01*
X151680427Y-89829505D01*
X151634001Y-89854320D01*
X151583634Y-89869599D01*
X151528796Y-89875000D01*
X150896204Y-89875000D01*
X150841366Y-89869599D01*
X150790999Y-89854320D01*
X150744573Y-89829505D01*
X150703885Y-89796115D01*
X150670495Y-89755427D01*
X150645680Y-89709001D01*
X150630401Y-89658634D01*
X150625000Y-89603796D01*
X150625000Y-88896204D01*
X150630401Y-88841366D01*
X150645680Y-88790999D01*
X150670495Y-88744573D01*
X150703885Y-88703885D01*
X150744573Y-88670495D01*
X150790999Y-88645680D01*
X150841366Y-88630401D01*
X150896204Y-88625000D01*
X151528796Y-88625000D01*
X151583634Y-88630401D01*
X151583634Y-88630401D01*
G37*
G36*
X163536034Y-86944469D02*
G01*
X163724536Y-87001651D01*
X163898256Y-87094506D01*
X164050528Y-87219472D01*
X164175494Y-87371744D01*
X164268349Y-87545464D01*
X164325531Y-87733966D01*
X164344838Y-87930000D01*
X164325531Y-88126034D01*
X164268349Y-88314536D01*
X164175494Y-88488256D01*
X164050528Y-88640528D01*
X163898256Y-88765494D01*
X163724536Y-88858349D01*
X163536034Y-88915531D01*
X163389124Y-88930000D01*
X163290876Y-88930000D01*
X163143966Y-88915531D01*
X162955464Y-88858349D01*
X162781744Y-88765494D01*
X162629472Y-88640528D01*
X162504506Y-88488256D01*
X162411651Y-88314536D01*
X162354469Y-88126034D01*
X162335162Y-87930000D01*
X162354469Y-87733966D01*
X162411651Y-87545464D01*
X162504506Y-87371744D01*
X162629472Y-87219472D01*
X162781744Y-87094506D01*
X162955464Y-87001651D01*
X163143966Y-86944469D01*
X163290876Y-86930000D01*
X163389124Y-86930000D01*
X163536034Y-86944469D01*
X163536034Y-86944469D01*
G37*
G36*
X115276034Y-85674469D02*
G01*
X115464536Y-85731651D01*
X115638256Y-85824506D01*
X115790528Y-85949472D01*
X115915494Y-86101744D01*
X116008349Y-86275464D01*
X116065531Y-86463966D01*
X116084838Y-86660000D01*
X116065531Y-86856034D01*
X116008349Y-87044536D01*
X115915494Y-87218256D01*
X115790528Y-87370528D01*
X115638256Y-87495494D01*
X115464536Y-87588349D01*
X115276034Y-87645531D01*
X115129124Y-87660000D01*
X115030876Y-87660000D01*
X114883966Y-87645531D01*
X114695464Y-87588349D01*
X114521744Y-87495494D01*
X114369472Y-87370528D01*
X114244506Y-87218256D01*
X114151651Y-87044536D01*
X114094469Y-86856034D01*
X114075162Y-86660000D01*
X114094469Y-86463966D01*
X114151651Y-86275464D01*
X114244506Y-86101744D01*
X114369472Y-85949472D01*
X114521744Y-85824506D01*
X114695464Y-85731651D01*
X114883966Y-85674469D01*
X115030876Y-85660000D01*
X115129124Y-85660000D01*
X115276034Y-85674469D01*
X115276034Y-85674469D01*
G37*
G36*
X167196034Y-85394469D02*
G01*
X167384536Y-85451651D01*
X167558256Y-85544506D01*
X167710528Y-85669472D01*
X167835494Y-85821744D01*
X167928349Y-85995464D01*
X167985531Y-86183966D01*
X168004838Y-86380000D01*
X167985531Y-86576034D01*
X167928349Y-86764536D01*
X167835494Y-86938256D01*
X167710528Y-87090528D01*
X167558256Y-87215494D01*
X167384536Y-87308349D01*
X167196034Y-87365531D01*
X167049124Y-87380000D01*
X166950876Y-87380000D01*
X166803966Y-87365531D01*
X166615464Y-87308349D01*
X166441744Y-87215494D01*
X166289472Y-87090528D01*
X166164506Y-86938256D01*
X166071651Y-86764536D01*
X166014469Y-86576034D01*
X165995162Y-86380000D01*
X166014469Y-86183966D01*
X166071651Y-85995464D01*
X166164506Y-85821744D01*
X166289472Y-85669472D01*
X166441744Y-85544506D01*
X166615464Y-85451651D01*
X166803966Y-85394469D01*
X166950876Y-85380000D01*
X167049124Y-85380000D01*
X167196034Y-85394469D01*
X167196034Y-85394469D01*
G37*
G36*
X169736034Y-85394469D02*
G01*
X169924536Y-85451651D01*
X170098256Y-85544506D01*
X170250528Y-85669472D01*
X170375494Y-85821744D01*
X170468349Y-85995464D01*
X170525531Y-86183966D01*
X170544838Y-86380000D01*
X170525531Y-86576034D01*
X170468349Y-86764536D01*
X170375494Y-86938256D01*
X170250528Y-87090528D01*
X170098256Y-87215494D01*
X169924536Y-87308349D01*
X169736034Y-87365531D01*
X169589124Y-87380000D01*
X169490876Y-87380000D01*
X169343966Y-87365531D01*
X169155464Y-87308349D01*
X168981744Y-87215494D01*
X168829472Y-87090528D01*
X168704506Y-86938256D01*
X168611651Y-86764536D01*
X168554469Y-86576034D01*
X168535162Y-86380000D01*
X168554469Y-86183966D01*
X168611651Y-85995464D01*
X168704506Y-85821744D01*
X168829472Y-85669472D01*
X168981744Y-85544506D01*
X169155464Y-85451651D01*
X169343966Y-85394469D01*
X169490876Y-85380000D01*
X169589124Y-85380000D01*
X169736034Y-85394469D01*
X169736034Y-85394469D01*
G37*
G36*
X144908634Y-86130401D02*
G01*
X144959001Y-86145680D01*
X145005427Y-86170495D01*
X145046115Y-86203885D01*
X145079505Y-86244573D01*
X145104320Y-86290999D01*
X145119599Y-86341366D01*
X145125000Y-86396204D01*
X145125000Y-87103796D01*
X145119599Y-87158634D01*
X145104320Y-87209001D01*
X145079505Y-87255427D01*
X145046115Y-87296115D01*
X145005427Y-87329505D01*
X144959001Y-87354320D01*
X144908634Y-87369599D01*
X144853796Y-87375000D01*
X144221204Y-87375000D01*
X144166366Y-87369599D01*
X144115999Y-87354320D01*
X144069573Y-87329505D01*
X144028885Y-87296115D01*
X143995495Y-87255427D01*
X143970680Y-87209001D01*
X143955401Y-87158634D01*
X143950000Y-87103796D01*
X143950000Y-86396204D01*
X143955401Y-86341366D01*
X143970680Y-86290999D01*
X143995495Y-86244573D01*
X144028885Y-86203885D01*
X144069573Y-86170495D01*
X144115999Y-86145680D01*
X144166366Y-86130401D01*
X144221204Y-86125000D01*
X144853796Y-86125000D01*
X144908634Y-86130401D01*
X144908634Y-86130401D01*
G37*
G36*
X143333634Y-86130401D02*
G01*
X143384001Y-86145680D01*
X143430427Y-86170495D01*
X143471115Y-86203885D01*
X143504505Y-86244573D01*
X143529320Y-86290999D01*
X143544599Y-86341366D01*
X143550000Y-86396204D01*
X143550000Y-87103796D01*
X143544599Y-87158634D01*
X143529320Y-87209001D01*
X143504505Y-87255427D01*
X143471115Y-87296115D01*
X143430427Y-87329505D01*
X143384001Y-87354320D01*
X143333634Y-87369599D01*
X143278796Y-87375000D01*
X142646204Y-87375000D01*
X142591366Y-87369599D01*
X142540999Y-87354320D01*
X142494573Y-87329505D01*
X142453885Y-87296115D01*
X142420495Y-87255427D01*
X142395680Y-87209001D01*
X142380401Y-87158634D01*
X142375000Y-87103796D01*
X142375000Y-86396204D01*
X142380401Y-86341366D01*
X142395680Y-86290999D01*
X142420495Y-86244573D01*
X142453885Y-86203885D01*
X142494573Y-86170495D01*
X142540999Y-86145680D01*
X142591366Y-86130401D01*
X142646204Y-86125000D01*
X143278796Y-86125000D01*
X143333634Y-86130401D01*
X143333634Y-86130401D01*
G37*
G36*
X138658634Y-86130401D02*
G01*
X138709001Y-86145680D01*
X138755427Y-86170495D01*
X138796115Y-86203885D01*
X138829505Y-86244573D01*
X138854320Y-86290999D01*
X138869599Y-86341366D01*
X138875000Y-86396204D01*
X138875000Y-87103796D01*
X138869599Y-87158634D01*
X138854320Y-87209001D01*
X138829505Y-87255427D01*
X138796115Y-87296115D01*
X138755427Y-87329505D01*
X138709001Y-87354320D01*
X138658634Y-87369599D01*
X138603796Y-87375000D01*
X137971204Y-87375000D01*
X137916366Y-87369599D01*
X137865999Y-87354320D01*
X137819573Y-87329505D01*
X137778885Y-87296115D01*
X137745495Y-87255427D01*
X137720680Y-87209001D01*
X137705401Y-87158634D01*
X137700000Y-87103796D01*
X137700000Y-86396204D01*
X137705401Y-86341366D01*
X137720680Y-86290999D01*
X137745495Y-86244573D01*
X137778885Y-86203885D01*
X137819573Y-86170495D01*
X137865999Y-86145680D01*
X137916366Y-86130401D01*
X137971204Y-86125000D01*
X138603796Y-86125000D01*
X138658634Y-86130401D01*
X138658634Y-86130401D01*
G37*
G36*
X137083634Y-86130401D02*
G01*
X137134001Y-86145680D01*
X137180427Y-86170495D01*
X137221115Y-86203885D01*
X137254505Y-86244573D01*
X137279320Y-86290999D01*
X137294599Y-86341366D01*
X137300000Y-86396204D01*
X137300000Y-87103796D01*
X137294599Y-87158634D01*
X137279320Y-87209001D01*
X137254505Y-87255427D01*
X137221115Y-87296115D01*
X137180427Y-87329505D01*
X137134001Y-87354320D01*
X137083634Y-87369599D01*
X137028796Y-87375000D01*
X136396204Y-87375000D01*
X136341366Y-87369599D01*
X136290999Y-87354320D01*
X136244573Y-87329505D01*
X136203885Y-87296115D01*
X136170495Y-87255427D01*
X136145680Y-87209001D01*
X136130401Y-87158634D01*
X136125000Y-87103796D01*
X136125000Y-86396204D01*
X136130401Y-86341366D01*
X136145680Y-86290999D01*
X136170495Y-86244573D01*
X136203885Y-86203885D01*
X136244573Y-86170495D01*
X136290999Y-86145680D01*
X136341366Y-86130401D01*
X136396204Y-86125000D01*
X137028796Y-86125000D01*
X137083634Y-86130401D01*
X137083634Y-86130401D01*
G37*
G36*
X163536034Y-84404469D02*
G01*
X163724536Y-84461651D01*
X163898256Y-84554506D01*
X164050528Y-84679472D01*
X164175494Y-84831744D01*
X164268349Y-85005464D01*
X164325531Y-85193966D01*
X164344838Y-85390000D01*
X164325531Y-85586034D01*
X164268349Y-85774536D01*
X164175494Y-85948256D01*
X164050528Y-86100528D01*
X163898256Y-86225494D01*
X163724536Y-86318349D01*
X163536034Y-86375531D01*
X163389124Y-86390000D01*
X163290876Y-86390000D01*
X163143966Y-86375531D01*
X162955464Y-86318349D01*
X162781744Y-86225494D01*
X162629472Y-86100528D01*
X162504506Y-85948256D01*
X162411651Y-85774536D01*
X162354469Y-85586034D01*
X162335162Y-85390000D01*
X162354469Y-85193966D01*
X162411651Y-85005464D01*
X162504506Y-84831744D01*
X162629472Y-84679472D01*
X162781744Y-84554506D01*
X162955464Y-84461651D01*
X163143966Y-84404469D01*
X163290876Y-84390000D01*
X163389124Y-84390000D01*
X163536034Y-84404469D01*
X163536034Y-84404469D01*
G37*
G36*
X115276034Y-83134469D02*
G01*
X115464536Y-83191651D01*
X115638256Y-83284506D01*
X115790528Y-83409472D01*
X115915494Y-83561744D01*
X116008349Y-83735464D01*
X116065531Y-83923966D01*
X116084838Y-84120000D01*
X116065531Y-84316034D01*
X116008349Y-84504536D01*
X115915494Y-84678256D01*
X115790528Y-84830528D01*
X115638256Y-84955494D01*
X115464536Y-85048349D01*
X115276034Y-85105531D01*
X115129124Y-85120000D01*
X115030876Y-85120000D01*
X114883966Y-85105531D01*
X114695464Y-85048349D01*
X114521744Y-84955494D01*
X114369472Y-84830528D01*
X114244506Y-84678256D01*
X114151651Y-84504536D01*
X114094469Y-84316034D01*
X114075162Y-84120000D01*
X114094469Y-83923966D01*
X114151651Y-83735464D01*
X114244506Y-83561744D01*
X114369472Y-83409472D01*
X114521744Y-83284506D01*
X114695464Y-83191651D01*
X114883966Y-83134469D01*
X115030876Y-83120000D01*
X115129124Y-83120000D01*
X115276034Y-83134469D01*
X115276034Y-83134469D01*
G37*
G36*
X167196034Y-82854469D02*
G01*
X167384536Y-82911651D01*
X167558256Y-83004506D01*
X167710528Y-83129472D01*
X167835494Y-83281744D01*
X167928349Y-83455464D01*
X167985531Y-83643966D01*
X168004838Y-83840000D01*
X167985531Y-84036034D01*
X167928349Y-84224536D01*
X167835494Y-84398256D01*
X167710528Y-84550528D01*
X167558256Y-84675494D01*
X167384536Y-84768349D01*
X167196034Y-84825531D01*
X167049124Y-84840000D01*
X166950876Y-84840000D01*
X166803966Y-84825531D01*
X166615464Y-84768349D01*
X166441744Y-84675494D01*
X166289472Y-84550528D01*
X166164506Y-84398256D01*
X166071651Y-84224536D01*
X166014469Y-84036034D01*
X165995162Y-83840000D01*
X166014469Y-83643966D01*
X166071651Y-83455464D01*
X166164506Y-83281744D01*
X166289472Y-83129472D01*
X166441744Y-83004506D01*
X166615464Y-82911651D01*
X166803966Y-82854469D01*
X166950876Y-82840000D01*
X167049124Y-82840000D01*
X167196034Y-82854469D01*
X167196034Y-82854469D01*
G37*
G36*
X169736034Y-82854469D02*
G01*
X169924536Y-82911651D01*
X170098256Y-83004506D01*
X170250528Y-83129472D01*
X170375494Y-83281744D01*
X170468349Y-83455464D01*
X170525531Y-83643966D01*
X170544838Y-83840000D01*
X170525531Y-84036034D01*
X170468349Y-84224536D01*
X170375494Y-84398256D01*
X170250528Y-84550528D01*
X170098256Y-84675494D01*
X169924536Y-84768349D01*
X169736034Y-84825531D01*
X169589124Y-84840000D01*
X169490876Y-84840000D01*
X169343966Y-84825531D01*
X169155464Y-84768349D01*
X168981744Y-84675494D01*
X168829472Y-84550528D01*
X168704506Y-84398256D01*
X168611651Y-84224536D01*
X168554469Y-84036034D01*
X168535162Y-83840000D01*
X168554469Y-83643966D01*
X168611651Y-83455464D01*
X168704506Y-83281744D01*
X168829472Y-83129472D01*
X168981744Y-83004506D01*
X169155464Y-82911651D01*
X169343966Y-82854469D01*
X169490876Y-82840000D01*
X169589124Y-82840000D01*
X169736034Y-82854469D01*
X169736034Y-82854469D01*
G37*
G36*
X163536034Y-81864469D02*
G01*
X163724536Y-81921651D01*
X163898256Y-82014506D01*
X164050528Y-82139472D01*
X164175494Y-82291744D01*
X164268349Y-82465464D01*
X164325531Y-82653966D01*
X164344838Y-82850000D01*
X164325531Y-83046034D01*
X164268349Y-83234536D01*
X164175494Y-83408256D01*
X164050528Y-83560528D01*
X163898256Y-83685494D01*
X163724536Y-83778349D01*
X163536034Y-83835531D01*
X163389124Y-83850000D01*
X163290876Y-83850000D01*
X163143966Y-83835531D01*
X162955464Y-83778349D01*
X162781744Y-83685494D01*
X162629472Y-83560528D01*
X162504506Y-83408256D01*
X162411651Y-83234536D01*
X162354469Y-83046034D01*
X162335162Y-82850000D01*
X162354469Y-82653966D01*
X162411651Y-82465464D01*
X162504506Y-82291744D01*
X162629472Y-82139472D01*
X162781744Y-82014506D01*
X162955464Y-81921651D01*
X163143966Y-81864469D01*
X163290876Y-81850000D01*
X163389124Y-81850000D01*
X163536034Y-81864469D01*
X163536034Y-81864469D01*
G37*
G36*
X122408634Y-82455401D02*
G01*
X122459001Y-82470680D01*
X122505427Y-82495495D01*
X122546115Y-82528885D01*
X122579505Y-82569573D01*
X122604320Y-82615999D01*
X122619599Y-82666366D01*
X122625000Y-82721204D01*
X122625000Y-83353796D01*
X122619599Y-83408634D01*
X122604320Y-83459001D01*
X122579505Y-83505427D01*
X122546115Y-83546115D01*
X122505427Y-83579505D01*
X122459001Y-83604320D01*
X122408634Y-83619599D01*
X122353796Y-83625000D01*
X121646204Y-83625000D01*
X121591366Y-83619599D01*
X121540999Y-83604320D01*
X121494573Y-83579505D01*
X121453885Y-83546115D01*
X121420495Y-83505427D01*
X121395680Y-83459001D01*
X121380401Y-83408634D01*
X121375000Y-83353796D01*
X121375000Y-82721204D01*
X121380401Y-82666366D01*
X121395680Y-82615999D01*
X121420495Y-82569573D01*
X121453885Y-82528885D01*
X121494573Y-82495495D01*
X121540999Y-82470680D01*
X121591366Y-82455401D01*
X121646204Y-82450000D01*
X122353796Y-82450000D01*
X122408634Y-82455401D01*
X122408634Y-82455401D01*
G37*
G36*
X123908634Y-82455401D02*
G01*
X123959001Y-82470680D01*
X124005427Y-82495495D01*
X124046115Y-82528885D01*
X124079505Y-82569573D01*
X124104320Y-82615999D01*
X124119599Y-82666366D01*
X124125000Y-82721204D01*
X124125000Y-83353796D01*
X124119599Y-83408634D01*
X124104320Y-83459001D01*
X124079505Y-83505427D01*
X124046115Y-83546115D01*
X124005427Y-83579505D01*
X123959001Y-83604320D01*
X123908634Y-83619599D01*
X123853796Y-83625000D01*
X123146204Y-83625000D01*
X123091366Y-83619599D01*
X123040999Y-83604320D01*
X122994573Y-83579505D01*
X122953885Y-83546115D01*
X122920495Y-83505427D01*
X122895680Y-83459001D01*
X122880401Y-83408634D01*
X122875000Y-83353796D01*
X122875000Y-82721204D01*
X122880401Y-82666366D01*
X122895680Y-82615999D01*
X122920495Y-82569573D01*
X122953885Y-82528885D01*
X122994573Y-82495495D01*
X123040999Y-82470680D01*
X123091366Y-82455401D01*
X123146204Y-82450000D01*
X123853796Y-82450000D01*
X123908634Y-82455401D01*
X123908634Y-82455401D01*
G37*
G36*
X144158634Y-82455401D02*
G01*
X144209001Y-82470680D01*
X144255427Y-82495495D01*
X144296115Y-82528885D01*
X144329505Y-82569573D01*
X144354320Y-82615999D01*
X144369599Y-82666366D01*
X144375000Y-82721204D01*
X144375000Y-83353796D01*
X144369599Y-83408634D01*
X144354320Y-83459001D01*
X144329505Y-83505427D01*
X144296115Y-83546115D01*
X144255427Y-83579505D01*
X144209001Y-83604320D01*
X144158634Y-83619599D01*
X144103796Y-83625000D01*
X143396204Y-83625000D01*
X143341366Y-83619599D01*
X143290999Y-83604320D01*
X143244573Y-83579505D01*
X143203885Y-83546115D01*
X143170495Y-83505427D01*
X143145680Y-83459001D01*
X143130401Y-83408634D01*
X143125000Y-83353796D01*
X143125000Y-82721204D01*
X143130401Y-82666366D01*
X143145680Y-82615999D01*
X143170495Y-82569573D01*
X143203885Y-82528885D01*
X143244573Y-82495495D01*
X143290999Y-82470680D01*
X143341366Y-82455401D01*
X143396204Y-82450000D01*
X144103796Y-82450000D01*
X144158634Y-82455401D01*
X144158634Y-82455401D01*
G37*
G36*
X120908634Y-82455401D02*
G01*
X120959001Y-82470680D01*
X121005427Y-82495495D01*
X121046115Y-82528885D01*
X121079505Y-82569573D01*
X121104320Y-82615999D01*
X121119599Y-82666366D01*
X121125000Y-82721204D01*
X121125000Y-83353796D01*
X121119599Y-83408634D01*
X121104320Y-83459001D01*
X121079505Y-83505427D01*
X121046115Y-83546115D01*
X121005427Y-83579505D01*
X120959001Y-83604320D01*
X120908634Y-83619599D01*
X120853796Y-83625000D01*
X120146204Y-83625000D01*
X120091366Y-83619599D01*
X120040999Y-83604320D01*
X119994573Y-83579505D01*
X119953885Y-83546115D01*
X119920495Y-83505427D01*
X119895680Y-83459001D01*
X119880401Y-83408634D01*
X119875000Y-83353796D01*
X119875000Y-82721204D01*
X119880401Y-82666366D01*
X119895680Y-82615999D01*
X119920495Y-82569573D01*
X119953885Y-82528885D01*
X119994573Y-82495495D01*
X120040999Y-82470680D01*
X120091366Y-82455401D01*
X120146204Y-82450000D01*
X120853796Y-82450000D01*
X120908634Y-82455401D01*
X120908634Y-82455401D01*
G37*
G36*
X153108634Y-82305401D02*
G01*
X153159001Y-82320680D01*
X153205427Y-82345495D01*
X153246115Y-82378885D01*
X153279505Y-82419573D01*
X153304320Y-82465999D01*
X153319599Y-82516366D01*
X153325000Y-82571204D01*
X153325000Y-83203796D01*
X153319599Y-83258634D01*
X153304320Y-83309001D01*
X153279505Y-83355427D01*
X153246115Y-83396115D01*
X153205427Y-83429505D01*
X153159001Y-83454320D01*
X153108634Y-83469599D01*
X153053796Y-83475000D01*
X152346204Y-83475000D01*
X152291366Y-83469599D01*
X152240999Y-83454320D01*
X152194573Y-83429505D01*
X152153885Y-83396115D01*
X152120495Y-83355427D01*
X152095680Y-83309001D01*
X152080401Y-83258634D01*
X152075000Y-83203796D01*
X152075000Y-82571204D01*
X152080401Y-82516366D01*
X152095680Y-82465999D01*
X152120495Y-82419573D01*
X152153885Y-82378885D01*
X152194573Y-82345495D01*
X152240999Y-82320680D01*
X152291366Y-82305401D01*
X152346204Y-82300000D01*
X153053796Y-82300000D01*
X153108634Y-82305401D01*
X153108634Y-82305401D01*
G37*
G36*
X115276034Y-80594469D02*
G01*
X115464536Y-80651651D01*
X115638256Y-80744506D01*
X115790528Y-80869472D01*
X115915494Y-81021744D01*
X116008349Y-81195464D01*
X116065531Y-81383966D01*
X116084838Y-81580000D01*
X116065531Y-81776034D01*
X116008349Y-81964536D01*
X115915494Y-82138256D01*
X115790528Y-82290528D01*
X115638256Y-82415494D01*
X115464536Y-82508349D01*
X115276034Y-82565531D01*
X115129124Y-82580000D01*
X115030876Y-82580000D01*
X114883966Y-82565531D01*
X114695464Y-82508349D01*
X114521744Y-82415494D01*
X114369472Y-82290528D01*
X114244506Y-82138256D01*
X114151651Y-81964536D01*
X114094469Y-81776034D01*
X114075162Y-81580000D01*
X114094469Y-81383966D01*
X114151651Y-81195464D01*
X114244506Y-81021744D01*
X114369472Y-80869472D01*
X114521744Y-80744506D01*
X114695464Y-80651651D01*
X114883966Y-80594469D01*
X115030876Y-80580000D01*
X115129124Y-80580000D01*
X115276034Y-80594469D01*
X115276034Y-80594469D01*
G37*
G36*
X169736034Y-80314469D02*
G01*
X169924536Y-80371651D01*
X170098256Y-80464506D01*
X170250528Y-80589472D01*
X170375494Y-80741744D01*
X170468349Y-80915464D01*
X170525531Y-81103966D01*
X170544838Y-81300000D01*
X170525531Y-81496034D01*
X170468349Y-81684536D01*
X170375494Y-81858256D01*
X170250528Y-82010528D01*
X170098256Y-82135494D01*
X169924536Y-82228349D01*
X169736034Y-82285531D01*
X169589124Y-82300000D01*
X169490876Y-82300000D01*
X169343966Y-82285531D01*
X169155464Y-82228349D01*
X168981744Y-82135494D01*
X168829472Y-82010528D01*
X168704506Y-81858256D01*
X168611651Y-81684536D01*
X168554469Y-81496034D01*
X168535162Y-81300000D01*
X168554469Y-81103966D01*
X168611651Y-80915464D01*
X168704506Y-80741744D01*
X168829472Y-80589472D01*
X168981744Y-80464506D01*
X169155464Y-80371651D01*
X169343966Y-80314469D01*
X169490876Y-80300000D01*
X169589124Y-80300000D01*
X169736034Y-80314469D01*
X169736034Y-80314469D01*
G37*
G36*
X167196034Y-80314469D02*
G01*
X167384536Y-80371651D01*
X167558256Y-80464506D01*
X167710528Y-80589472D01*
X167835494Y-80741744D01*
X167928349Y-80915464D01*
X167985531Y-81103966D01*
X168004838Y-81300000D01*
X167985531Y-81496034D01*
X167928349Y-81684536D01*
X167835494Y-81858256D01*
X167710528Y-82010528D01*
X167558256Y-82135494D01*
X167384536Y-82228349D01*
X167196034Y-82285531D01*
X167049124Y-82300000D01*
X166950876Y-82300000D01*
X166803966Y-82285531D01*
X166615464Y-82228349D01*
X166441744Y-82135494D01*
X166289472Y-82010528D01*
X166164506Y-81858256D01*
X166071651Y-81684536D01*
X166014469Y-81496034D01*
X165995162Y-81300000D01*
X166014469Y-81103966D01*
X166071651Y-80915464D01*
X166164506Y-80741744D01*
X166289472Y-80589472D01*
X166441744Y-80464506D01*
X166615464Y-80371651D01*
X166803966Y-80314469D01*
X166950876Y-80300000D01*
X167049124Y-80300000D01*
X167196034Y-80314469D01*
X167196034Y-80314469D01*
G37*
G36*
X123908634Y-80880401D02*
G01*
X123959001Y-80895680D01*
X124005427Y-80920495D01*
X124046115Y-80953885D01*
X124079505Y-80994573D01*
X124104320Y-81040999D01*
X124119599Y-81091366D01*
X124125000Y-81146204D01*
X124125000Y-81778796D01*
X124119599Y-81833634D01*
X124104320Y-81884001D01*
X124079505Y-81930427D01*
X124046115Y-81971115D01*
X124005427Y-82004505D01*
X123959001Y-82029320D01*
X123908634Y-82044599D01*
X123853796Y-82050000D01*
X123146204Y-82050000D01*
X123091366Y-82044599D01*
X123040999Y-82029320D01*
X122994573Y-82004505D01*
X122953885Y-81971115D01*
X122920495Y-81930427D01*
X122895680Y-81884001D01*
X122880401Y-81833634D01*
X122875000Y-81778796D01*
X122875000Y-81146204D01*
X122880401Y-81091366D01*
X122895680Y-81040999D01*
X122920495Y-80994573D01*
X122953885Y-80953885D01*
X122994573Y-80920495D01*
X123040999Y-80895680D01*
X123091366Y-80880401D01*
X123146204Y-80875000D01*
X123853796Y-80875000D01*
X123908634Y-80880401D01*
X123908634Y-80880401D01*
G37*
G36*
X144158634Y-80880401D02*
G01*
X144209001Y-80895680D01*
X144255427Y-80920495D01*
X144296115Y-80953885D01*
X144329505Y-80994573D01*
X144354320Y-81040999D01*
X144369599Y-81091366D01*
X144375000Y-81146204D01*
X144375000Y-81778796D01*
X144369599Y-81833634D01*
X144354320Y-81884001D01*
X144329505Y-81930427D01*
X144296115Y-81971115D01*
X144255427Y-82004505D01*
X144209001Y-82029320D01*
X144158634Y-82044599D01*
X144103796Y-82050000D01*
X143396204Y-82050000D01*
X143341366Y-82044599D01*
X143290999Y-82029320D01*
X143244573Y-82004505D01*
X143203885Y-81971115D01*
X143170495Y-81930427D01*
X143145680Y-81884001D01*
X143130401Y-81833634D01*
X143125000Y-81778796D01*
X143125000Y-81146204D01*
X143130401Y-81091366D01*
X143145680Y-81040999D01*
X143170495Y-80994573D01*
X143203885Y-80953885D01*
X143244573Y-80920495D01*
X143290999Y-80895680D01*
X143341366Y-80880401D01*
X143396204Y-80875000D01*
X144103796Y-80875000D01*
X144158634Y-80880401D01*
X144158634Y-80880401D01*
G37*
G36*
X120908634Y-80880401D02*
G01*
X120959001Y-80895680D01*
X121005427Y-80920495D01*
X121046115Y-80953885D01*
X121079505Y-80994573D01*
X121104320Y-81040999D01*
X121119599Y-81091366D01*
X121125000Y-81146204D01*
X121125000Y-81778796D01*
X121119599Y-81833634D01*
X121104320Y-81884001D01*
X121079505Y-81930427D01*
X121046115Y-81971115D01*
X121005427Y-82004505D01*
X120959001Y-82029320D01*
X120908634Y-82044599D01*
X120853796Y-82050000D01*
X120146204Y-82050000D01*
X120091366Y-82044599D01*
X120040999Y-82029320D01*
X119994573Y-82004505D01*
X119953885Y-81971115D01*
X119920495Y-81930427D01*
X119895680Y-81884001D01*
X119880401Y-81833634D01*
X119875000Y-81778796D01*
X119875000Y-81146204D01*
X119880401Y-81091366D01*
X119895680Y-81040999D01*
X119920495Y-80994573D01*
X119953885Y-80953885D01*
X119994573Y-80920495D01*
X120040999Y-80895680D01*
X120091366Y-80880401D01*
X120146204Y-80875000D01*
X120853796Y-80875000D01*
X120908634Y-80880401D01*
X120908634Y-80880401D01*
G37*
G36*
X122408634Y-80880401D02*
G01*
X122459001Y-80895680D01*
X122505427Y-80920495D01*
X122546115Y-80953885D01*
X122579505Y-80994573D01*
X122604320Y-81040999D01*
X122619599Y-81091366D01*
X122625000Y-81146204D01*
X122625000Y-81778796D01*
X122619599Y-81833634D01*
X122604320Y-81884001D01*
X122579505Y-81930427D01*
X122546115Y-81971115D01*
X122505427Y-82004505D01*
X122459001Y-82029320D01*
X122408634Y-82044599D01*
X122353796Y-82050000D01*
X121646204Y-82050000D01*
X121591366Y-82044599D01*
X121540999Y-82029320D01*
X121494573Y-82004505D01*
X121453885Y-81971115D01*
X121420495Y-81930427D01*
X121395680Y-81884001D01*
X121380401Y-81833634D01*
X121375000Y-81778796D01*
X121375000Y-81146204D01*
X121380401Y-81091366D01*
X121395680Y-81040999D01*
X121420495Y-80994573D01*
X121453885Y-80953885D01*
X121494573Y-80920495D01*
X121540999Y-80895680D01*
X121591366Y-80880401D01*
X121646204Y-80875000D01*
X122353796Y-80875000D01*
X122408634Y-80880401D01*
X122408634Y-80880401D01*
G37*
G36*
X153108634Y-80730401D02*
G01*
X153159001Y-80745680D01*
X153205427Y-80770495D01*
X153246115Y-80803885D01*
X153279505Y-80844573D01*
X153304320Y-80890999D01*
X153319599Y-80941366D01*
X153325000Y-80996204D01*
X153325000Y-81628796D01*
X153319599Y-81683634D01*
X153304320Y-81734001D01*
X153279505Y-81780427D01*
X153246115Y-81821115D01*
X153205427Y-81854505D01*
X153159001Y-81879320D01*
X153108634Y-81894599D01*
X153053796Y-81900000D01*
X152346204Y-81900000D01*
X152291366Y-81894599D01*
X152240999Y-81879320D01*
X152194573Y-81854505D01*
X152153885Y-81821115D01*
X152120495Y-81780427D01*
X152095680Y-81734001D01*
X152080401Y-81683634D01*
X152075000Y-81628796D01*
X152075000Y-80996204D01*
X152080401Y-80941366D01*
X152095680Y-80890999D01*
X152120495Y-80844573D01*
X152153885Y-80803885D01*
X152194573Y-80770495D01*
X152240999Y-80745680D01*
X152291366Y-80730401D01*
X152346204Y-80725000D01*
X153053796Y-80725000D01*
X153108634Y-80730401D01*
X153108634Y-80730401D01*
G37*
G36*
X158158634Y-80555401D02*
G01*
X158209001Y-80570680D01*
X158255427Y-80595495D01*
X158296115Y-80628885D01*
X158329505Y-80669573D01*
X158354320Y-80715999D01*
X158369599Y-80766366D01*
X158375000Y-80821204D01*
X158375000Y-81453796D01*
X158369599Y-81508634D01*
X158354320Y-81559001D01*
X158329505Y-81605427D01*
X158296115Y-81646115D01*
X158255427Y-81679505D01*
X158209001Y-81704320D01*
X158158634Y-81719599D01*
X158103796Y-81725000D01*
X157396204Y-81725000D01*
X157341366Y-81719599D01*
X157290999Y-81704320D01*
X157244573Y-81679505D01*
X157203885Y-81646115D01*
X157170495Y-81605427D01*
X157145680Y-81559001D01*
X157130401Y-81508634D01*
X157125000Y-81453796D01*
X157125000Y-80821204D01*
X157130401Y-80766366D01*
X157145680Y-80715999D01*
X157170495Y-80669573D01*
X157203885Y-80628885D01*
X157244573Y-80595495D01*
X157290999Y-80570680D01*
X157341366Y-80555401D01*
X157396204Y-80550000D01*
X158103796Y-80550000D01*
X158158634Y-80555401D01*
X158158634Y-80555401D01*
G37*
G36*
X138333634Y-80130401D02*
G01*
X138384001Y-80145680D01*
X138430427Y-80170495D01*
X138471115Y-80203885D01*
X138504505Y-80244573D01*
X138529320Y-80290999D01*
X138544599Y-80341366D01*
X138550000Y-80396204D01*
X138550000Y-81103796D01*
X138544599Y-81158634D01*
X138529320Y-81209001D01*
X138504505Y-81255427D01*
X138471115Y-81296115D01*
X138430427Y-81329505D01*
X138384001Y-81354320D01*
X138333634Y-81369599D01*
X138278796Y-81375000D01*
X137646204Y-81375000D01*
X137591366Y-81369599D01*
X137540999Y-81354320D01*
X137494573Y-81329505D01*
X137453885Y-81296115D01*
X137420495Y-81255427D01*
X137395680Y-81209001D01*
X137380401Y-81158634D01*
X137375000Y-81103796D01*
X137375000Y-80396204D01*
X137380401Y-80341366D01*
X137395680Y-80290999D01*
X137420495Y-80244573D01*
X137453885Y-80203885D01*
X137494573Y-80170495D01*
X137540999Y-80145680D01*
X137591366Y-80130401D01*
X137646204Y-80125000D01*
X138278796Y-80125000D01*
X138333634Y-80130401D01*
X138333634Y-80130401D01*
G37*
G36*
X139908634Y-80130401D02*
G01*
X139959001Y-80145680D01*
X140005427Y-80170495D01*
X140046115Y-80203885D01*
X140079505Y-80244573D01*
X140104320Y-80290999D01*
X140119599Y-80341366D01*
X140125000Y-80396204D01*
X140125000Y-81103796D01*
X140119599Y-81158634D01*
X140104320Y-81209001D01*
X140079505Y-81255427D01*
X140046115Y-81296115D01*
X140005427Y-81329505D01*
X139959001Y-81354320D01*
X139908634Y-81369599D01*
X139853796Y-81375000D01*
X139221204Y-81375000D01*
X139166366Y-81369599D01*
X139115999Y-81354320D01*
X139069573Y-81329505D01*
X139028885Y-81296115D01*
X138995495Y-81255427D01*
X138970680Y-81209001D01*
X138955401Y-81158634D01*
X138950000Y-81103796D01*
X138950000Y-80396204D01*
X138955401Y-80341366D01*
X138970680Y-80290999D01*
X138995495Y-80244573D01*
X139028885Y-80203885D01*
X139069573Y-80170495D01*
X139115999Y-80145680D01*
X139166366Y-80130401D01*
X139221204Y-80125000D01*
X139853796Y-80125000D01*
X139908634Y-80130401D01*
X139908634Y-80130401D01*
G37*
G36*
X163536034Y-79324469D02*
G01*
X163724536Y-79381651D01*
X163898256Y-79474506D01*
X164050528Y-79599472D01*
X164175494Y-79751744D01*
X164268349Y-79925464D01*
X164325531Y-80113966D01*
X164344838Y-80310000D01*
X164325531Y-80506034D01*
X164268349Y-80694536D01*
X164175494Y-80868256D01*
X164050528Y-81020528D01*
X163898256Y-81145494D01*
X163724536Y-81238349D01*
X163536034Y-81295531D01*
X163389124Y-81310000D01*
X163290876Y-81310000D01*
X163143966Y-81295531D01*
X162955464Y-81238349D01*
X162781744Y-81145494D01*
X162629472Y-81020528D01*
X162504506Y-80868256D01*
X162411651Y-80694536D01*
X162354469Y-80506034D01*
X162335162Y-80310000D01*
X162354469Y-80113966D01*
X162411651Y-79925464D01*
X162504506Y-79751744D01*
X162629472Y-79599472D01*
X162781744Y-79474506D01*
X162955464Y-79381651D01*
X163143966Y-79324469D01*
X163290876Y-79310000D01*
X163389124Y-79310000D01*
X163536034Y-79324469D01*
X163536034Y-79324469D01*
G37*
G36*
X158158634Y-78980401D02*
G01*
X158209001Y-78995680D01*
X158255427Y-79020495D01*
X158296115Y-79053885D01*
X158329505Y-79094573D01*
X158354320Y-79140999D01*
X158369599Y-79191366D01*
X158375000Y-79246204D01*
X158375000Y-79878796D01*
X158369599Y-79933634D01*
X158354320Y-79984001D01*
X158329505Y-80030427D01*
X158296115Y-80071115D01*
X158255427Y-80104505D01*
X158209001Y-80129320D01*
X158158634Y-80144599D01*
X158103796Y-80150000D01*
X157396204Y-80150000D01*
X157341366Y-80144599D01*
X157290999Y-80129320D01*
X157244573Y-80104505D01*
X157203885Y-80071115D01*
X157170495Y-80030427D01*
X157145680Y-79984001D01*
X157130401Y-79933634D01*
X157125000Y-79878796D01*
X157125000Y-79246204D01*
X157130401Y-79191366D01*
X157145680Y-79140999D01*
X157170495Y-79094573D01*
X157203885Y-79053885D01*
X157244573Y-79020495D01*
X157290999Y-78995680D01*
X157341366Y-78980401D01*
X157396204Y-78975000D01*
X158103796Y-78975000D01*
X158158634Y-78980401D01*
X158158634Y-78980401D01*
G37*
G36*
X115276034Y-78054469D02*
G01*
X115464536Y-78111651D01*
X115638256Y-78204506D01*
X115790528Y-78329472D01*
X115915494Y-78481744D01*
X116008349Y-78655464D01*
X116065531Y-78843966D01*
X116084838Y-79040000D01*
X116065531Y-79236034D01*
X116008349Y-79424536D01*
X115915494Y-79598256D01*
X115790528Y-79750528D01*
X115638256Y-79875494D01*
X115464536Y-79968349D01*
X115276034Y-80025531D01*
X115129124Y-80040000D01*
X115030876Y-80040000D01*
X114883966Y-80025531D01*
X114695464Y-79968349D01*
X114521744Y-79875494D01*
X114369472Y-79750528D01*
X114244506Y-79598256D01*
X114151651Y-79424536D01*
X114094469Y-79236034D01*
X114075162Y-79040000D01*
X114094469Y-78843966D01*
X114151651Y-78655464D01*
X114244506Y-78481744D01*
X114369472Y-78329472D01*
X114521744Y-78204506D01*
X114695464Y-78111651D01*
X114883966Y-78054469D01*
X115030876Y-78040000D01*
X115129124Y-78040000D01*
X115276034Y-78054469D01*
X115276034Y-78054469D01*
G37*
G36*
X130583634Y-77880401D02*
G01*
X130634001Y-77895680D01*
X130680427Y-77920495D01*
X130721115Y-77953885D01*
X130754505Y-77994573D01*
X130779320Y-78040999D01*
X130794599Y-78091366D01*
X130800000Y-78146204D01*
X130800000Y-78853796D01*
X130794599Y-78908634D01*
X130779320Y-78959001D01*
X130754505Y-79005427D01*
X130721115Y-79046115D01*
X130680427Y-79079505D01*
X130634001Y-79104320D01*
X130583634Y-79119599D01*
X130528796Y-79125000D01*
X129896204Y-79125000D01*
X129841366Y-79119599D01*
X129790999Y-79104320D01*
X129744573Y-79079505D01*
X129703885Y-79046115D01*
X129670495Y-79005427D01*
X129645680Y-78959001D01*
X129630401Y-78908634D01*
X129625000Y-78853796D01*
X129625000Y-78146204D01*
X129630401Y-78091366D01*
X129645680Y-78040999D01*
X129670495Y-77994573D01*
X129703885Y-77953885D01*
X129744573Y-77920495D01*
X129790999Y-77895680D01*
X129841366Y-77880401D01*
X129896204Y-77875000D01*
X130528796Y-77875000D01*
X130583634Y-77880401D01*
X130583634Y-77880401D01*
G37*
G36*
X139658634Y-77880401D02*
G01*
X139709001Y-77895680D01*
X139755427Y-77920495D01*
X139796115Y-77953885D01*
X139829505Y-77994573D01*
X139854320Y-78040999D01*
X139869599Y-78091366D01*
X139875000Y-78146204D01*
X139875000Y-78853796D01*
X139869599Y-78908634D01*
X139854320Y-78959001D01*
X139829505Y-79005427D01*
X139796115Y-79046115D01*
X139755427Y-79079505D01*
X139709001Y-79104320D01*
X139658634Y-79119599D01*
X139603796Y-79125000D01*
X138971204Y-79125000D01*
X138916366Y-79119599D01*
X138865999Y-79104320D01*
X138819573Y-79079505D01*
X138778885Y-79046115D01*
X138745495Y-79005427D01*
X138720680Y-78959001D01*
X138705401Y-78908634D01*
X138700000Y-78853796D01*
X138700000Y-78146204D01*
X138705401Y-78091366D01*
X138720680Y-78040999D01*
X138745495Y-77994573D01*
X138778885Y-77953885D01*
X138819573Y-77920495D01*
X138865999Y-77895680D01*
X138916366Y-77880401D01*
X138971204Y-77875000D01*
X139603796Y-77875000D01*
X139658634Y-77880401D01*
X139658634Y-77880401D01*
G37*
G36*
X142658634Y-77880401D02*
G01*
X142709001Y-77895680D01*
X142755427Y-77920495D01*
X142796115Y-77953885D01*
X142829505Y-77994573D01*
X142854320Y-78040999D01*
X142869599Y-78091366D01*
X142875000Y-78146204D01*
X142875000Y-78853796D01*
X142869599Y-78908634D01*
X142854320Y-78959001D01*
X142829505Y-79005427D01*
X142796115Y-79046115D01*
X142755427Y-79079505D01*
X142709001Y-79104320D01*
X142658634Y-79119599D01*
X142603796Y-79125000D01*
X141971204Y-79125000D01*
X141916366Y-79119599D01*
X141865999Y-79104320D01*
X141819573Y-79079505D01*
X141778885Y-79046115D01*
X141745495Y-79005427D01*
X141720680Y-78959001D01*
X141705401Y-78908634D01*
X141700000Y-78853796D01*
X141700000Y-78146204D01*
X141705401Y-78091366D01*
X141720680Y-78040999D01*
X141745495Y-77994573D01*
X141778885Y-77953885D01*
X141819573Y-77920495D01*
X141865999Y-77895680D01*
X141916366Y-77880401D01*
X141971204Y-77875000D01*
X142603796Y-77875000D01*
X142658634Y-77880401D01*
X142658634Y-77880401D01*
G37*
G36*
X141083634Y-77880401D02*
G01*
X141134001Y-77895680D01*
X141180427Y-77920495D01*
X141221115Y-77953885D01*
X141254505Y-77994573D01*
X141279320Y-78040999D01*
X141294599Y-78091366D01*
X141300000Y-78146204D01*
X141300000Y-78853796D01*
X141294599Y-78908634D01*
X141279320Y-78959001D01*
X141254505Y-79005427D01*
X141221115Y-79046115D01*
X141180427Y-79079505D01*
X141134001Y-79104320D01*
X141083634Y-79119599D01*
X141028796Y-79125000D01*
X140396204Y-79125000D01*
X140341366Y-79119599D01*
X140290999Y-79104320D01*
X140244573Y-79079505D01*
X140203885Y-79046115D01*
X140170495Y-79005427D01*
X140145680Y-78959001D01*
X140130401Y-78908634D01*
X140125000Y-78853796D01*
X140125000Y-78146204D01*
X140130401Y-78091366D01*
X140145680Y-78040999D01*
X140170495Y-77994573D01*
X140203885Y-77953885D01*
X140244573Y-77920495D01*
X140290999Y-77895680D01*
X140341366Y-77880401D01*
X140396204Y-77875000D01*
X141028796Y-77875000D01*
X141083634Y-77880401D01*
X141083634Y-77880401D01*
G37*
G36*
X138083634Y-77880401D02*
G01*
X138134001Y-77895680D01*
X138180427Y-77920495D01*
X138221115Y-77953885D01*
X138254505Y-77994573D01*
X138279320Y-78040999D01*
X138294599Y-78091366D01*
X138300000Y-78146204D01*
X138300000Y-78853796D01*
X138294599Y-78908634D01*
X138279320Y-78959001D01*
X138254505Y-79005427D01*
X138221115Y-79046115D01*
X138180427Y-79079505D01*
X138134001Y-79104320D01*
X138083634Y-79119599D01*
X138028796Y-79125000D01*
X137396204Y-79125000D01*
X137341366Y-79119599D01*
X137290999Y-79104320D01*
X137244573Y-79079505D01*
X137203885Y-79046115D01*
X137170495Y-79005427D01*
X137145680Y-78959001D01*
X137130401Y-78908634D01*
X137125000Y-78853796D01*
X137125000Y-78146204D01*
X137130401Y-78091366D01*
X137145680Y-78040999D01*
X137170495Y-77994573D01*
X137203885Y-77953885D01*
X137244573Y-77920495D01*
X137290999Y-77895680D01*
X137341366Y-77880401D01*
X137396204Y-77875000D01*
X138028796Y-77875000D01*
X138083634Y-77880401D01*
X138083634Y-77880401D01*
G37*
G36*
X144083634Y-77880401D02*
G01*
X144134001Y-77895680D01*
X144180427Y-77920495D01*
X144221115Y-77953885D01*
X144254505Y-77994573D01*
X144279320Y-78040999D01*
X144294599Y-78091366D01*
X144300000Y-78146204D01*
X144300000Y-78853796D01*
X144294599Y-78908634D01*
X144279320Y-78959001D01*
X144254505Y-79005427D01*
X144221115Y-79046115D01*
X144180427Y-79079505D01*
X144134001Y-79104320D01*
X144083634Y-79119599D01*
X144028796Y-79125000D01*
X143396204Y-79125000D01*
X143341366Y-79119599D01*
X143290999Y-79104320D01*
X143244573Y-79079505D01*
X143203885Y-79046115D01*
X143170495Y-79005427D01*
X143145680Y-78959001D01*
X143130401Y-78908634D01*
X143125000Y-78853796D01*
X143125000Y-78146204D01*
X143130401Y-78091366D01*
X143145680Y-78040999D01*
X143170495Y-77994573D01*
X143203885Y-77953885D01*
X143244573Y-77920495D01*
X143290999Y-77895680D01*
X143341366Y-77880401D01*
X143396204Y-77875000D01*
X144028796Y-77875000D01*
X144083634Y-77880401D01*
X144083634Y-77880401D01*
G37*
G36*
X145658634Y-77880401D02*
G01*
X145709001Y-77895680D01*
X145755427Y-77920495D01*
X145796115Y-77953885D01*
X145829505Y-77994573D01*
X145854320Y-78040999D01*
X145869599Y-78091366D01*
X145875000Y-78146204D01*
X145875000Y-78853796D01*
X145869599Y-78908634D01*
X145854320Y-78959001D01*
X145829505Y-79005427D01*
X145796115Y-79046115D01*
X145755427Y-79079505D01*
X145709001Y-79104320D01*
X145658634Y-79119599D01*
X145603796Y-79125000D01*
X144971204Y-79125000D01*
X144916366Y-79119599D01*
X144865999Y-79104320D01*
X144819573Y-79079505D01*
X144778885Y-79046115D01*
X144745495Y-79005427D01*
X144720680Y-78959001D01*
X144705401Y-78908634D01*
X144700000Y-78853796D01*
X144700000Y-78146204D01*
X144705401Y-78091366D01*
X144720680Y-78040999D01*
X144745495Y-77994573D01*
X144778885Y-77953885D01*
X144819573Y-77920495D01*
X144865999Y-77895680D01*
X144916366Y-77880401D01*
X144971204Y-77875000D01*
X145603796Y-77875000D01*
X145658634Y-77880401D01*
X145658634Y-77880401D01*
G37*
G36*
X132158634Y-77880401D02*
G01*
X132209001Y-77895680D01*
X132255427Y-77920495D01*
X132296115Y-77953885D01*
X132329505Y-77994573D01*
X132354320Y-78040999D01*
X132369599Y-78091366D01*
X132375000Y-78146204D01*
X132375000Y-78853796D01*
X132369599Y-78908634D01*
X132354320Y-78959001D01*
X132329505Y-79005427D01*
X132296115Y-79046115D01*
X132255427Y-79079505D01*
X132209001Y-79104320D01*
X132158634Y-79119599D01*
X132103796Y-79125000D01*
X131471204Y-79125000D01*
X131416366Y-79119599D01*
X131365999Y-79104320D01*
X131319573Y-79079505D01*
X131278885Y-79046115D01*
X131245495Y-79005427D01*
X131220680Y-78959001D01*
X131205401Y-78908634D01*
X131200000Y-78853796D01*
X131200000Y-78146204D01*
X131205401Y-78091366D01*
X131220680Y-78040999D01*
X131245495Y-77994573D01*
X131278885Y-77953885D01*
X131319573Y-77920495D01*
X131365999Y-77895680D01*
X131416366Y-77880401D01*
X131471204Y-77875000D01*
X132103796Y-77875000D01*
X132158634Y-77880401D01*
X132158634Y-77880401D01*
G37*
G36*
X148658634Y-77880401D02*
G01*
X148709001Y-77895680D01*
X148755427Y-77920495D01*
X148796115Y-77953885D01*
X148829505Y-77994573D01*
X148854320Y-78040999D01*
X148869599Y-78091366D01*
X148875000Y-78146204D01*
X148875000Y-78853796D01*
X148869599Y-78908634D01*
X148854320Y-78959001D01*
X148829505Y-79005427D01*
X148796115Y-79046115D01*
X148755427Y-79079505D01*
X148709001Y-79104320D01*
X148658634Y-79119599D01*
X148603796Y-79125000D01*
X147971204Y-79125000D01*
X147916366Y-79119599D01*
X147865999Y-79104320D01*
X147819573Y-79079505D01*
X147778885Y-79046115D01*
X147745495Y-79005427D01*
X147720680Y-78959001D01*
X147705401Y-78908634D01*
X147700000Y-78853796D01*
X147700000Y-78146204D01*
X147705401Y-78091366D01*
X147720680Y-78040999D01*
X147745495Y-77994573D01*
X147778885Y-77953885D01*
X147819573Y-77920495D01*
X147865999Y-77895680D01*
X147916366Y-77880401D01*
X147971204Y-77875000D01*
X148603796Y-77875000D01*
X148658634Y-77880401D01*
X148658634Y-77880401D01*
G37*
G36*
X147083634Y-77880401D02*
G01*
X147134001Y-77895680D01*
X147180427Y-77920495D01*
X147221115Y-77953885D01*
X147254505Y-77994573D01*
X147279320Y-78040999D01*
X147294599Y-78091366D01*
X147300000Y-78146204D01*
X147300000Y-78853796D01*
X147294599Y-78908634D01*
X147279320Y-78959001D01*
X147254505Y-79005427D01*
X147221115Y-79046115D01*
X147180427Y-79079505D01*
X147134001Y-79104320D01*
X147083634Y-79119599D01*
X147028796Y-79125000D01*
X146396204Y-79125000D01*
X146341366Y-79119599D01*
X146290999Y-79104320D01*
X146244573Y-79079505D01*
X146203885Y-79046115D01*
X146170495Y-79005427D01*
X146145680Y-78959001D01*
X146130401Y-78908634D01*
X146125000Y-78853796D01*
X146125000Y-78146204D01*
X146130401Y-78091366D01*
X146145680Y-78040999D01*
X146170495Y-77994573D01*
X146203885Y-77953885D01*
X146244573Y-77920495D01*
X146290999Y-77895680D01*
X146341366Y-77880401D01*
X146396204Y-77875000D01*
X147028796Y-77875000D01*
X147083634Y-77880401D01*
X147083634Y-77880401D01*
G37*
G36*
X152083634Y-77580401D02*
G01*
X152134001Y-77595680D01*
X152180427Y-77620495D01*
X152221115Y-77653885D01*
X152254505Y-77694573D01*
X152279320Y-77740999D01*
X152294599Y-77791366D01*
X152300000Y-77846204D01*
X152300000Y-78553796D01*
X152294599Y-78608634D01*
X152279320Y-78659001D01*
X152254505Y-78705427D01*
X152221115Y-78746115D01*
X152180427Y-78779505D01*
X152134001Y-78804320D01*
X152083634Y-78819599D01*
X152028796Y-78825000D01*
X151396204Y-78825000D01*
X151341366Y-78819599D01*
X151290999Y-78804320D01*
X151244573Y-78779505D01*
X151203885Y-78746115D01*
X151170495Y-78705427D01*
X151145680Y-78659001D01*
X151130401Y-78608634D01*
X151125000Y-78553796D01*
X151125000Y-77846204D01*
X151130401Y-77791366D01*
X151145680Y-77740999D01*
X151170495Y-77694573D01*
X151203885Y-77653885D01*
X151244573Y-77620495D01*
X151290999Y-77595680D01*
X151341366Y-77580401D01*
X151396204Y-77575000D01*
X152028796Y-77575000D01*
X152083634Y-77580401D01*
X152083634Y-77580401D01*
G37*
G36*
X153658634Y-77580401D02*
G01*
X153709001Y-77595680D01*
X153755427Y-77620495D01*
X153796115Y-77653885D01*
X153829505Y-77694573D01*
X153854320Y-77740999D01*
X153869599Y-77791366D01*
X153875000Y-77846204D01*
X153875000Y-78553796D01*
X153869599Y-78608634D01*
X153854320Y-78659001D01*
X153829505Y-78705427D01*
X153796115Y-78746115D01*
X153755427Y-78779505D01*
X153709001Y-78804320D01*
X153658634Y-78819599D01*
X153603796Y-78825000D01*
X152971204Y-78825000D01*
X152916366Y-78819599D01*
X152865999Y-78804320D01*
X152819573Y-78779505D01*
X152778885Y-78746115D01*
X152745495Y-78705427D01*
X152720680Y-78659001D01*
X152705401Y-78608634D01*
X152700000Y-78553796D01*
X152700000Y-77846204D01*
X152705401Y-77791366D01*
X152720680Y-77740999D01*
X152745495Y-77694573D01*
X152778885Y-77653885D01*
X152819573Y-77620495D01*
X152865999Y-77595680D01*
X152916366Y-77580401D01*
X152971204Y-77575000D01*
X153603796Y-77575000D01*
X153658634Y-77580401D01*
X153658634Y-77580401D01*
G37*
G36*
X163536034Y-76784469D02*
G01*
X163724536Y-76841651D01*
X163898256Y-76934506D01*
X164050528Y-77059472D01*
X164175494Y-77211744D01*
X164268349Y-77385464D01*
X164325531Y-77573966D01*
X164344838Y-77770000D01*
X164325531Y-77966034D01*
X164268349Y-78154536D01*
X164175494Y-78328256D01*
X164050528Y-78480528D01*
X163898256Y-78605494D01*
X163724536Y-78698349D01*
X163536034Y-78755531D01*
X163389124Y-78770000D01*
X163290876Y-78770000D01*
X163143966Y-78755531D01*
X162955464Y-78698349D01*
X162781744Y-78605494D01*
X162629472Y-78480528D01*
X162504506Y-78328256D01*
X162411651Y-78154536D01*
X162354469Y-77966034D01*
X162335162Y-77770000D01*
X162354469Y-77573966D01*
X162411651Y-77385464D01*
X162504506Y-77211744D01*
X162629472Y-77059472D01*
X162781744Y-76934506D01*
X162955464Y-76841651D01*
X163143966Y-76784469D01*
X163290876Y-76770000D01*
X163389124Y-76770000D01*
X163536034Y-76784469D01*
X163536034Y-76784469D01*
G37*
G36*
X115276034Y-75514469D02*
G01*
X115464536Y-75571651D01*
X115638256Y-75664506D01*
X115790528Y-75789472D01*
X115915494Y-75941744D01*
X116008349Y-76115464D01*
X116065531Y-76303966D01*
X116084838Y-76500000D01*
X116065531Y-76696034D01*
X116008349Y-76884536D01*
X115915494Y-77058256D01*
X115790528Y-77210528D01*
X115638256Y-77335494D01*
X115464536Y-77428349D01*
X115276034Y-77485531D01*
X115129124Y-77500000D01*
X115030876Y-77500000D01*
X114883966Y-77485531D01*
X114695464Y-77428349D01*
X114521744Y-77335494D01*
X114369472Y-77210528D01*
X114244506Y-77058256D01*
X114151651Y-76884536D01*
X114094469Y-76696034D01*
X114075162Y-76500000D01*
X114094469Y-76303966D01*
X114151651Y-76115464D01*
X114244506Y-75941744D01*
X114369472Y-75789472D01*
X114521744Y-75664506D01*
X114695464Y-75571651D01*
X114883966Y-75514469D01*
X115030876Y-75500000D01*
X115129124Y-75500000D01*
X115276034Y-75514469D01*
X115276034Y-75514469D01*
G37*
G36*
X167908634Y-76205401D02*
G01*
X167959001Y-76220680D01*
X168005427Y-76245495D01*
X168046115Y-76278885D01*
X168079505Y-76319573D01*
X168104320Y-76365999D01*
X168119599Y-76416366D01*
X168125000Y-76471204D01*
X168125000Y-77103796D01*
X168119599Y-77158634D01*
X168104320Y-77209001D01*
X168079505Y-77255427D01*
X168046115Y-77296115D01*
X168005427Y-77329505D01*
X167959001Y-77354320D01*
X167908634Y-77369599D01*
X167853796Y-77375000D01*
X167146204Y-77375000D01*
X167091366Y-77369599D01*
X167040999Y-77354320D01*
X166994573Y-77329505D01*
X166953885Y-77296115D01*
X166920495Y-77255427D01*
X166895680Y-77209001D01*
X166880401Y-77158634D01*
X166875000Y-77103796D01*
X166875000Y-76471204D01*
X166880401Y-76416366D01*
X166895680Y-76365999D01*
X166920495Y-76319573D01*
X166953885Y-76278885D01*
X166994573Y-76245495D01*
X167040999Y-76220680D01*
X167091366Y-76205401D01*
X167146204Y-76200000D01*
X167853796Y-76200000D01*
X167908634Y-76205401D01*
X167908634Y-76205401D01*
G37*
G36*
X153658634Y-75280401D02*
G01*
X153709001Y-75295680D01*
X153755427Y-75320495D01*
X153796115Y-75353885D01*
X153829505Y-75394573D01*
X153854320Y-75440999D01*
X153869599Y-75491366D01*
X153875000Y-75546204D01*
X153875000Y-76253796D01*
X153869599Y-76308634D01*
X153854320Y-76359001D01*
X153829505Y-76405427D01*
X153796115Y-76446115D01*
X153755427Y-76479505D01*
X153709001Y-76504320D01*
X153658634Y-76519599D01*
X153603796Y-76525000D01*
X152971204Y-76525000D01*
X152916366Y-76519599D01*
X152865999Y-76504320D01*
X152819573Y-76479505D01*
X152778885Y-76446115D01*
X152745495Y-76405427D01*
X152720680Y-76359001D01*
X152705401Y-76308634D01*
X152700000Y-76253796D01*
X152700000Y-75546204D01*
X152705401Y-75491366D01*
X152720680Y-75440999D01*
X152745495Y-75394573D01*
X152778885Y-75353885D01*
X152819573Y-75320495D01*
X152865999Y-75295680D01*
X152916366Y-75280401D01*
X152971204Y-75275000D01*
X153603796Y-75275000D01*
X153658634Y-75280401D01*
X153658634Y-75280401D01*
G37*
G36*
X152083634Y-75280401D02*
G01*
X152134001Y-75295680D01*
X152180427Y-75320495D01*
X152221115Y-75353885D01*
X152254505Y-75394573D01*
X152279320Y-75440999D01*
X152294599Y-75491366D01*
X152300000Y-75546204D01*
X152300000Y-76253796D01*
X152294599Y-76308634D01*
X152279320Y-76359001D01*
X152254505Y-76405427D01*
X152221115Y-76446115D01*
X152180427Y-76479505D01*
X152134001Y-76504320D01*
X152083634Y-76519599D01*
X152028796Y-76525000D01*
X151396204Y-76525000D01*
X151341366Y-76519599D01*
X151290999Y-76504320D01*
X151244573Y-76479505D01*
X151203885Y-76446115D01*
X151170495Y-76405427D01*
X151145680Y-76359001D01*
X151130401Y-76308634D01*
X151125000Y-76253796D01*
X151125000Y-75546204D01*
X151130401Y-75491366D01*
X151145680Y-75440999D01*
X151170495Y-75394573D01*
X151203885Y-75353885D01*
X151244573Y-75320495D01*
X151290999Y-75295680D01*
X151341366Y-75280401D01*
X151396204Y-75275000D01*
X152028796Y-75275000D01*
X152083634Y-75280401D01*
X152083634Y-75280401D01*
G37*
G36*
X163536034Y-74244469D02*
G01*
X163724536Y-74301651D01*
X163898256Y-74394506D01*
X164050528Y-74519472D01*
X164175494Y-74671744D01*
X164268349Y-74845464D01*
X164325531Y-75033966D01*
X164344838Y-75230000D01*
X164325531Y-75426034D01*
X164268349Y-75614536D01*
X164175494Y-75788256D01*
X164050528Y-75940528D01*
X163898256Y-76065494D01*
X163724536Y-76158349D01*
X163536034Y-76215531D01*
X163389124Y-76230000D01*
X163290876Y-76230000D01*
X163143966Y-76215531D01*
X162955464Y-76158349D01*
X162781744Y-76065494D01*
X162629472Y-75940528D01*
X162504506Y-75788256D01*
X162411651Y-75614536D01*
X162354469Y-75426034D01*
X162335162Y-75230000D01*
X162354469Y-75033966D01*
X162411651Y-74845464D01*
X162504506Y-74671744D01*
X162629472Y-74519472D01*
X162781744Y-74394506D01*
X162955464Y-74301651D01*
X163143966Y-74244469D01*
X163290876Y-74230000D01*
X163389124Y-74230000D01*
X163536034Y-74244469D01*
X163536034Y-74244469D01*
G37*
G36*
X141083634Y-74880401D02*
G01*
X141134001Y-74895680D01*
X141180427Y-74920495D01*
X141221115Y-74953885D01*
X141254505Y-74994573D01*
X141279320Y-75040999D01*
X141294599Y-75091366D01*
X141300000Y-75146204D01*
X141300000Y-75853796D01*
X141294599Y-75908634D01*
X141279320Y-75959001D01*
X141254505Y-76005427D01*
X141221115Y-76046115D01*
X141180427Y-76079505D01*
X141134001Y-76104320D01*
X141083634Y-76119599D01*
X141028796Y-76125000D01*
X140396204Y-76125000D01*
X140341366Y-76119599D01*
X140290999Y-76104320D01*
X140244573Y-76079505D01*
X140203885Y-76046115D01*
X140170495Y-76005427D01*
X140145680Y-75959001D01*
X140130401Y-75908634D01*
X140125000Y-75853796D01*
X140125000Y-75146204D01*
X140130401Y-75091366D01*
X140145680Y-75040999D01*
X140170495Y-74994573D01*
X140203885Y-74953885D01*
X140244573Y-74920495D01*
X140290999Y-74895680D01*
X140341366Y-74880401D01*
X140396204Y-74875000D01*
X141028796Y-74875000D01*
X141083634Y-74880401D01*
X141083634Y-74880401D01*
G37*
G36*
X138083634Y-74880401D02*
G01*
X138134001Y-74895680D01*
X138180427Y-74920495D01*
X138221115Y-74953885D01*
X138254505Y-74994573D01*
X138279320Y-75040999D01*
X138294599Y-75091366D01*
X138300000Y-75146204D01*
X138300000Y-75853796D01*
X138294599Y-75908634D01*
X138279320Y-75959001D01*
X138254505Y-76005427D01*
X138221115Y-76046115D01*
X138180427Y-76079505D01*
X138134001Y-76104320D01*
X138083634Y-76119599D01*
X138028796Y-76125000D01*
X137396204Y-76125000D01*
X137341366Y-76119599D01*
X137290999Y-76104320D01*
X137244573Y-76079505D01*
X137203885Y-76046115D01*
X137170495Y-76005427D01*
X137145680Y-75959001D01*
X137130401Y-75908634D01*
X137125000Y-75853796D01*
X137125000Y-75146204D01*
X137130401Y-75091366D01*
X137145680Y-75040999D01*
X137170495Y-74994573D01*
X137203885Y-74953885D01*
X137244573Y-74920495D01*
X137290999Y-74895680D01*
X137341366Y-74880401D01*
X137396204Y-74875000D01*
X138028796Y-74875000D01*
X138083634Y-74880401D01*
X138083634Y-74880401D01*
G37*
G36*
X142658634Y-74880401D02*
G01*
X142709001Y-74895680D01*
X142755427Y-74920495D01*
X142796115Y-74953885D01*
X142829505Y-74994573D01*
X142854320Y-75040999D01*
X142869599Y-75091366D01*
X142875000Y-75146204D01*
X142875000Y-75853796D01*
X142869599Y-75908634D01*
X142854320Y-75959001D01*
X142829505Y-76005427D01*
X142796115Y-76046115D01*
X142755427Y-76079505D01*
X142709001Y-76104320D01*
X142658634Y-76119599D01*
X142603796Y-76125000D01*
X141971204Y-76125000D01*
X141916366Y-76119599D01*
X141865999Y-76104320D01*
X141819573Y-76079505D01*
X141778885Y-76046115D01*
X141745495Y-76005427D01*
X141720680Y-75959001D01*
X141705401Y-75908634D01*
X141700000Y-75853796D01*
X141700000Y-75146204D01*
X141705401Y-75091366D01*
X141720680Y-75040999D01*
X141745495Y-74994573D01*
X141778885Y-74953885D01*
X141819573Y-74920495D01*
X141865999Y-74895680D01*
X141916366Y-74880401D01*
X141971204Y-74875000D01*
X142603796Y-74875000D01*
X142658634Y-74880401D01*
X142658634Y-74880401D01*
G37*
G36*
X130583634Y-74880401D02*
G01*
X130634001Y-74895680D01*
X130680427Y-74920495D01*
X130721115Y-74953885D01*
X130754505Y-74994573D01*
X130779320Y-75040999D01*
X130794599Y-75091366D01*
X130800000Y-75146204D01*
X130800000Y-75853796D01*
X130794599Y-75908634D01*
X130779320Y-75959001D01*
X130754505Y-76005427D01*
X130721115Y-76046115D01*
X130680427Y-76079505D01*
X130634001Y-76104320D01*
X130583634Y-76119599D01*
X130528796Y-76125000D01*
X129896204Y-76125000D01*
X129841366Y-76119599D01*
X129790999Y-76104320D01*
X129744573Y-76079505D01*
X129703885Y-76046115D01*
X129670495Y-76005427D01*
X129645680Y-75959001D01*
X129630401Y-75908634D01*
X129625000Y-75853796D01*
X129625000Y-75146204D01*
X129630401Y-75091366D01*
X129645680Y-75040999D01*
X129670495Y-74994573D01*
X129703885Y-74953885D01*
X129744573Y-74920495D01*
X129790999Y-74895680D01*
X129841366Y-74880401D01*
X129896204Y-74875000D01*
X130528796Y-74875000D01*
X130583634Y-74880401D01*
X130583634Y-74880401D01*
G37*
G36*
X132158634Y-74880401D02*
G01*
X132209001Y-74895680D01*
X132255427Y-74920495D01*
X132296115Y-74953885D01*
X132329505Y-74994573D01*
X132354320Y-75040999D01*
X132369599Y-75091366D01*
X132375000Y-75146204D01*
X132375000Y-75853796D01*
X132369599Y-75908634D01*
X132354320Y-75959001D01*
X132329505Y-76005427D01*
X132296115Y-76046115D01*
X132255427Y-76079505D01*
X132209001Y-76104320D01*
X132158634Y-76119599D01*
X132103796Y-76125000D01*
X131471204Y-76125000D01*
X131416366Y-76119599D01*
X131365999Y-76104320D01*
X131319573Y-76079505D01*
X131278885Y-76046115D01*
X131245495Y-76005427D01*
X131220680Y-75959001D01*
X131205401Y-75908634D01*
X131200000Y-75853796D01*
X131200000Y-75146204D01*
X131205401Y-75091366D01*
X131220680Y-75040999D01*
X131245495Y-74994573D01*
X131278885Y-74953885D01*
X131319573Y-74920495D01*
X131365999Y-74895680D01*
X131416366Y-74880401D01*
X131471204Y-74875000D01*
X132103796Y-74875000D01*
X132158634Y-74880401D01*
X132158634Y-74880401D01*
G37*
G36*
X135083634Y-74880401D02*
G01*
X135134001Y-74895680D01*
X135180427Y-74920495D01*
X135221115Y-74953885D01*
X135254505Y-74994573D01*
X135279320Y-75040999D01*
X135294599Y-75091366D01*
X135300000Y-75146204D01*
X135300000Y-75853796D01*
X135294599Y-75908634D01*
X135279320Y-75959001D01*
X135254505Y-76005427D01*
X135221115Y-76046115D01*
X135180427Y-76079505D01*
X135134001Y-76104320D01*
X135083634Y-76119599D01*
X135028796Y-76125000D01*
X134396204Y-76125000D01*
X134341366Y-76119599D01*
X134290999Y-76104320D01*
X134244573Y-76079505D01*
X134203885Y-76046115D01*
X134170495Y-76005427D01*
X134145680Y-75959001D01*
X134130401Y-75908634D01*
X134125000Y-75853796D01*
X134125000Y-75146204D01*
X134130401Y-75091366D01*
X134145680Y-75040999D01*
X134170495Y-74994573D01*
X134203885Y-74953885D01*
X134244573Y-74920495D01*
X134290999Y-74895680D01*
X134341366Y-74880401D01*
X134396204Y-74875000D01*
X135028796Y-74875000D01*
X135083634Y-74880401D01*
X135083634Y-74880401D01*
G37*
G36*
X144083634Y-74880401D02*
G01*
X144134001Y-74895680D01*
X144180427Y-74920495D01*
X144221115Y-74953885D01*
X144254505Y-74994573D01*
X144279320Y-75040999D01*
X144294599Y-75091366D01*
X144300000Y-75146204D01*
X144300000Y-75853796D01*
X144294599Y-75908634D01*
X144279320Y-75959001D01*
X144254505Y-76005427D01*
X144221115Y-76046115D01*
X144180427Y-76079505D01*
X144134001Y-76104320D01*
X144083634Y-76119599D01*
X144028796Y-76125000D01*
X143396204Y-76125000D01*
X143341366Y-76119599D01*
X143290999Y-76104320D01*
X143244573Y-76079505D01*
X143203885Y-76046115D01*
X143170495Y-76005427D01*
X143145680Y-75959001D01*
X143130401Y-75908634D01*
X143125000Y-75853796D01*
X143125000Y-75146204D01*
X143130401Y-75091366D01*
X143145680Y-75040999D01*
X143170495Y-74994573D01*
X143203885Y-74953885D01*
X143244573Y-74920495D01*
X143290999Y-74895680D01*
X143341366Y-74880401D01*
X143396204Y-74875000D01*
X144028796Y-74875000D01*
X144083634Y-74880401D01*
X144083634Y-74880401D01*
G37*
G36*
X136658634Y-74880401D02*
G01*
X136709001Y-74895680D01*
X136755427Y-74920495D01*
X136796115Y-74953885D01*
X136829505Y-74994573D01*
X136854320Y-75040999D01*
X136869599Y-75091366D01*
X136875000Y-75146204D01*
X136875000Y-75853796D01*
X136869599Y-75908634D01*
X136854320Y-75959001D01*
X136829505Y-76005427D01*
X136796115Y-76046115D01*
X136755427Y-76079505D01*
X136709001Y-76104320D01*
X136658634Y-76119599D01*
X136603796Y-76125000D01*
X135971204Y-76125000D01*
X135916366Y-76119599D01*
X135865999Y-76104320D01*
X135819573Y-76079505D01*
X135778885Y-76046115D01*
X135745495Y-76005427D01*
X135720680Y-75959001D01*
X135705401Y-75908634D01*
X135700000Y-75853796D01*
X135700000Y-75146204D01*
X135705401Y-75091366D01*
X135720680Y-75040999D01*
X135745495Y-74994573D01*
X135778885Y-74953885D01*
X135819573Y-74920495D01*
X135865999Y-74895680D01*
X135916366Y-74880401D01*
X135971204Y-74875000D01*
X136603796Y-74875000D01*
X136658634Y-74880401D01*
X136658634Y-74880401D01*
G37*
G36*
X145658634Y-74880401D02*
G01*
X145709001Y-74895680D01*
X145755427Y-74920495D01*
X145796115Y-74953885D01*
X145829505Y-74994573D01*
X145854320Y-75040999D01*
X145869599Y-75091366D01*
X145875000Y-75146204D01*
X145875000Y-75853796D01*
X145869599Y-75908634D01*
X145854320Y-75959001D01*
X145829505Y-76005427D01*
X145796115Y-76046115D01*
X145755427Y-76079505D01*
X145709001Y-76104320D01*
X145658634Y-76119599D01*
X145603796Y-76125000D01*
X144971204Y-76125000D01*
X144916366Y-76119599D01*
X144865999Y-76104320D01*
X144819573Y-76079505D01*
X144778885Y-76046115D01*
X144745495Y-76005427D01*
X144720680Y-75959001D01*
X144705401Y-75908634D01*
X144700000Y-75853796D01*
X144700000Y-75146204D01*
X144705401Y-75091366D01*
X144720680Y-75040999D01*
X144745495Y-74994573D01*
X144778885Y-74953885D01*
X144819573Y-74920495D01*
X144865999Y-74895680D01*
X144916366Y-74880401D01*
X144971204Y-74875000D01*
X145603796Y-74875000D01*
X145658634Y-74880401D01*
X145658634Y-74880401D01*
G37*
G36*
X139658634Y-74880401D02*
G01*
X139709001Y-74895680D01*
X139755427Y-74920495D01*
X139796115Y-74953885D01*
X139829505Y-74994573D01*
X139854320Y-75040999D01*
X139869599Y-75091366D01*
X139875000Y-75146204D01*
X139875000Y-75853796D01*
X139869599Y-75908634D01*
X139854320Y-75959001D01*
X139829505Y-76005427D01*
X139796115Y-76046115D01*
X139755427Y-76079505D01*
X139709001Y-76104320D01*
X139658634Y-76119599D01*
X139603796Y-76125000D01*
X138971204Y-76125000D01*
X138916366Y-76119599D01*
X138865999Y-76104320D01*
X138819573Y-76079505D01*
X138778885Y-76046115D01*
X138745495Y-76005427D01*
X138720680Y-75959001D01*
X138705401Y-75908634D01*
X138700000Y-75853796D01*
X138700000Y-75146204D01*
X138705401Y-75091366D01*
X138720680Y-75040999D01*
X138745495Y-74994573D01*
X138778885Y-74953885D01*
X138819573Y-74920495D01*
X138865999Y-74895680D01*
X138916366Y-74880401D01*
X138971204Y-74875000D01*
X139603796Y-74875000D01*
X139658634Y-74880401D01*
X139658634Y-74880401D01*
G37*
G36*
X147083634Y-74880401D02*
G01*
X147134001Y-74895680D01*
X147180427Y-74920495D01*
X147221115Y-74953885D01*
X147254505Y-74994573D01*
X147279320Y-75040999D01*
X147294599Y-75091366D01*
X147300000Y-75146204D01*
X147300000Y-75853796D01*
X147294599Y-75908634D01*
X147279320Y-75959001D01*
X147254505Y-76005427D01*
X147221115Y-76046115D01*
X147180427Y-76079505D01*
X147134001Y-76104320D01*
X147083634Y-76119599D01*
X147028796Y-76125000D01*
X146396204Y-76125000D01*
X146341366Y-76119599D01*
X146290999Y-76104320D01*
X146244573Y-76079505D01*
X146203885Y-76046115D01*
X146170495Y-76005427D01*
X146145680Y-75959001D01*
X146130401Y-75908634D01*
X146125000Y-75853796D01*
X146125000Y-75146204D01*
X146130401Y-75091366D01*
X146145680Y-75040999D01*
X146170495Y-74994573D01*
X146203885Y-74953885D01*
X146244573Y-74920495D01*
X146290999Y-74895680D01*
X146341366Y-74880401D01*
X146396204Y-74875000D01*
X147028796Y-74875000D01*
X147083634Y-74880401D01*
X147083634Y-74880401D01*
G37*
G36*
X148658634Y-74880401D02*
G01*
X148709001Y-74895680D01*
X148755427Y-74920495D01*
X148796115Y-74953885D01*
X148829505Y-74994573D01*
X148854320Y-75040999D01*
X148869599Y-75091366D01*
X148875000Y-75146204D01*
X148875000Y-75853796D01*
X148869599Y-75908634D01*
X148854320Y-75959001D01*
X148829505Y-76005427D01*
X148796115Y-76046115D01*
X148755427Y-76079505D01*
X148709001Y-76104320D01*
X148658634Y-76119599D01*
X148603796Y-76125000D01*
X147971204Y-76125000D01*
X147916366Y-76119599D01*
X147865999Y-76104320D01*
X147819573Y-76079505D01*
X147778885Y-76046115D01*
X147745495Y-76005427D01*
X147720680Y-75959001D01*
X147705401Y-75908634D01*
X147700000Y-75853796D01*
X147700000Y-75146204D01*
X147705401Y-75091366D01*
X147720680Y-75040999D01*
X147745495Y-74994573D01*
X147778885Y-74953885D01*
X147819573Y-74920495D01*
X147865999Y-74895680D01*
X147916366Y-74880401D01*
X147971204Y-74875000D01*
X148603796Y-74875000D01*
X148658634Y-74880401D01*
X148658634Y-74880401D01*
G37*
G36*
X167908634Y-74630401D02*
G01*
X167959001Y-74645680D01*
X168005427Y-74670495D01*
X168046115Y-74703885D01*
X168079505Y-74744573D01*
X168104320Y-74790999D01*
X168119599Y-74841366D01*
X168125000Y-74896204D01*
X168125000Y-75528796D01*
X168119599Y-75583634D01*
X168104320Y-75634001D01*
X168079505Y-75680427D01*
X168046115Y-75721115D01*
X168005427Y-75754505D01*
X167959001Y-75779320D01*
X167908634Y-75794599D01*
X167853796Y-75800000D01*
X167146204Y-75800000D01*
X167091366Y-75794599D01*
X167040999Y-75779320D01*
X166994573Y-75754505D01*
X166953885Y-75721115D01*
X166920495Y-75680427D01*
X166895680Y-75634001D01*
X166880401Y-75583634D01*
X166875000Y-75528796D01*
X166875000Y-74896204D01*
X166880401Y-74841366D01*
X166895680Y-74790999D01*
X166920495Y-74744573D01*
X166953885Y-74703885D01*
X166994573Y-74670495D01*
X167040999Y-74645680D01*
X167091366Y-74630401D01*
X167146204Y-74625000D01*
X167853796Y-74625000D01*
X167908634Y-74630401D01*
X167908634Y-74630401D01*
G37*
G36*
X116080000Y-74960000D02*
G01*
X114080000Y-74960000D01*
X114080000Y-72960000D01*
X116080000Y-72960000D01*
X116080000Y-74960000D01*
X116080000Y-74960000D01*
G37*
G36*
X163536034Y-71704469D02*
G01*
X163724536Y-71761651D01*
X163898256Y-71854506D01*
X164050528Y-71979472D01*
X164175494Y-72131744D01*
X164268349Y-72305464D01*
X164325531Y-72493966D01*
X164344838Y-72690000D01*
X164325531Y-72886034D01*
X164268349Y-73074536D01*
X164175494Y-73248256D01*
X164050528Y-73400528D01*
X163898256Y-73525494D01*
X163724536Y-73618349D01*
X163536034Y-73675531D01*
X163389124Y-73690000D01*
X163290876Y-73690000D01*
X163143966Y-73675531D01*
X162955464Y-73618349D01*
X162781744Y-73525494D01*
X162629472Y-73400528D01*
X162504506Y-73248256D01*
X162411651Y-73074536D01*
X162354469Y-72886034D01*
X162335162Y-72690000D01*
X162354469Y-72493966D01*
X162411651Y-72305464D01*
X162504506Y-72131744D01*
X162629472Y-71979472D01*
X162781744Y-71854506D01*
X162955464Y-71761651D01*
X163143966Y-71704469D01*
X163290876Y-71690000D01*
X163389124Y-71690000D01*
X163536034Y-71704469D01*
X163536034Y-71704469D01*
G37*
G36*
X158658634Y-70130401D02*
G01*
X158709001Y-70145680D01*
X158755427Y-70170495D01*
X158796115Y-70203885D01*
X158829505Y-70244573D01*
X158854320Y-70290999D01*
X158869599Y-70341366D01*
X158875000Y-70396204D01*
X158875000Y-71103796D01*
X158869599Y-71158634D01*
X158854320Y-71209001D01*
X158829505Y-71255427D01*
X158796115Y-71296115D01*
X158755427Y-71329505D01*
X158709001Y-71354320D01*
X158658634Y-71369599D01*
X158603796Y-71375000D01*
X157971204Y-71375000D01*
X157916366Y-71369599D01*
X157865999Y-71354320D01*
X157819573Y-71329505D01*
X157778885Y-71296115D01*
X157745495Y-71255427D01*
X157720680Y-71209001D01*
X157705401Y-71158634D01*
X157700000Y-71103796D01*
X157700000Y-70396204D01*
X157705401Y-70341366D01*
X157720680Y-70290999D01*
X157745495Y-70244573D01*
X157778885Y-70203885D01*
X157819573Y-70170495D01*
X157865999Y-70145680D01*
X157916366Y-70130401D01*
X157971204Y-70125000D01*
X158603796Y-70125000D01*
X158658634Y-70130401D01*
X158658634Y-70130401D01*
G37*
G36*
X153658634Y-70130401D02*
G01*
X153709001Y-70145680D01*
X153755427Y-70170495D01*
X153796115Y-70203885D01*
X153829505Y-70244573D01*
X153854320Y-70290999D01*
X153869599Y-70341366D01*
X153875000Y-70396204D01*
X153875000Y-71103796D01*
X153869599Y-71158634D01*
X153854320Y-71209001D01*
X153829505Y-71255427D01*
X153796115Y-71296115D01*
X153755427Y-71329505D01*
X153709001Y-71354320D01*
X153658634Y-71369599D01*
X153603796Y-71375000D01*
X152971204Y-71375000D01*
X152916366Y-71369599D01*
X152865999Y-71354320D01*
X152819573Y-71329505D01*
X152778885Y-71296115D01*
X152745495Y-71255427D01*
X152720680Y-71209001D01*
X152705401Y-71158634D01*
X152700000Y-71103796D01*
X152700000Y-70396204D01*
X152705401Y-70341366D01*
X152720680Y-70290999D01*
X152745495Y-70244573D01*
X152778885Y-70203885D01*
X152819573Y-70170495D01*
X152865999Y-70145680D01*
X152916366Y-70130401D01*
X152971204Y-70125000D01*
X153603796Y-70125000D01*
X153658634Y-70130401D01*
X153658634Y-70130401D01*
G37*
G36*
X152083634Y-70130401D02*
G01*
X152134001Y-70145680D01*
X152180427Y-70170495D01*
X152221115Y-70203885D01*
X152254505Y-70244573D01*
X152279320Y-70290999D01*
X152294599Y-70341366D01*
X152300000Y-70396204D01*
X152300000Y-71103796D01*
X152294599Y-71158634D01*
X152279320Y-71209001D01*
X152254505Y-71255427D01*
X152221115Y-71296115D01*
X152180427Y-71329505D01*
X152134001Y-71354320D01*
X152083634Y-71369599D01*
X152028796Y-71375000D01*
X151396204Y-71375000D01*
X151341366Y-71369599D01*
X151290999Y-71354320D01*
X151244573Y-71329505D01*
X151203885Y-71296115D01*
X151170495Y-71255427D01*
X151145680Y-71209001D01*
X151130401Y-71158634D01*
X151125000Y-71103796D01*
X151125000Y-70396204D01*
X151130401Y-70341366D01*
X151145680Y-70290999D01*
X151170495Y-70244573D01*
X151203885Y-70203885D01*
X151244573Y-70170495D01*
X151290999Y-70145680D01*
X151341366Y-70130401D01*
X151396204Y-70125000D01*
X152028796Y-70125000D01*
X152083634Y-70130401D01*
X152083634Y-70130401D01*
G37*
G36*
X157083634Y-70130401D02*
G01*
X157134001Y-70145680D01*
X157180427Y-70170495D01*
X157221115Y-70203885D01*
X157254505Y-70244573D01*
X157279320Y-70290999D01*
X157294599Y-70341366D01*
X157300000Y-70396204D01*
X157300000Y-71103796D01*
X157294599Y-71158634D01*
X157279320Y-71209001D01*
X157254505Y-71255427D01*
X157221115Y-71296115D01*
X157180427Y-71329505D01*
X157134001Y-71354320D01*
X157083634Y-71369599D01*
X157028796Y-71375000D01*
X156396204Y-71375000D01*
X156341366Y-71369599D01*
X156290999Y-71354320D01*
X156244573Y-71329505D01*
X156203885Y-71296115D01*
X156170495Y-71255427D01*
X156145680Y-71209001D01*
X156130401Y-71158634D01*
X156125000Y-71103796D01*
X156125000Y-70396204D01*
X156130401Y-70341366D01*
X156145680Y-70290999D01*
X156170495Y-70244573D01*
X156203885Y-70203885D01*
X156244573Y-70170495D01*
X156290999Y-70145680D01*
X156341366Y-70130401D01*
X156396204Y-70125000D01*
X157028796Y-70125000D01*
X157083634Y-70130401D01*
X157083634Y-70130401D01*
G37*
G36*
X163536034Y-69164469D02*
G01*
X163724536Y-69221651D01*
X163898256Y-69314506D01*
X164050528Y-69439472D01*
X164175494Y-69591744D01*
X164268349Y-69765464D01*
X164325531Y-69953966D01*
X164344838Y-70150000D01*
X164325531Y-70346034D01*
X164268349Y-70534536D01*
X164175494Y-70708256D01*
X164050528Y-70860528D01*
X163898256Y-70985494D01*
X163724536Y-71078349D01*
X163536034Y-71135531D01*
X163389124Y-71150000D01*
X163290876Y-71150000D01*
X163143966Y-71135531D01*
X162955464Y-71078349D01*
X162781744Y-70985494D01*
X162629472Y-70860528D01*
X162504506Y-70708256D01*
X162411651Y-70534536D01*
X162354469Y-70346034D01*
X162335162Y-70150000D01*
X162354469Y-69953966D01*
X162411651Y-69765464D01*
X162504506Y-69591744D01*
X162629472Y-69439472D01*
X162781744Y-69314506D01*
X162955464Y-69221651D01*
X163143966Y-69164469D01*
X163290876Y-69150000D01*
X163389124Y-69150000D01*
X163536034Y-69164469D01*
X163536034Y-69164469D01*
G37*
G36*
X147158634Y-69205401D02*
G01*
X147209001Y-69220680D01*
X147255427Y-69245495D01*
X147296115Y-69278885D01*
X147329505Y-69319573D01*
X147354320Y-69365999D01*
X147369599Y-69416366D01*
X147375000Y-69471204D01*
X147375000Y-70103796D01*
X147369599Y-70158634D01*
X147354320Y-70209001D01*
X147329505Y-70255427D01*
X147296115Y-70296115D01*
X147255427Y-70329505D01*
X147209001Y-70354320D01*
X147158634Y-70369599D01*
X147103796Y-70375000D01*
X146396204Y-70375000D01*
X146341366Y-70369599D01*
X146290999Y-70354320D01*
X146244573Y-70329505D01*
X146203885Y-70296115D01*
X146170495Y-70255427D01*
X146145680Y-70209001D01*
X146130401Y-70158634D01*
X146125000Y-70103796D01*
X146125000Y-69471204D01*
X146130401Y-69416366D01*
X146145680Y-69365999D01*
X146170495Y-69319573D01*
X146203885Y-69278885D01*
X146244573Y-69245495D01*
X146290999Y-69220680D01*
X146341366Y-69205401D01*
X146396204Y-69200000D01*
X147103796Y-69200000D01*
X147158634Y-69205401D01*
X147158634Y-69205401D01*
G37*
G36*
X147158634Y-67630401D02*
G01*
X147209001Y-67645680D01*
X147255427Y-67670495D01*
X147296115Y-67703885D01*
X147329505Y-67744573D01*
X147354320Y-67790999D01*
X147369599Y-67841366D01*
X147375000Y-67896204D01*
X147375000Y-68528796D01*
X147369599Y-68583634D01*
X147354320Y-68634001D01*
X147329505Y-68680427D01*
X147296115Y-68721115D01*
X147255427Y-68754505D01*
X147209001Y-68779320D01*
X147158634Y-68794599D01*
X147103796Y-68800000D01*
X146396204Y-68800000D01*
X146341366Y-68794599D01*
X146290999Y-68779320D01*
X146244573Y-68754505D01*
X146203885Y-68721115D01*
X146170495Y-68680427D01*
X146145680Y-68634001D01*
X146130401Y-68583634D01*
X146125000Y-68528796D01*
X146125000Y-67896204D01*
X146130401Y-67841366D01*
X146145680Y-67790999D01*
X146170495Y-67744573D01*
X146203885Y-67703885D01*
X146244573Y-67670495D01*
X146290999Y-67645680D01*
X146341366Y-67630401D01*
X146396204Y-67625000D01*
X147103796Y-67625000D01*
X147158634Y-67630401D01*
X147158634Y-67630401D01*
G37*
G36*
X163536034Y-66624469D02*
G01*
X163724536Y-66681651D01*
X163898256Y-66774506D01*
X164050528Y-66899472D01*
X164175494Y-67051744D01*
X164268349Y-67225464D01*
X164325531Y-67413966D01*
X164344838Y-67610000D01*
X164325531Y-67806034D01*
X164268349Y-67994536D01*
X164175494Y-68168256D01*
X164050528Y-68320528D01*
X163898256Y-68445494D01*
X163724536Y-68538349D01*
X163536034Y-68595531D01*
X163389124Y-68610000D01*
X163290876Y-68610000D01*
X163143966Y-68595531D01*
X162955464Y-68538349D01*
X162781744Y-68445494D01*
X162629472Y-68320528D01*
X162504506Y-68168256D01*
X162411651Y-67994536D01*
X162354469Y-67806034D01*
X162335162Y-67610000D01*
X162354469Y-67413966D01*
X162411651Y-67225464D01*
X162504506Y-67051744D01*
X162629472Y-66899472D01*
X162781744Y-66774506D01*
X162955464Y-66681651D01*
X163143966Y-66624469D01*
X163290876Y-66610000D01*
X163389124Y-66610000D01*
X163536034Y-66624469D01*
X163536034Y-66624469D01*
G37*
G36*
X164340000Y-66070000D02*
G01*
X162340000Y-66070000D01*
X162340000Y-64070000D01*
X164340000Y-64070000D01*
X164340000Y-66070000D01*
X164340000Y-66070000D01*
G37*
G36*
X169736034Y-64014469D02*
G01*
X169924536Y-64071651D01*
X170098256Y-64164506D01*
X170250528Y-64289472D01*
X170375494Y-64441744D01*
X170468349Y-64615464D01*
X170525531Y-64803966D01*
X170544838Y-65000000D01*
X170525531Y-65196034D01*
X170468349Y-65384536D01*
X170375494Y-65558256D01*
X170250528Y-65710528D01*
X170098256Y-65835494D01*
X169924536Y-65928349D01*
X169736034Y-65985531D01*
X169589124Y-66000000D01*
X169490876Y-66000000D01*
X169343966Y-65985531D01*
X169155464Y-65928349D01*
X168981744Y-65835494D01*
X168829472Y-65710528D01*
X168704506Y-65558256D01*
X168611651Y-65384536D01*
X168554469Y-65196034D01*
X168535162Y-65000000D01*
X168554469Y-64803966D01*
X168611651Y-64615464D01*
X168704506Y-64441744D01*
X168829472Y-64289472D01*
X168981744Y-64164506D01*
X169155464Y-64071651D01*
X169343966Y-64014469D01*
X169490876Y-64000000D01*
X169589124Y-64000000D01*
X169736034Y-64014469D01*
X169736034Y-64014469D01*
G37*
G36*
X168000000Y-66000000D02*
G01*
X166000000Y-66000000D01*
X166000000Y-64000000D01*
X168000000Y-64000000D01*
X168000000Y-66000000D01*
X168000000Y-66000000D01*
G37*
G36*
X169736034Y-61474469D02*
G01*
X169924536Y-61531651D01*
X170098256Y-61624506D01*
X170250528Y-61749472D01*
X170375494Y-61901744D01*
X170468349Y-62075464D01*
X170525531Y-62263966D01*
X170544838Y-62460000D01*
X170525531Y-62656034D01*
X170468349Y-62844536D01*
X170375494Y-63018256D01*
X170250528Y-63170528D01*
X170098256Y-63295494D01*
X169924536Y-63388349D01*
X169736034Y-63445531D01*
X169589124Y-63460000D01*
X169490876Y-63460000D01*
X169343966Y-63445531D01*
X169155464Y-63388349D01*
X168981744Y-63295494D01*
X168829472Y-63170528D01*
X168704506Y-63018256D01*
X168611651Y-62844536D01*
X168554469Y-62656034D01*
X168535162Y-62460000D01*
X168554469Y-62263966D01*
X168611651Y-62075464D01*
X168704506Y-61901744D01*
X168829472Y-61749472D01*
X168981744Y-61624506D01*
X169155464Y-61531651D01*
X169343966Y-61474469D01*
X169490876Y-61460000D01*
X169589124Y-61460000D01*
X169736034Y-61474469D01*
X169736034Y-61474469D01*
G37*
G36*
X167196034Y-61474469D02*
G01*
X167384536Y-61531651D01*
X167558256Y-61624506D01*
X167710528Y-61749472D01*
X167835494Y-61901744D01*
X167928349Y-62075464D01*
X167985531Y-62263966D01*
X168004838Y-62460000D01*
X167985531Y-62656034D01*
X167928349Y-62844536D01*
X167835494Y-63018256D01*
X167710528Y-63170528D01*
X167558256Y-63295494D01*
X167384536Y-63388349D01*
X167196034Y-63445531D01*
X167049124Y-63460000D01*
X166950876Y-63460000D01*
X166803966Y-63445531D01*
X166615464Y-63388349D01*
X166441744Y-63295494D01*
X166289472Y-63170528D01*
X166164506Y-63018256D01*
X166071651Y-62844536D01*
X166014469Y-62656034D01*
X165995162Y-62460000D01*
X166014469Y-62263966D01*
X166071651Y-62075464D01*
X166164506Y-61901744D01*
X166289472Y-61749472D01*
X166441744Y-61624506D01*
X166615464Y-61531651D01*
X166803966Y-61474469D01*
X166950876Y-61460000D01*
X167049124Y-61460000D01*
X167196034Y-61474469D01*
X167196034Y-61474469D01*
G37*
G36*
X145083634Y-61880401D02*
G01*
X145134001Y-61895680D01*
X145180427Y-61920495D01*
X145221115Y-61953885D01*
X145254505Y-61994573D01*
X145279320Y-62040999D01*
X145294599Y-62091366D01*
X145300000Y-62146204D01*
X145300000Y-62853796D01*
X145294599Y-62908634D01*
X145279320Y-62959001D01*
X145254505Y-63005427D01*
X145221115Y-63046115D01*
X145180427Y-63079505D01*
X145134001Y-63104320D01*
X145083634Y-63119599D01*
X145028796Y-63125000D01*
X144396204Y-63125000D01*
X144341366Y-63119599D01*
X144290999Y-63104320D01*
X144244573Y-63079505D01*
X144203885Y-63046115D01*
X144170495Y-63005427D01*
X144145680Y-62959001D01*
X144130401Y-62908634D01*
X144125000Y-62853796D01*
X144125000Y-62146204D01*
X144130401Y-62091366D01*
X144145680Y-62040999D01*
X144170495Y-61994573D01*
X144203885Y-61953885D01*
X144244573Y-61920495D01*
X144290999Y-61895680D01*
X144341366Y-61880401D01*
X144396204Y-61875000D01*
X145028796Y-61875000D01*
X145083634Y-61880401D01*
X145083634Y-61880401D01*
G37*
G36*
X140833634Y-61880401D02*
G01*
X140884001Y-61895680D01*
X140930427Y-61920495D01*
X140971115Y-61953885D01*
X141004505Y-61994573D01*
X141029320Y-62040999D01*
X141044599Y-62091366D01*
X141050000Y-62146204D01*
X141050000Y-62853796D01*
X141044599Y-62908634D01*
X141029320Y-62959001D01*
X141004505Y-63005427D01*
X140971115Y-63046115D01*
X140930427Y-63079505D01*
X140884001Y-63104320D01*
X140833634Y-63119599D01*
X140778796Y-63125000D01*
X140146204Y-63125000D01*
X140091366Y-63119599D01*
X140040999Y-63104320D01*
X139994573Y-63079505D01*
X139953885Y-63046115D01*
X139920495Y-63005427D01*
X139895680Y-62959001D01*
X139880401Y-62908634D01*
X139875000Y-62853796D01*
X139875000Y-62146204D01*
X139880401Y-62091366D01*
X139895680Y-62040999D01*
X139920495Y-61994573D01*
X139953885Y-61953885D01*
X139994573Y-61920495D01*
X140040999Y-61895680D01*
X140091366Y-61880401D01*
X140146204Y-61875000D01*
X140778796Y-61875000D01*
X140833634Y-61880401D01*
X140833634Y-61880401D01*
G37*
G36*
X142408634Y-61880401D02*
G01*
X142459001Y-61895680D01*
X142505427Y-61920495D01*
X142546115Y-61953885D01*
X142579505Y-61994573D01*
X142604320Y-62040999D01*
X142619599Y-62091366D01*
X142625000Y-62146204D01*
X142625000Y-62853796D01*
X142619599Y-62908634D01*
X142604320Y-62959001D01*
X142579505Y-63005427D01*
X142546115Y-63046115D01*
X142505427Y-63079505D01*
X142459001Y-63104320D01*
X142408634Y-63119599D01*
X142353796Y-63125000D01*
X141721204Y-63125000D01*
X141666366Y-63119599D01*
X141615999Y-63104320D01*
X141569573Y-63079505D01*
X141528885Y-63046115D01*
X141495495Y-63005427D01*
X141470680Y-62959001D01*
X141455401Y-62908634D01*
X141450000Y-62853796D01*
X141450000Y-62146204D01*
X141455401Y-62091366D01*
X141470680Y-62040999D01*
X141495495Y-61994573D01*
X141528885Y-61953885D01*
X141569573Y-61920495D01*
X141615999Y-61895680D01*
X141666366Y-61880401D01*
X141721204Y-61875000D01*
X142353796Y-61875000D01*
X142408634Y-61880401D01*
X142408634Y-61880401D01*
G37*
G36*
X146658634Y-61880401D02*
G01*
X146709001Y-61895680D01*
X146755427Y-61920495D01*
X146796115Y-61953885D01*
X146829505Y-61994573D01*
X146854320Y-62040999D01*
X146869599Y-62091366D01*
X146875000Y-62146204D01*
X146875000Y-62853796D01*
X146869599Y-62908634D01*
X146854320Y-62959001D01*
X146829505Y-63005427D01*
X146796115Y-63046115D01*
X146755427Y-63079505D01*
X146709001Y-63104320D01*
X146658634Y-63119599D01*
X146603796Y-63125000D01*
X145971204Y-63125000D01*
X145916366Y-63119599D01*
X145865999Y-63104320D01*
X145819573Y-63079505D01*
X145778885Y-63046115D01*
X145745495Y-63005427D01*
X145720680Y-62959001D01*
X145705401Y-62908634D01*
X145700000Y-62853796D01*
X145700000Y-62146204D01*
X145705401Y-62091366D01*
X145720680Y-62040999D01*
X145745495Y-61994573D01*
X145778885Y-61953885D01*
X145819573Y-61920495D01*
X145865999Y-61895680D01*
X145916366Y-61880401D01*
X145971204Y-61875000D01*
X146603796Y-61875000D01*
X146658634Y-61880401D01*
X146658634Y-61880401D01*
G37*
G36*
X167196034Y-58934469D02*
G01*
X167384536Y-58991651D01*
X167558256Y-59084506D01*
X167710528Y-59209472D01*
X167835494Y-59361744D01*
X167928349Y-59535464D01*
X167985531Y-59723966D01*
X168004838Y-59920000D01*
X167985531Y-60116034D01*
X167928349Y-60304536D01*
X167835494Y-60478256D01*
X167710528Y-60630528D01*
X167558256Y-60755494D01*
X167384536Y-60848349D01*
X167196034Y-60905531D01*
X167049124Y-60920000D01*
X166950876Y-60920000D01*
X166803966Y-60905531D01*
X166615464Y-60848349D01*
X166441744Y-60755494D01*
X166289472Y-60630528D01*
X166164506Y-60478256D01*
X166071651Y-60304536D01*
X166014469Y-60116034D01*
X165995162Y-59920000D01*
X166014469Y-59723966D01*
X166071651Y-59535464D01*
X166164506Y-59361744D01*
X166289472Y-59209472D01*
X166441744Y-59084506D01*
X166615464Y-58991651D01*
X166803966Y-58934469D01*
X166950876Y-58920000D01*
X167049124Y-58920000D01*
X167196034Y-58934469D01*
X167196034Y-58934469D01*
G37*
G36*
X169736034Y-58934469D02*
G01*
X169924536Y-58991651D01*
X170098256Y-59084506D01*
X170250528Y-59209472D01*
X170375494Y-59361744D01*
X170468349Y-59535464D01*
X170525531Y-59723966D01*
X170544838Y-59920000D01*
X170525531Y-60116034D01*
X170468349Y-60304536D01*
X170375494Y-60478256D01*
X170250528Y-60630528D01*
X170098256Y-60755494D01*
X169924536Y-60848349D01*
X169736034Y-60905531D01*
X169589124Y-60920000D01*
X169490876Y-60920000D01*
X169343966Y-60905531D01*
X169155464Y-60848349D01*
X168981744Y-60755494D01*
X168829472Y-60630528D01*
X168704506Y-60478256D01*
X168611651Y-60304536D01*
X168554469Y-60116034D01*
X168535162Y-59920000D01*
X168554469Y-59723966D01*
X168611651Y-59535464D01*
X168704506Y-59361744D01*
X168829472Y-59209472D01*
X168981744Y-59084506D01*
X169155464Y-58991651D01*
X169343966Y-58934469D01*
X169490876Y-58920000D01*
X169589124Y-58920000D01*
X169736034Y-58934469D01*
X169736034Y-58934469D01*
G37*
G36*
X169736034Y-56394469D02*
G01*
X169924536Y-56451651D01*
X170098256Y-56544506D01*
X170250528Y-56669472D01*
X170375494Y-56821744D01*
X170468349Y-56995464D01*
X170525531Y-57183966D01*
X170544838Y-57380000D01*
X170525531Y-57576034D01*
X170468349Y-57764536D01*
X170375494Y-57938256D01*
X170250528Y-58090528D01*
X170098256Y-58215494D01*
X169924536Y-58308349D01*
X169736034Y-58365531D01*
X169589124Y-58380000D01*
X169490876Y-58380000D01*
X169343966Y-58365531D01*
X169155464Y-58308349D01*
X168981744Y-58215494D01*
X168829472Y-58090528D01*
X168704506Y-57938256D01*
X168611651Y-57764536D01*
X168554469Y-57576034D01*
X168535162Y-57380000D01*
X168554469Y-57183966D01*
X168611651Y-56995464D01*
X168704506Y-56821744D01*
X168829472Y-56669472D01*
X168981744Y-56544506D01*
X169155464Y-56451651D01*
X169343966Y-56394469D01*
X169490876Y-56380000D01*
X169589124Y-56380000D01*
X169736034Y-56394469D01*
X169736034Y-56394469D01*
G37*
G36*
X167196034Y-56394469D02*
G01*
X167384536Y-56451651D01*
X167558256Y-56544506D01*
X167710528Y-56669472D01*
X167835494Y-56821744D01*
X167928349Y-56995464D01*
X167985531Y-57183966D01*
X168004838Y-57380000D01*
X167985531Y-57576034D01*
X167928349Y-57764536D01*
X167835494Y-57938256D01*
X167710528Y-58090528D01*
X167558256Y-58215494D01*
X167384536Y-58308349D01*
X167196034Y-58365531D01*
X167049124Y-58380000D01*
X166950876Y-58380000D01*
X166803966Y-58365531D01*
X166615464Y-58308349D01*
X166441744Y-58215494D01*
X166289472Y-58090528D01*
X166164506Y-57938256D01*
X166071651Y-57764536D01*
X166014469Y-57576034D01*
X165995162Y-57380000D01*
X166014469Y-57183966D01*
X166071651Y-56995464D01*
X166164506Y-56821744D01*
X166289472Y-56669472D01*
X166441744Y-56544506D01*
X166615464Y-56451651D01*
X166803966Y-56394469D01*
X166950876Y-56380000D01*
X167049124Y-56380000D01*
X167196034Y-56394469D01*
X167196034Y-56394469D01*
G37*
G36*
X141833634Y-55880401D02*
G01*
X141884001Y-55895680D01*
X141930427Y-55920495D01*
X141971115Y-55953885D01*
X142004505Y-55994573D01*
X142029320Y-56040999D01*
X142044599Y-56091366D01*
X142050000Y-56146204D01*
X142050000Y-56853796D01*
X142044599Y-56908634D01*
X142029320Y-56959001D01*
X142004505Y-57005427D01*
X141971115Y-57046115D01*
X141930427Y-57079505D01*
X141884001Y-57104320D01*
X141833634Y-57119599D01*
X141778796Y-57125000D01*
X141146204Y-57125000D01*
X141091366Y-57119599D01*
X141040999Y-57104320D01*
X140994573Y-57079505D01*
X140953885Y-57046115D01*
X140920495Y-57005427D01*
X140895680Y-56959001D01*
X140880401Y-56908634D01*
X140875000Y-56853796D01*
X140875000Y-56146204D01*
X140880401Y-56091366D01*
X140895680Y-56040999D01*
X140920495Y-55994573D01*
X140953885Y-55953885D01*
X140994573Y-55920495D01*
X141040999Y-55895680D01*
X141091366Y-55880401D01*
X141146204Y-55875000D01*
X141778796Y-55875000D01*
X141833634Y-55880401D01*
X141833634Y-55880401D01*
G37*
G36*
X143408634Y-55880401D02*
G01*
X143459001Y-55895680D01*
X143505427Y-55920495D01*
X143546115Y-55953885D01*
X143579505Y-55994573D01*
X143604320Y-56040999D01*
X143619599Y-56091366D01*
X143625000Y-56146204D01*
X143625000Y-56853796D01*
X143619599Y-56908634D01*
X143604320Y-56959001D01*
X143579505Y-57005427D01*
X143546115Y-57046115D01*
X143505427Y-57079505D01*
X143459001Y-57104320D01*
X143408634Y-57119599D01*
X143353796Y-57125000D01*
X142721204Y-57125000D01*
X142666366Y-57119599D01*
X142615999Y-57104320D01*
X142569573Y-57079505D01*
X142528885Y-57046115D01*
X142495495Y-57005427D01*
X142470680Y-56959001D01*
X142455401Y-56908634D01*
X142450000Y-56853796D01*
X142450000Y-56146204D01*
X142455401Y-56091366D01*
X142470680Y-56040999D01*
X142495495Y-55994573D01*
X142528885Y-55953885D01*
X142569573Y-55920495D01*
X142615999Y-55895680D01*
X142666366Y-55880401D01*
X142721204Y-55875000D01*
X143353796Y-55875000D01*
X143408634Y-55880401D01*
X143408634Y-55880401D01*
G37*
G36*
X167196034Y-53854469D02*
G01*
X167384536Y-53911651D01*
X167558256Y-54004506D01*
X167710528Y-54129472D01*
X167835494Y-54281744D01*
X167928349Y-54455464D01*
X167985531Y-54643966D01*
X168004838Y-54840000D01*
X167985531Y-55036034D01*
X167928349Y-55224536D01*
X167835494Y-55398256D01*
X167710528Y-55550528D01*
X167558256Y-55675494D01*
X167384536Y-55768349D01*
X167196034Y-55825531D01*
X167049124Y-55840000D01*
X166950876Y-55840000D01*
X166803966Y-55825531D01*
X166615464Y-55768349D01*
X166441744Y-55675494D01*
X166289472Y-55550528D01*
X166164506Y-55398256D01*
X166071651Y-55224536D01*
X166014469Y-55036034D01*
X165995162Y-54840000D01*
X166014469Y-54643966D01*
X166071651Y-54455464D01*
X166164506Y-54281744D01*
X166289472Y-54129472D01*
X166441744Y-54004506D01*
X166615464Y-53911651D01*
X166803966Y-53854469D01*
X166950876Y-53840000D01*
X167049124Y-53840000D01*
X167196034Y-53854469D01*
X167196034Y-53854469D01*
G37*
G36*
X169736034Y-53854469D02*
G01*
X169924536Y-53911651D01*
X170098256Y-54004506D01*
X170250528Y-54129472D01*
X170375494Y-54281744D01*
X170468349Y-54455464D01*
X170525531Y-54643966D01*
X170544838Y-54840000D01*
X170525531Y-55036034D01*
X170468349Y-55224536D01*
X170375494Y-55398256D01*
X170250528Y-55550528D01*
X170098256Y-55675494D01*
X169924536Y-55768349D01*
X169736034Y-55825531D01*
X169589124Y-55840000D01*
X169490876Y-55840000D01*
X169343966Y-55825531D01*
X169155464Y-55768349D01*
X168981744Y-55675494D01*
X168829472Y-55550528D01*
X168704506Y-55398256D01*
X168611651Y-55224536D01*
X168554469Y-55036034D01*
X168535162Y-54840000D01*
X168554469Y-54643966D01*
X168611651Y-54455464D01*
X168704506Y-54281744D01*
X168829472Y-54129472D01*
X168981744Y-54004506D01*
X169155464Y-53911651D01*
X169343966Y-53854469D01*
X169490876Y-53840000D01*
X169589124Y-53840000D01*
X169736034Y-53854469D01*
X169736034Y-53854469D01*
G37*
G36*
X116808634Y-53830401D02*
G01*
X116859001Y-53845680D01*
X116905427Y-53870495D01*
X116946115Y-53903885D01*
X116979505Y-53944573D01*
X117004320Y-53990999D01*
X117019599Y-54041366D01*
X117025000Y-54096204D01*
X117025000Y-54803796D01*
X117019599Y-54858634D01*
X117004320Y-54909001D01*
X116979505Y-54955427D01*
X116946115Y-54996115D01*
X116905427Y-55029505D01*
X116859001Y-55054320D01*
X116808634Y-55069599D01*
X116753796Y-55075000D01*
X116121204Y-55075000D01*
X116066366Y-55069599D01*
X116015999Y-55054320D01*
X115969573Y-55029505D01*
X115928885Y-54996115D01*
X115895495Y-54955427D01*
X115870680Y-54909001D01*
X115855401Y-54858634D01*
X115850000Y-54803796D01*
X115850000Y-54096204D01*
X115855401Y-54041366D01*
X115870680Y-53990999D01*
X115895495Y-53944573D01*
X115928885Y-53903885D01*
X115969573Y-53870495D01*
X116015999Y-53845680D01*
X116066366Y-53830401D01*
X116121204Y-53825000D01*
X116753796Y-53825000D01*
X116808634Y-53830401D01*
X116808634Y-53830401D01*
G37*
G36*
X115233634Y-53830401D02*
G01*
X115284001Y-53845680D01*
X115330427Y-53870495D01*
X115371115Y-53903885D01*
X115404505Y-53944573D01*
X115429320Y-53990999D01*
X115444599Y-54041366D01*
X115450000Y-54096204D01*
X115450000Y-54803796D01*
X115444599Y-54858634D01*
X115429320Y-54909001D01*
X115404505Y-54955427D01*
X115371115Y-54996115D01*
X115330427Y-55029505D01*
X115284001Y-55054320D01*
X115233634Y-55069599D01*
X115178796Y-55075000D01*
X114546204Y-55075000D01*
X114491366Y-55069599D01*
X114440999Y-55054320D01*
X114394573Y-55029505D01*
X114353885Y-54996115D01*
X114320495Y-54955427D01*
X114295680Y-54909001D01*
X114280401Y-54858634D01*
X114275000Y-54803796D01*
X114275000Y-54096204D01*
X114280401Y-54041366D01*
X114295680Y-53990999D01*
X114320495Y-53944573D01*
X114353885Y-53903885D01*
X114394573Y-53870495D01*
X114440999Y-53845680D01*
X114491366Y-53830401D01*
X114546204Y-53825000D01*
X115178796Y-53825000D01*
X115233634Y-53830401D01*
X115233634Y-53830401D01*
G37*
G36*
X115113510Y-51855881D02*
G01*
X115168572Y-51872584D01*
X115219316Y-51899707D01*
X115263792Y-51936208D01*
X115300293Y-51980684D01*
X115327416Y-52031428D01*
X115344119Y-52086490D01*
X115350000Y-52146204D01*
X115350000Y-53253796D01*
X115344119Y-53313510D01*
X115327416Y-53368572D01*
X115300293Y-53419316D01*
X115263792Y-53463792D01*
X115219316Y-53500293D01*
X115168572Y-53527416D01*
X115113510Y-53544119D01*
X115053796Y-53550000D01*
X114371204Y-53550000D01*
X114311490Y-53544119D01*
X114256428Y-53527416D01*
X114205684Y-53500293D01*
X114161208Y-53463792D01*
X114124707Y-53419316D01*
X114097584Y-53368572D01*
X114080881Y-53313510D01*
X114075000Y-53253796D01*
X114075000Y-52146204D01*
X114080881Y-52086490D01*
X114097584Y-52031428D01*
X114124707Y-51980684D01*
X114161208Y-51936208D01*
X114205684Y-51899707D01*
X114256428Y-51872584D01*
X114311490Y-51855881D01*
X114371204Y-51850000D01*
X115053796Y-51850000D01*
X115113510Y-51855881D01*
X115113510Y-51855881D01*
G37*
G36*
X116988510Y-51855881D02*
G01*
X117043572Y-51872584D01*
X117094316Y-51899707D01*
X117138792Y-51936208D01*
X117175293Y-51980684D01*
X117202416Y-52031428D01*
X117219119Y-52086490D01*
X117225000Y-52146204D01*
X117225000Y-53253796D01*
X117219119Y-53313510D01*
X117202416Y-53368572D01*
X117175293Y-53419316D01*
X117138792Y-53463792D01*
X117094316Y-53500293D01*
X117043572Y-53527416D01*
X116988510Y-53544119D01*
X116928796Y-53550000D01*
X116246204Y-53550000D01*
X116186490Y-53544119D01*
X116131428Y-53527416D01*
X116080684Y-53500293D01*
X116036208Y-53463792D01*
X115999707Y-53419316D01*
X115972584Y-53368572D01*
X115955881Y-53313510D01*
X115950000Y-53253796D01*
X115950000Y-52146204D01*
X115955881Y-52086490D01*
X115972584Y-52031428D01*
X115999707Y-51980684D01*
X116036208Y-51936208D01*
X116080684Y-51899707D01*
X116131428Y-51872584D01*
X116186490Y-51855881D01*
X116246204Y-51850000D01*
X116928796Y-51850000D01*
X116988510Y-51855881D01*
X116988510Y-51855881D01*
G37*
G36*
X167196034Y-51314469D02*
G01*
X167384536Y-51371651D01*
X167558256Y-51464506D01*
X167710528Y-51589472D01*
X167835494Y-51741744D01*
X167928349Y-51915464D01*
X167985531Y-52103966D01*
X168004838Y-52300000D01*
X167985531Y-52496034D01*
X167928349Y-52684536D01*
X167835494Y-52858256D01*
X167710528Y-53010528D01*
X167558256Y-53135494D01*
X167384536Y-53228349D01*
X167196034Y-53285531D01*
X167049124Y-53300000D01*
X166950876Y-53300000D01*
X166803966Y-53285531D01*
X166615464Y-53228349D01*
X166441744Y-53135494D01*
X166289472Y-53010528D01*
X166164506Y-52858256D01*
X166071651Y-52684536D01*
X166014469Y-52496034D01*
X165995162Y-52300000D01*
X166014469Y-52103966D01*
X166071651Y-51915464D01*
X166164506Y-51741744D01*
X166289472Y-51589472D01*
X166441744Y-51464506D01*
X166615464Y-51371651D01*
X166803966Y-51314469D01*
X166950876Y-51300000D01*
X167049124Y-51300000D01*
X167196034Y-51314469D01*
X167196034Y-51314469D01*
G37*
G36*
X169736034Y-51314469D02*
G01*
X169924536Y-51371651D01*
X170098256Y-51464506D01*
X170250528Y-51589472D01*
X170375494Y-51741744D01*
X170468349Y-51915464D01*
X170525531Y-52103966D01*
X170544838Y-52300000D01*
X170525531Y-52496034D01*
X170468349Y-52684536D01*
X170375494Y-52858256D01*
X170250528Y-53010528D01*
X170098256Y-53135494D01*
X169924536Y-53228349D01*
X169736034Y-53285531D01*
X169589124Y-53300000D01*
X169490876Y-53300000D01*
X169343966Y-53285531D01*
X169155464Y-53228349D01*
X168981744Y-53135494D01*
X168829472Y-53010528D01*
X168704506Y-52858256D01*
X168611651Y-52684536D01*
X168554469Y-52496034D01*
X168535162Y-52300000D01*
X168554469Y-52103966D01*
X168611651Y-51915464D01*
X168704506Y-51741744D01*
X168829472Y-51589472D01*
X168981744Y-51464506D01*
X169155464Y-51371651D01*
X169343966Y-51314469D01*
X169490876Y-51300000D01*
X169589124Y-51300000D01*
X169736034Y-51314469D01*
X169736034Y-51314469D01*
G37*
G36*
X119013510Y-51755881D02*
G01*
X119068572Y-51772584D01*
X119119316Y-51799707D01*
X119163792Y-51836208D01*
X119200293Y-51880684D01*
X119227416Y-51931428D01*
X119244119Y-51986490D01*
X119250000Y-52046204D01*
X119250000Y-52728796D01*
X119244119Y-52788510D01*
X119227416Y-52843572D01*
X119200293Y-52894316D01*
X119163792Y-52938792D01*
X119119316Y-52975293D01*
X119068572Y-53002416D01*
X119013510Y-53019119D01*
X118953796Y-53025000D01*
X117846204Y-53025000D01*
X117786490Y-53019119D01*
X117731428Y-53002416D01*
X117680684Y-52975293D01*
X117636208Y-52938792D01*
X117599707Y-52894316D01*
X117572584Y-52843572D01*
X117555881Y-52788510D01*
X117550000Y-52728796D01*
X117550000Y-52046204D01*
X117555881Y-51986490D01*
X117572584Y-51931428D01*
X117599707Y-51880684D01*
X117636208Y-51836208D01*
X117680684Y-51799707D01*
X117731428Y-51772584D01*
X117786490Y-51755881D01*
X117846204Y-51750000D01*
X118953796Y-51750000D01*
X119013510Y-51755881D01*
X119013510Y-51755881D01*
G37*
G36*
X113513510Y-51755881D02*
G01*
X113568572Y-51772584D01*
X113619316Y-51799707D01*
X113663792Y-51836208D01*
X113700293Y-51880684D01*
X113727416Y-51931428D01*
X113744119Y-51986490D01*
X113750000Y-52046204D01*
X113750000Y-52728796D01*
X113744119Y-52788510D01*
X113727416Y-52843572D01*
X113700293Y-52894316D01*
X113663792Y-52938792D01*
X113619316Y-52975293D01*
X113568572Y-53002416D01*
X113513510Y-53019119D01*
X113453796Y-53025000D01*
X112346204Y-53025000D01*
X112286490Y-53019119D01*
X112231428Y-53002416D01*
X112180684Y-52975293D01*
X112136208Y-52938792D01*
X112099707Y-52894316D01*
X112072584Y-52843572D01*
X112055881Y-52788510D01*
X112050000Y-52728796D01*
X112050000Y-52046204D01*
X112055881Y-51986490D01*
X112072584Y-51931428D01*
X112099707Y-51880684D01*
X112136208Y-51836208D01*
X112180684Y-51799707D01*
X112231428Y-51772584D01*
X112286490Y-51755881D01*
X112346204Y-51750000D01*
X113453796Y-51750000D01*
X113513510Y-51755881D01*
X113513510Y-51755881D01*
G37*
G36*
X119013510Y-49880881D02*
G01*
X119068572Y-49897584D01*
X119119316Y-49924707D01*
X119163792Y-49961208D01*
X119200293Y-50005684D01*
X119227416Y-50056428D01*
X119244119Y-50111490D01*
X119250000Y-50171204D01*
X119250000Y-50853796D01*
X119244119Y-50913510D01*
X119227416Y-50968572D01*
X119200293Y-51019316D01*
X119163792Y-51063792D01*
X119119316Y-51100293D01*
X119068572Y-51127416D01*
X119013510Y-51144119D01*
X118953796Y-51150000D01*
X117846204Y-51150000D01*
X117786490Y-51144119D01*
X117731428Y-51127416D01*
X117680684Y-51100293D01*
X117636208Y-51063792D01*
X117599707Y-51019316D01*
X117572584Y-50968572D01*
X117555881Y-50913510D01*
X117550000Y-50853796D01*
X117550000Y-50171204D01*
X117555881Y-50111490D01*
X117572584Y-50056428D01*
X117599707Y-50005684D01*
X117636208Y-49961208D01*
X117680684Y-49924707D01*
X117731428Y-49897584D01*
X117786490Y-49880881D01*
X117846204Y-49875000D01*
X118953796Y-49875000D01*
X119013510Y-49880881D01*
X119013510Y-49880881D01*
G37*
G36*
X113513510Y-49880881D02*
G01*
X113568572Y-49897584D01*
X113619316Y-49924707D01*
X113663792Y-49961208D01*
X113700293Y-50005684D01*
X113727416Y-50056428D01*
X113744119Y-50111490D01*
X113750000Y-50171204D01*
X113750000Y-50853796D01*
X113744119Y-50913510D01*
X113727416Y-50968572D01*
X113700293Y-51019316D01*
X113663792Y-51063792D01*
X113619316Y-51100293D01*
X113568572Y-51127416D01*
X113513510Y-51144119D01*
X113453796Y-51150000D01*
X112346204Y-51150000D01*
X112286490Y-51144119D01*
X112231428Y-51127416D01*
X112180684Y-51100293D01*
X112136208Y-51063792D01*
X112099707Y-51019316D01*
X112072584Y-50968572D01*
X112055881Y-50913510D01*
X112050000Y-50853796D01*
X112050000Y-50171204D01*
X112055881Y-50111490D01*
X112072584Y-50056428D01*
X112099707Y-50005684D01*
X112136208Y-49961208D01*
X112180684Y-49924707D01*
X112231428Y-49897584D01*
X112286490Y-49880881D01*
X112346204Y-49875000D01*
X113453796Y-49875000D01*
X113513510Y-49880881D01*
X113513510Y-49880881D01*
G37*
G36*
X115233634Y-49830401D02*
G01*
X115284001Y-49845680D01*
X115330427Y-49870495D01*
X115371115Y-49903885D01*
X115404505Y-49944573D01*
X115429320Y-49990999D01*
X115444599Y-50041366D01*
X115450000Y-50096204D01*
X115450000Y-50803796D01*
X115444599Y-50858634D01*
X115429320Y-50909001D01*
X115404505Y-50955427D01*
X115371115Y-50996115D01*
X115330427Y-51029505D01*
X115284001Y-51054320D01*
X115233634Y-51069599D01*
X115178796Y-51075000D01*
X114546204Y-51075000D01*
X114491366Y-51069599D01*
X114440999Y-51054320D01*
X114394573Y-51029505D01*
X114353885Y-50996115D01*
X114320495Y-50955427D01*
X114295680Y-50909001D01*
X114280401Y-50858634D01*
X114275000Y-50803796D01*
X114275000Y-50096204D01*
X114280401Y-50041366D01*
X114295680Y-49990999D01*
X114320495Y-49944573D01*
X114353885Y-49903885D01*
X114394573Y-49870495D01*
X114440999Y-49845680D01*
X114491366Y-49830401D01*
X114546204Y-49825000D01*
X115178796Y-49825000D01*
X115233634Y-49830401D01*
X115233634Y-49830401D01*
G37*
G36*
X116808634Y-49830401D02*
G01*
X116859001Y-49845680D01*
X116905427Y-49870495D01*
X116946115Y-49903885D01*
X116979505Y-49944573D01*
X117004320Y-49990999D01*
X117019599Y-50041366D01*
X117025000Y-50096204D01*
X117025000Y-50803796D01*
X117019599Y-50858634D01*
X117004320Y-50909001D01*
X116979505Y-50955427D01*
X116946115Y-50996115D01*
X116905427Y-51029505D01*
X116859001Y-51054320D01*
X116808634Y-51069599D01*
X116753796Y-51075000D01*
X116121204Y-51075000D01*
X116066366Y-51069599D01*
X116015999Y-51054320D01*
X115969573Y-51029505D01*
X115928885Y-50996115D01*
X115895495Y-50955427D01*
X115870680Y-50909001D01*
X115855401Y-50858634D01*
X115850000Y-50803796D01*
X115850000Y-50096204D01*
X115855401Y-50041366D01*
X115870680Y-49990999D01*
X115895495Y-49944573D01*
X115928885Y-49903885D01*
X115969573Y-49870495D01*
X116015999Y-49845680D01*
X116066366Y-49830401D01*
X116121204Y-49825000D01*
X116753796Y-49825000D01*
X116808634Y-49830401D01*
X116808634Y-49830401D01*
G37*
G36*
X137196034Y-48554469D02*
G01*
X137384536Y-48611651D01*
X137558256Y-48704506D01*
X137710528Y-48829472D01*
X137835494Y-48981744D01*
X137928349Y-49155464D01*
X137985531Y-49343966D01*
X138004838Y-49540000D01*
X137985531Y-49736034D01*
X137928349Y-49924536D01*
X137835494Y-50098256D01*
X137710528Y-50250528D01*
X137558256Y-50375494D01*
X137384536Y-50468349D01*
X137196034Y-50525531D01*
X137049124Y-50540000D01*
X136950876Y-50540000D01*
X136803966Y-50525531D01*
X136615464Y-50468349D01*
X136441744Y-50375494D01*
X136289472Y-50250528D01*
X136164506Y-50098256D01*
X136071651Y-49924536D01*
X136014469Y-49736034D01*
X135995162Y-49540000D01*
X136014469Y-49343966D01*
X136071651Y-49155464D01*
X136164506Y-48981744D01*
X136289472Y-48829472D01*
X136441744Y-48704506D01*
X136615464Y-48611651D01*
X136803966Y-48554469D01*
X136950876Y-48540000D01*
X137049124Y-48540000D01*
X137196034Y-48554469D01*
X137196034Y-48554469D01*
G37*
G36*
X116808634Y-48330401D02*
G01*
X116859001Y-48345680D01*
X116905427Y-48370495D01*
X116946115Y-48403885D01*
X116979505Y-48444573D01*
X117004320Y-48490999D01*
X117019599Y-48541366D01*
X117025000Y-48596204D01*
X117025000Y-49303796D01*
X117019599Y-49358634D01*
X117004320Y-49409001D01*
X116979505Y-49455427D01*
X116946115Y-49496115D01*
X116905427Y-49529505D01*
X116859001Y-49554320D01*
X116808634Y-49569599D01*
X116753796Y-49575000D01*
X116121204Y-49575000D01*
X116066366Y-49569599D01*
X116015999Y-49554320D01*
X115969573Y-49529505D01*
X115928885Y-49496115D01*
X115895495Y-49455427D01*
X115870680Y-49409001D01*
X115855401Y-49358634D01*
X115850000Y-49303796D01*
X115850000Y-48596204D01*
X115855401Y-48541366D01*
X115870680Y-48490999D01*
X115895495Y-48444573D01*
X115928885Y-48403885D01*
X115969573Y-48370495D01*
X116015999Y-48345680D01*
X116066366Y-48330401D01*
X116121204Y-48325000D01*
X116753796Y-48325000D01*
X116808634Y-48330401D01*
X116808634Y-48330401D01*
G37*
G36*
X115233634Y-48330401D02*
G01*
X115284001Y-48345680D01*
X115330427Y-48370495D01*
X115371115Y-48403885D01*
X115404505Y-48444573D01*
X115429320Y-48490999D01*
X115444599Y-48541366D01*
X115450000Y-48596204D01*
X115450000Y-49303796D01*
X115444599Y-49358634D01*
X115429320Y-49409001D01*
X115404505Y-49455427D01*
X115371115Y-49496115D01*
X115330427Y-49529505D01*
X115284001Y-49554320D01*
X115233634Y-49569599D01*
X115178796Y-49575000D01*
X114546204Y-49575000D01*
X114491366Y-49569599D01*
X114440999Y-49554320D01*
X114394573Y-49529505D01*
X114353885Y-49496115D01*
X114320495Y-49455427D01*
X114295680Y-49409001D01*
X114280401Y-49358634D01*
X114275000Y-49303796D01*
X114275000Y-48596204D01*
X114280401Y-48541366D01*
X114295680Y-48490999D01*
X114320495Y-48444573D01*
X114353885Y-48403885D01*
X114394573Y-48370495D01*
X114440999Y-48345680D01*
X114491366Y-48330401D01*
X114546204Y-48325000D01*
X115178796Y-48325000D01*
X115233634Y-48330401D01*
X115233634Y-48330401D01*
G37*
G36*
X138000000Y-48000000D02*
G01*
X136000000Y-48000000D01*
X136000000Y-46000000D01*
X138000000Y-46000000D01*
X138000000Y-48000000D01*
X138000000Y-48000000D01*
G37*
G36*
X105321899Y-43381704D02*
G01*
X105481287Y-43413408D01*
X105605667Y-43464928D01*
X105781567Y-43537788D01*
X105908458Y-43622574D01*
X106051814Y-43718361D01*
X106281639Y-43948186D01*
X106281640Y-43948188D01*
X106462212Y-44218433D01*
X106586592Y-44518714D01*
X106638009Y-44777203D01*
X106650000Y-44837489D01*
X106650000Y-45162511D01*
X106586592Y-45481287D01*
X106535072Y-45605667D01*
X106462212Y-45781567D01*
X106372538Y-45915774D01*
X106281639Y-46051814D01*
X106051814Y-46281639D01*
X105915774Y-46372538D01*
X105781567Y-46462212D01*
X105605667Y-46535072D01*
X105481287Y-46586592D01*
X105321899Y-46618296D01*
X105162512Y-46650000D01*
X104837488Y-46650000D01*
X104678101Y-46618296D01*
X104518713Y-46586592D01*
X104394333Y-46535072D01*
X104218433Y-46462212D01*
X104084226Y-46372538D01*
X103948186Y-46281639D01*
X103718361Y-46051814D01*
X103627462Y-45915774D01*
X103537788Y-45781567D01*
X103464928Y-45605667D01*
X103413408Y-45481287D01*
X103350000Y-45162511D01*
X103350000Y-44837489D01*
X103361992Y-44777203D01*
X103413408Y-44518714D01*
X103537788Y-44218433D01*
X103718360Y-43948188D01*
X103718361Y-43948186D01*
X103948186Y-43718361D01*
X104091542Y-43622574D01*
X104218433Y-43537788D01*
X104394333Y-43464928D01*
X104518713Y-43413408D01*
X104678101Y-43381704D01*
X104837488Y-43350000D01*
X105162512Y-43350000D01*
X105321899Y-43381704D01*
X105321899Y-43381704D01*
G37*
G36*
X175321899Y-43381704D02*
G01*
X175481287Y-43413408D01*
X175605667Y-43464928D01*
X175781567Y-43537788D01*
X175908458Y-43622574D01*
X176051814Y-43718361D01*
X176281639Y-43948186D01*
X176281640Y-43948188D01*
X176462212Y-44218433D01*
X176586592Y-44518714D01*
X176638009Y-44777203D01*
X176650000Y-44837489D01*
X176650000Y-45162511D01*
X176586592Y-45481287D01*
X176535072Y-45605667D01*
X176462212Y-45781567D01*
X176372538Y-45915774D01*
X176281639Y-46051814D01*
X176051814Y-46281639D01*
X175915774Y-46372538D01*
X175781567Y-46462212D01*
X175605667Y-46535072D01*
X175481287Y-46586592D01*
X175321899Y-46618296D01*
X175162512Y-46650000D01*
X174837488Y-46650000D01*
X174678101Y-46618296D01*
X174518713Y-46586592D01*
X174394333Y-46535072D01*
X174218433Y-46462212D01*
X174084226Y-46372538D01*
X173948186Y-46281639D01*
X173718361Y-46051814D01*
X173627462Y-45915774D01*
X173537788Y-45781567D01*
X173464928Y-45605667D01*
X173413408Y-45481287D01*
X173350000Y-45162511D01*
X173350000Y-44837489D01*
X173361992Y-44777203D01*
X173413408Y-44518714D01*
X173537788Y-44218433D01*
X173718360Y-43948188D01*
X173718361Y-43948186D01*
X173948186Y-43718361D01*
X174091542Y-43622574D01*
X174218433Y-43537788D01*
X174394333Y-43464928D01*
X174518713Y-43413408D01*
X174678101Y-43381704D01*
X174837488Y-43350000D01*
X175162512Y-43350000D01*
X175321899Y-43381704D01*
X175321899Y-43381704D01*
G37*
G36*
X118551899Y-42581704D02*
G01*
X118711287Y-42613408D01*
X118835667Y-42664928D01*
X119011567Y-42737788D01*
X119011568Y-42737789D01*
X119281814Y-42918361D01*
X119511639Y-43148186D01*
X119511640Y-43148188D01*
X119692212Y-43418433D01*
X119762038Y-43587008D01*
X119816446Y-43718360D01*
X119816592Y-43718714D01*
X119880000Y-44037488D01*
X119880000Y-44362512D01*
X119816592Y-44681286D01*
X119692212Y-44981567D01*
X119692211Y-44981568D01*
X119511639Y-45251814D01*
X119281814Y-45481639D01*
X119145774Y-45572538D01*
X119011567Y-45662212D01*
X118835667Y-45735072D01*
X118711287Y-45786592D01*
X118551899Y-45818296D01*
X118392512Y-45850000D01*
X118067488Y-45850000D01*
X117908101Y-45818296D01*
X117748713Y-45786592D01*
X117624333Y-45735072D01*
X117448433Y-45662212D01*
X117314226Y-45572538D01*
X117178186Y-45481639D01*
X116948361Y-45251814D01*
X116767789Y-44981568D01*
X116767788Y-44981567D01*
X116643408Y-44681286D01*
X116580000Y-44362512D01*
X116580000Y-44037488D01*
X116643408Y-43718714D01*
X116643555Y-43718360D01*
X116697962Y-43587008D01*
X116767788Y-43418433D01*
X116948360Y-43148188D01*
X116948361Y-43148186D01*
X117178186Y-42918361D01*
X117448432Y-42737789D01*
X117448433Y-42737788D01*
X117624333Y-42664928D01*
X117748713Y-42613408D01*
X117908101Y-42581704D01*
X118067488Y-42550000D01*
X118392512Y-42550000D01*
X118551899Y-42581704D01*
X118551899Y-42581704D01*
G37*
G36*
X114800000Y-45850000D02*
G01*
X111500000Y-45850000D01*
X111500000Y-42550000D01*
X114800000Y-42550000D01*
X114800000Y-45850000D01*
X114800000Y-45850000D01*
G37*
G36*
X154771931Y-43587008D02*
G01*
X154889177Y-43622574D01*
X154997231Y-43680330D01*
X155091942Y-43758057D01*
X155169669Y-43852768D01*
X155227425Y-43960822D01*
X155262991Y-44078068D01*
X155275000Y-44199999D01*
X155275000Y-44200001D01*
X155262991Y-44321932D01*
X155227425Y-44439178D01*
X155169669Y-44547232D01*
X155091942Y-44641943D01*
X154997231Y-44719670D01*
X154889177Y-44777426D01*
X154771931Y-44812992D01*
X154650000Y-44825001D01*
X154350000Y-44825001D01*
X154228069Y-44812992D01*
X154110823Y-44777426D01*
X154002769Y-44719670D01*
X153908058Y-44641943D01*
X153830331Y-44547232D01*
X153772575Y-44439178D01*
X153737009Y-44321932D01*
X153725000Y-44200001D01*
X153725000Y-44199999D01*
X153737009Y-44078068D01*
X153772575Y-43960822D01*
X153830331Y-43852768D01*
X153908058Y-43758057D01*
X154002769Y-43680330D01*
X154110823Y-43622574D01*
X154228069Y-43587008D01*
X154350000Y-43574999D01*
X154650000Y-43574999D01*
X154771931Y-43587008D01*
X154771931Y-43587008D01*
G37*
G36*
X149771931Y-43587008D02*
G01*
X149889177Y-43622574D01*
X149997231Y-43680330D01*
X150091942Y-43758057D01*
X150169669Y-43852768D01*
X150227425Y-43960822D01*
X150262991Y-44078068D01*
X150275000Y-44199999D01*
X150275000Y-44200001D01*
X150262991Y-44321932D01*
X150227425Y-44439178D01*
X150169669Y-44547232D01*
X150091942Y-44641943D01*
X149997231Y-44719670D01*
X149889177Y-44777426D01*
X149771931Y-44812992D01*
X149650000Y-44825001D01*
X149350000Y-44825001D01*
X149228069Y-44812992D01*
X149110823Y-44777426D01*
X149002769Y-44719670D01*
X148908058Y-44641943D01*
X148830331Y-44547232D01*
X148772575Y-44439178D01*
X148737009Y-44321932D01*
X148725000Y-44200001D01*
X148725000Y-44199999D01*
X148737009Y-44078068D01*
X148772575Y-43960822D01*
X148830331Y-43852768D01*
X148908058Y-43758057D01*
X149002769Y-43680330D01*
X149110823Y-43622574D01*
X149228069Y-43587008D01*
X149350000Y-43574999D01*
X149650000Y-43574999D01*
X149771931Y-43587008D01*
X149771931Y-43587008D01*
G37*
G36*
X148617055Y-40586529D02*
G01*
X148729611Y-40620672D01*
X148833343Y-40676118D01*
X148924265Y-40750736D01*
X148998883Y-40841658D01*
X149054329Y-40945390D01*
X149088472Y-41057946D01*
X149100001Y-41175000D01*
X149100001Y-41825000D01*
X149088472Y-41942054D01*
X149054329Y-42054610D01*
X148998883Y-42158342D01*
X148924265Y-42249264D01*
X148833343Y-42323882D01*
X148729611Y-42379328D01*
X148617055Y-42413471D01*
X148500001Y-42425000D01*
X148499999Y-42425000D01*
X148382945Y-42413471D01*
X148270389Y-42379328D01*
X148166657Y-42323882D01*
X148075735Y-42249264D01*
X148001117Y-42158342D01*
X147945671Y-42054610D01*
X147911528Y-41942054D01*
X147899999Y-41825000D01*
X147899999Y-41175000D01*
X147911528Y-41057946D01*
X147945671Y-40945390D01*
X148001117Y-40841658D01*
X148075735Y-40750736D01*
X148166657Y-40676118D01*
X148270389Y-40620672D01*
X148382945Y-40586529D01*
X148499999Y-40575000D01*
X148500001Y-40575000D01*
X148617055Y-40586529D01*
X148617055Y-40586529D01*
G37*
G36*
X155617055Y-40586529D02*
G01*
X155729611Y-40620672D01*
X155833343Y-40676118D01*
X155924265Y-40750736D01*
X155998883Y-40841658D01*
X156054329Y-40945390D01*
X156088472Y-41057946D01*
X156100001Y-41175000D01*
X156100001Y-41825000D01*
X156088472Y-41942054D01*
X156054329Y-42054610D01*
X155998883Y-42158342D01*
X155924265Y-42249264D01*
X155833343Y-42323882D01*
X155729611Y-42379328D01*
X155617055Y-42413471D01*
X155500001Y-42425000D01*
X155499999Y-42425000D01*
X155382945Y-42413471D01*
X155270389Y-42379328D01*
X155166657Y-42323882D01*
X155075735Y-42249264D01*
X155001117Y-42158342D01*
X154945671Y-42054610D01*
X154911528Y-41942054D01*
X154899999Y-41825000D01*
X154899999Y-41175000D01*
X154911528Y-41057946D01*
X154945671Y-40945390D01*
X155001117Y-40841658D01*
X155075735Y-40750736D01*
X155166657Y-40676118D01*
X155270389Y-40620672D01*
X155382945Y-40586529D01*
X155499999Y-40575000D01*
X155500001Y-40575000D01*
X155617055Y-40586529D01*
X155617055Y-40586529D01*
G37*
M02*
